<?xml version="1.0" standalone="no"?>
<!DOCTYPE svg PUBLIC "-//W3C//DTD SVG 1.1//EN" "http://www.w3.org/Graphics/SVG/1.1/DTD/svg11.dtd" >
<svg xmlns="http://www.w3.org/2000/svg" xmlns:xlink="http://www.w3.org/1999/xlink" version="1.1">
<metadata>
Created by FontForge 20170731 at Mon Jul 24 16:10:42 2017
 By Aleksey,,,
Copyright 2017 The Exo Project Authors (https://github.com/NDISCOVER/Exo-1.0)
</metadata>
<defs>
<font id="Exo-Medium" horiz-adv-x="590" >
  <font-face 
    font-family="Exo Medium"
    font-weight="500"
    font-stretch="normal"
    units-per-em="1000"
    panose-1="0 0 6 0 0 0 0 0 0 0"
    ascent="800"
    descent="-200"
    x-height="535"
    cap-height="737"
    bbox="-514 -270 1337 1108"
    underline-thickness="50"
    underline-position="-150"
    unicode-range="U+000D-FB04"
  />
<missing-glyph horiz-adv-x="655" 
d="M599 539v-544h-543v544h543zM548 488h-441v-441h441v441zM328 223l-123 -123l-44 44l123 123l-123 123l44 44l123 -123l123 123l44 -44l-123 -123l123 -123l-44 -44z" />
    <glyph glyph-name="fi" unicode="fi" horiz-adv-x="627" 
d="M557 0h-100v453h-259v-453h-101v453h-80v65l80 17v67q0 89 35 128t117 39q66 0 120 -15v-72q-52 4 -88 4q-48 0 -65.5 -23t-17.5 -74v-54h359v-535zM557 739q4 -5 4 -13v-84q0 -17 -16 -17h-74q-8 0 -13 4.5t-5 12.5v84q0 18 18 18h74q8 0 12 -5z" />
    <glyph glyph-name="fl" unicode="fl" horiz-adv-x="687" 
d="M676 72v-72h-70q-76 0 -112.5 40.5t-36.5 132.5v510q-74 3 -146 3q-65 0 -89 -23t-24 -74v-54h156v-82h-156v-453h-101v453h-80v65l80 17v58q0 94 46.5 135t153.5 41q122 0 260 -23v-559q0 -59 16.5 -81.5t52.5 -27.5z" />
    <glyph glyph-name="f_f" unicode="ff" horiz-adv-x="774" 
d="M605.5 664q-16.5 -22 -16.5 -71v-58h157v-82h-157v-453h-100v453h-291v-453h-101v453h-80v65l80 17v67q0 89 35 128t117 39q66 0 120 -15v-72q-52 4 -88 4q-48 0 -65.5 -23t-17.5 -74v-54h291v53q0 93 36.5 137t124.5 44q50 0 105 -11v-72h-87q-46 0 -62.5 -22z" />
    <glyph glyph-name="f_f_i" unicode="ffi" horiz-adv-x="1014" 
d="M944 0h-100v453h-259v-453h-101v453h-286v-453h-101v453h-80v65l80 17v67q0 89 35 128t117 39q66 0 120 -15v-72q-52 4 -88 4q-48 0 -65.5 -23t-17.5 -74v-54h286v67q0 89 35 128t117 39q66 0 120 -15v-72q-52 4 -88 4q-48 0 -65.5 -23t-17.5 -74v-54h359v-535zM944 739
q4 -5 4 -13v-84q0 -17 -16 -17h-74q-8 0 -13 4.5t-5 12.5v84q0 18 18 18h74q8 0 12 -5z" />
    <glyph glyph-name="f_f_l" unicode="ffl" horiz-adv-x="1074" 
d="M1063 72v-72h-70q-76 0 -112.5 40.5t-36.5 132.5v510q-73 3 -146 3q-65 0 -89 -23t-24 -74v-54h156v-82h-156v-453h-101v453h-286v-453h-101v453h-80v65l80 17v67q0 89 35 128t117 39q66 0 120 -15v-72q-52 4 -88 4q-48 0 -65.5 -23t-17.5 -74v-54h286v58q0 94 46.5 135
t153.5 41q122 0 260 -23v-559q0 -59 16.5 -81.5t52.5 -27.5z" />
    <glyph glyph-name=".notdef" horiz-adv-x="655" 
d="M599 539v-544h-543v544h543zM548 488h-441v-441h441v441zM328 223l-123 -123l-44 44l123 123l-123 123l44 44l123 -123l123 123l44 -44l-123 -123l123 -123l-44 -44z" />
    <glyph glyph-name=".null" horiz-adv-x="0" 
 />
    <glyph glyph-name="nonmarkingreturn" unicode="&#xd;" horiz-adv-x="267" 
 />
    <glyph glyph-name="space" unicode=" " horiz-adv-x="267" 
 />
    <glyph glyph-name="exclam" unicode="!" horiz-adv-x="268" 
d="M82 736h101l-15 -535h-73zM91 4q-5 5 -5 12v87q0 18 17 18h57q18 0 18 -18v-87q0 -17 -18 -17h-57q-7 0 -12 5z" />
    <glyph glyph-name="quotedbl" unicode="&#x22;" horiz-adv-x="320" 
d="M38 682v67h97v-67l-8 -178h-80zM181 682v67h97v-67l-8 -178h-80z" />
    <glyph glyph-name="numbersign" unicode="#" horiz-adv-x="697" 
d="M182 223h-162l10 66h165l24 152h-165l11 66h167l39 225h66l-39 -225h142l38 225h66l-38 -225h173l-10 -66h-174l-24 -152h173l-9 -66h-179l-38 -223h-66l38 223h-142l-38 -223h-66zM405 289l24 152h-144l-24 -152h144z" />
    <glyph glyph-name="dollar" unicode="$" horiz-adv-x="609" 
d="M480 367.5q47 -48.5 47 -128.5v-52q0 -101 -54.5 -144t-153.5 -48v-84h-58v83q-53 2 -110 7t-90 13v78q83 -8 221 -8q71 0 110 21.5t39 78.5v43q0 93 -99 93h-75q-99 0 -150 43.5t-51 142.5v41q0 100 53 147t158 49l-6 31l48 50l10 -48l-32 -33q48 -1 106.5 -7.5
t99.5 -14.5v-78l-21 1q-128 9 -184 9q-68 0 -102 -24t-34 -87v-30q0 -52 27.5 -74t82.5 -22h81q90 0 137 -48.5z" />
    <glyph glyph-name="percent" unicode="%" horiz-adv-x="960" 
d="M72.5 381q-30.5 32 -30.5 98v124q0 66 30.5 97.5t103.5 31.5h101q71 0 101 -31.5t30 -97.5v-124q0 -67 -30 -98.5t-103 -31.5h-101q-71 0 -101.5 32zM665 732h67l-442 -732h-70zM263 414q44 0 62 17t18 61v97q0 44 -17 61t-61 17h-78q-42 0 -61 -16t-19 -62v-97
q0 -43 17.5 -60.5t60.5 -17.5h78zM583 35q-30 32 -30 98v124q0 66 30 97.5t103 31.5h102q71 0 101 -31.5t30 -97.5v-124q0 -67 -30 -98.5t-103 -31.5h-102q-71 0 -101 32zM774 68q44 0 62 17t18 61v97q0 44 -17 61t-61 17h-78q-42 0 -61 -16t-19 -62v-97q0 -43 17.5 -60.5
t60.5 -17.5h78z" />
    <glyph glyph-name="ampersand" unicode="&#x26;" horiz-adv-x="681" 
d="M133 18.5q-44 24.5 -69 69t-25 102.5q0 109 93 189l64 54l-17 25q-28 41 -38.5 74.5t-10.5 65.5q0 71 48.5 104t127.5 33q96 0 178 -16v-73h-160q-93 0 -93 -69q0 -22 11.5 -47t37.5 -61l180 -246l147 136l37 -44l-68 -96l-65 -62l117 -157h-106l-76 99l-35 -30
q-44 -41 -86 -58t-92 -17q-56 0 -100 24.5zM305.5 98.5q26.5 11.5 56.5 40.5l29 28l-146 197l-48 -42q-34 -29 -48 -58.5t-14 -62.5q0 -51 31 -82.5t83 -31.5q30 0 56.5 11.5z" />
    <glyph glyph-name="quotesingle" unicode="'" horiz-adv-x="177" 
d="M38 682v67h97v-67l-8 -178h-80z" />
    <glyph glyph-name="parenleft" unicode="(" horiz-adv-x="359" 
d="M119 37.5q-45 126.5 -45 288.5q0 155 46.5 284t126.5 250h92q-77 -132 -120.5 -260.5t-43.5 -273.5q0 -147 41 -271t123 -265h-92q-83 121 -128 247.5z" />
    <glyph glyph-name="parenright" unicode=")" horiz-adv-x="359" 
d="M142 50.5q42 126.5 42 274.5t-40 271.5t-124 263.5h92q84 -121 128 -247t44 -288q0 -158 -44.5 -285t-127.5 -250h-92q80 134 122 260.5z" />
    <glyph glyph-name="asterisk" unicode="*" horiz-adv-x="446" 
d="M184 723l37 12l65 -125l-53 -21zM259 561l115 82l23 -33l-101 -93zM50 580v40l141 10l2 -55zM116 413l29 136l55 -13l-47 -135zM211 479l29 48l116 -86l-23 -31z" />
    <glyph glyph-name="plus" unicode="+" horiz-adv-x="609" 
d="M528 315h-183v-183h-82v183h-183v82h183v183h82v-183h183v-82z" />
    <glyph glyph-name="comma" unicode="," horiz-adv-x="210" 
d="M75 -80q-9 2 -12 3v31q12 0 17.5 4t5.5 14v34h-9q-8 0 -12.5 5t-4.5 14v76q0 20 17 20h56q17 0 17 -20v-126q0 -57 -55 -57q-11 0 -20 2z" />
    <glyph glyph-name="hyphen" unicode="-" horiz-adv-x="345" 
d="M24 331h297v-82h-297v82z" />
    <glyph glyph-name="period" unicode="." horiz-adv-x="210" 
d="M65 4q-5 5 -5 12v87q0 18 17 18h57q18 0 18 -18v-87q0 -17 -18 -17h-57q-7 0 -12 5z" />
    <glyph glyph-name="slash" unicode="/" horiz-adv-x="421" 
d="M301 770h100l-281 -842h-100z" />
    <glyph glyph-name="zero" unicode="0" horiz-adv-x="653" 
d="M119.5 42q-49.5 45 -49.5 135v381q0 89 50.5 137t135.5 48h147q90 0 135 -49t45 -136v-381q0 -89 -48 -134.5t-133 -45.5h-146q-87 0 -136.5 45zM378 88q104 0 104 103v358q0 104 -100 104h-108q-49 0 -76.5 -27t-27.5 -77v-358q0 -51 28 -77t79 -26h101z" />
    <glyph glyph-name="one" unicode="1" horiz-adv-x="365" 
d="M185 646l-145 -33v64l155 67h91v-744h-101v646z" />
    <glyph glyph-name="two" unicode="2" horiz-adv-x="591" 
d="M52 81l264 257q57 54 81 98.5t24 99.5q0 54 -32 83t-112 29h-202v78q130 17 223 17q121 0 172 -49.5t51 -143.5q0 -75 -29.5 -134t-97.5 -124l-207 -200h360v-92h-495v81z" />
    <glyph glyph-name="three" unicode="3" horiz-adv-x="583" 
d="M42 9v79h236q69 0 104.5 21.5t35.5 77.5v43q0 49 -33.5 71.5t-84.5 24.5l-187 8v75l183 8q54 2 83.5 22.5t29.5 64.5v42q0 102 -137 102h-208v79q124 17 247 16q97 -1 147 -47t50 -129v-60q0 -60 -30.5 -93t-71.5 -43q43 -10 78.5 -50t35.5 -103v-48q0 -85 -54 -130.5
t-152 -45.5q-155 0 -272 15z" />
    <glyph glyph-name="four" unicode="4" horiz-adv-x="602" 
d="M386 178h-340l-21 52l266 507h103l-251 -473h243v181l21 73h80v-254h93v-69l-93 -17v-177h-101v177z" />
    <glyph glyph-name="five" unicode="5" horiz-adv-x="623" 
d="M76 7v79h257q62 0 97 30t35 79v72q0 47 -27.5 73t-81.5 26h-72q-42 0 -65.5 -18t-30.5 -56h-95l21 445h426v-90h-339l-11 -242q14 21 43.5 34t70.5 13h85q84 0 130.5 -46.5t46.5 -121.5v-109q0 -90 -62.5 -135t-173.5 -45q-129 0 -254 12z" />
    <glyph glyph-name="six" unicode="6" horiz-adv-x="618" 
d="M159 29q-45 32 -69.5 112.5t-24.5 223.5q0 198 68 288t198 90q94 0 185 -12v-78h-179q-84 0 -127.5 -60.5t-43.5 -180.5q72 13 192 13q103 0 152.5 -38.5t49.5 -120.5v-104q0 -86 -47.5 -125.5t-126.5 -39.5h-112q-70 0 -115 32zM365 87q45 0 70 20.5t25 71.5v69
q0 54 -30.5 72.5t-97.5 18.5h-166q0 -98 14 -153t41 -77t71 -22h73z" />
    <glyph glyph-name="seven" unicode="7" horiz-adv-x="547" 
d="M383 636h-353v101h452l29 -48l-261 -689h-113z" />
    <glyph glyph-name="eight" unicode="8" horiz-adv-x="638" 
d="M74 148v104q0 47 27 80.5t64 41.5q-43 19 -59.5 52t-16.5 78v85q0 79 45.5 116t119.5 37h139q74 0 115.5 -36.5t41.5 -116.5v-85q0 -37 -18.5 -73.5t-53.5 -45.5q45 -9 65.5 -46t20.5 -82v-109q0 -81 -45 -116t-126 -35h-135q-184 0 -184 151zM368 419q44 0 64 24.5
t20 59.5v63q0 50 -20 70.5t-60 20.5h-98q-46 0 -66.5 -21t-20.5 -70v-63q0 -40 21.5 -62t65.5 -22h94zM372 83q48 0 70 20t22 61v84q0 45 -22 65t-73 20h-95q-36 0 -67.5 -21.5t-31.5 -63.5v-84q0 -81 99 -81h98z" />
    <glyph glyph-name="nine" unicode="9" horiz-adv-x="618" 
d="M104 7v79h179q84 0 127.5 60t43.5 180q-71 -13 -192 -13q-103 0 -152.5 38.5t-49.5 120.5v105q0 85 47.5 124.5t126.5 39.5h112q70 0 115 -32t69.5 -112.5t24.5 -223.5q0 -198 -68 -288t-198 -90q-94 0 -185 12zM454 399q0 98 -14 153t-41 77t-71 22h-73q-45 0 -70 -20.5
t-25 -71.5v-69q0 -53 30.5 -72t97.5 -19h166z" />
    <glyph glyph-name="colon" unicode=":" horiz-adv-x="210" 
d="M65 4q-5 5 -5 12v87q0 18 17 18h57q18 0 18 -18v-87q0 -17 -18 -17h-57q-7 0 -12 5zM65 419q-5 5 -5 12v87q0 18 17 18h57q18 0 18 -18v-87q0 -17 -18 -17h-57q-7 0 -12 5z" />
    <glyph glyph-name="semicolon" unicode=";" horiz-adv-x="210" 
d="M65 419q-5 5 -5 12v87q0 18 17 18h57q18 0 18 -18v-87q0 -17 -18 -17h-57q-7 0 -12 5zM75 -80q-9 2 -12 3v31q12 0 17.5 4t5.5 14v34h-9q-8 0 -12.5 5t-4.5 14v76q0 20 17 20h56q17 0 17 -20v-126q0 -57 -55 -57q-11 0 -20 2z" />
    <glyph glyph-name="less" unicode="&#x3c;" horiz-adv-x="609" 
d="M96 305v89l415 134v-88l-318 -89l318 -95v-87z" />
    <glyph glyph-name="equal" unicode="=" horiz-adv-x="609" 
d="M80 277h448v-82h-448v82zM80 517h448v-82h-448v82z" />
    <glyph glyph-name="greater" unicode="&#x3e;" horiz-adv-x="609" 
d="M98 256l319 94l-319 90v88l415 -134v-89l-415 -136v87z" />
    <glyph glyph-name="question" unicode="?" horiz-adv-x="530" 
d="M163 370h56q74 0 106.5 23t32.5 81v51q0 66 -31 95t-98 29q-47 0 -90.5 -9t-94.5 -28v73q93 54 215 54q103 0 151 -52.5t48 -146.5v-68q0 -91 -52.5 -135.5t-165.5 -44.5v-92h-77v170zM161 4q-5 5 -5 12v87q0 18 17 18h57q18 0 18 -18v-87q0 -17 -18 -17h-57q-7 0 -12 5z
" />
    <glyph glyph-name="at" unicode="@" horiz-adv-x="876" 
d="M120.5 -120q-55.5 51 -55.5 155v312q0 76 43 133.5t157 57.5h187q76 0 123.5 -32t47.5 -122v-358h-61l-15 59q-2 -1 -54 -34.5t-131 -33.5q-60 0 -94 38t-34 92v44q0 61 37 94t105 33h169v60q0 43 -23.5 62.5t-68.5 19.5h-188q-57 0 -89.5 -26.5t-32.5 -91.5v-298
q0 -72 36 -104t86 -32h319q68 0 99 34.5t31 101.5v467q0 66 -34 104.5t-96 38.5h-396v61q36 7 121 12t180 5h95q90 0 149 -54t59 -167v-467q0 -106 -49.5 -160.5t-154.5 -54.5h-323q-89 0 -144.5 51zM473.5 110q46.5 15 71.5 34v120l-151 -8q-35 -2 -56.5 -14.5t-21.5 -48.5
v-31q0 -32 20 -49.5t57 -17.5q34 0 80.5 15z" />
    <glyph glyph-name="A" unicode="A" horiz-adv-x="678" 
d="M275 737h128l246 -737h-105l-65 193h-282l-64 -193h-104zM454 284l-116 366l-117 -366h233z" />
    <glyph glyph-name="B" unicode="B" horiz-adv-x="611" 
d="M73 737h274q196 0 196 -190q0 -66 -28.5 -109t-74.5 -55q51 -13 90 -57t39 -122q0 -111 -53 -157.5t-158 -46.5h-285v737zM350 417q44 0 70.5 33t26.5 89q0 108 -101 108h-172v-230h176zM355 90q57 0 87.5 29.5t30.5 101.5q0 55 -33.5 86.5t-84.5 31.5h-181v-249h181z
" />
    <glyph glyph-name="C" unicode="C" horiz-adv-x="582" 
d="M166.5 23.5q-55.5 29.5 -83.5 111t-28 236.5q0 147 29 228t86 112.5t151 31.5q52 0 112 -8.5t106 -20.5v-76q-32 5 -88 10t-112 5q-71 0 -109.5 -22.5t-56.5 -83t-18 -177.5q0 -120 17 -180.5t55 -83t111 -22.5q121 0 201 12v-77q-100 -25 -222 -25q-95 0 -150.5 29.5z
" />
    <glyph glyph-name="D" unicode="D" horiz-adv-x="673" 
d="M73 737h298q133 0 190 -93t57 -276q0 -179 -62.5 -273.5t-184.5 -94.5h-298v737zM362 90q155 0 155 278q0 105 -16.5 166t-50 87t-88.5 26h-188v-557h188z" />
    <glyph glyph-name="E" unicode="E" 
d="M119 26q-46 30 -46 119v438q0 81 44 117.5t106 36.5q119 0 269 -8l45 -2v-83h-284q-79 0 -79 -79v-153l318 -6v-78l-318 -7v-151q0 -47 22 -63.5t59 -16.5h282v-83q-172 -11 -306 -11q-66 0 -112 30z" />
    <glyph glyph-name="F" unicode="F" horiz-adv-x="572" 
d="M73 583q0 81 44 117.5t106 36.5q182 0 314 -11v-82h-286q-37 0 -57 -20.5t-20 -57.5v-171l318 -6v-78l-318 -6v-305h-101v583z" />
    <glyph glyph-name="G" unicode="G" horiz-adv-x="657" 
d="M145.5 36q-50.5 41 -70.5 122t-20 212q0 130 22 210.5t78 121.5t156 41q121 0 241 -27v-77q-115 14 -224 14q-70 0 -107 -27.5t-51.5 -88t-14.5 -168.5q0 -113 14.5 -173t49 -84.5t99.5 -24.5q77 0 169 33v195h-164v77q65 10 167 10q44 0 94 -4v-398h-75l-15 51
q-41 -22 -95.5 -39t-111.5 -17q-91 0 -141.5 41z" />
    <glyph glyph-name="H" unicode="H" horiz-adv-x="688" 
d="M73 737h101v-331h341v331h100v-737h-100v316h-341v-316h-101v737z" />
    <glyph glyph-name="I" unicode="I" horiz-adv-x="247" 
d="M73 737h101v-737h-101v737z" />
    <glyph glyph-name="J" unicode="J" horiz-adv-x="391" 
d="M81 0.5q-32 6.5 -54 15.5v79q62 -11 95 -11q47 0 71 21.5t24 75.5v556h100v-569q0 -92 -42 -133t-132 -41q-30 0 -62 6.5z" />
    <glyph glyph-name="K" unicode="K" horiz-adv-x="618" 
d="M73 737h101v-325h120l186 325h107l-214 -369l218 -368h-108l-190 322h-119v-322h-101v737z" />
    <glyph glyph-name="L" unicode="L" horiz-adv-x="533" 
d="M113 36q-40 36 -40 120v581h101v-566q0 -45 21 -62t58 -17h255v-92h-279q-76 0 -116 36z" />
    <glyph glyph-name="M" unicode="M" horiz-adv-x="850" 
d="M700 0l-67 570l-162 -570h-93l-164 567l-64 -567h-97l84 737h100l188 -615l185 615h101l86 -737h-97z" />
    <glyph glyph-name="N" unicode="N" horiz-adv-x="689" 
d="M84 737h82l361 -565v565h100v-737h-81l-361 565v-565h-101v737z" />
    <glyph glyph-name="O" unicode="O" horiz-adv-x="690" 
d="M179 22q-61 28 -92.5 108t-31.5 236t32 237.5t93 110.5t165 29q106 0 167 -29t92.5 -110.5t31.5 -237.5t-31.5 -236t-92.5 -108t-167 -28q-105 0 -166 28zM459 105q40 21 58 81t18 180q0 125 -18 186t-57.5 81t-114.5 20q-72 0 -111.5 -20.5t-59 -81.5t-19.5 -185
q0 -121 17.5 -180.5t57 -80.5t115.5 -21q74 0 114 21z" />
    <glyph glyph-name="P" unicode="P" horiz-adv-x="609" 
d="M73 737h299q85 0 141.5 -50t56.5 -191q0 -142 -58 -194.5t-141 -52.5q-31 0 -93.5 4t-103.5 8v-261h-101v737zM357 339q112 0 112 156q0 152 -106 152h-189v-308h183z" />
    <glyph glyph-name="Q" unicode="Q" horiz-adv-x="690" 
d="M179 22q-61 28 -92.5 108t-31.5 236t32 237.5t93 110.5t165 29q106 0 167 -29t92.5 -110.5t31.5 -237.5t-31.5 -236t-92.5 -108t-167 -28q-105 0 -166 28zM459 105q40 21 58 81t18 180q0 125 -18 186t-57.5 81t-114.5 20q-72 0 -111.5 -20.5t-59 -81.5t-19.5 -185
q0 -121 17.5 -180.5t57 -80.5t115.5 -21q74 0 114 21zM393 -141q-50 37 -56 106h69q10 -34 37.5 -51t61.5 -17q25 0 56 9v-77q-32 -7 -52 -7q-66 0 -116 37z" />
    <glyph glyph-name="R" unicode="R" horiz-adv-x="614" 
d="M73 737h295q90 0 143.5 -47.5t53.5 -175.5q0 -103 -37.5 -147t-95.5 -60l147 -307h-102l-136 293l-137 2q-11 1 -30 1v-296h-101v737zM352 374q54 0 83.5 30t29.5 110q0 77 -30 105t-83 28h-178v-273h178z" />
    <glyph glyph-name="S" unicode="S" horiz-adv-x="582" 
d="M167.5 -0.5q-67.5 5.5 -106.5 14.5v78q83 -8 221 -8q71 0 110 21.5t39 78.5v43q0 93 -99 93h-75q-99 0 -150 43.5t-51 142.5v41q0 102 55.5 149t165.5 47q48 0 110 -7t106 -15v-78l-21 1q-128 9 -184 9q-68 0 -102 -24t-34 -87v-30q0 -52 27.5 -74t82.5 -22h81
q90 0 137 -48.5t47 -128.5v-52q0 -109 -63 -151t-178 -42q-51 0 -118.5 5.5z" />
    <glyph glyph-name="T" unicode="T" horiz-adv-x="573" 
d="M236 647h-220v90h541v-90h-220v-647h-101v647z" />
    <glyph glyph-name="U" unicode="U" horiz-adv-x="679" 
d="M133.5 46.5q-70.5 52.5 -70.5 184.5v506h101v-505q0 -81 44 -114t131 -33q88 0 132 33t44 114v505h101v-506q0 -132 -71 -184.5t-206 -52.5t-205.5 52.5z" />
    <glyph glyph-name="V" unicode="V" horiz-adv-x="678" 
d="M29 737h104l206 -630l207 630h103l-246 -737h-128z" />
    <glyph glyph-name="W" unicode="W" horiz-adv-x="991" 
d="M29 737h104l146 -594l169 594h97l167 -594l147 594h103l-185 -737h-106l-175 594l-176 -594h-106z" />
    <glyph glyph-name="X" unicode="X" horiz-adv-x="636" 
d="M376 363l228 -363h-111l-179 285l-171 -285h-110l228 369l-231 368h110l183 -291l172 291h111z" />
    <glyph glyph-name="Y" unicode="Y" horiz-adv-x="621" 
d="M260 238l-230 499h105l177 -397l178 397h101l-230 -499v-238h-101v238z" />
    <glyph glyph-name="Z" unicode="Z" horiz-adv-x="564" 
d="M42 81l363 566h-363v90h485v-81l-363 -566h363v-90h-485v81z" />
    <glyph glyph-name="bracketleft" unicode="[" horiz-adv-x="335" 
d="M119 -152.5q-34 57.5 -34 136.5v673q0 80 37 132.5t126 52.5h68v-81h-41q-90 0 -90 -118v-654q0 -56 22 -87t68 -31h41v-81h-68q-95 0 -129 57.5z" />
    <glyph glyph-name="backslash" unicode="\" horiz-adv-x="421" 
d="M20 770h100l281 -842h-100z" />
    <glyph glyph-name="bracketright" unicode="]" horiz-adv-x="335" 
d="M20 -129h41q89 0 89 118v654q0 118 -89 118h-41v81h68q89 0 126 -52.5t37 -132.5v-673q0 -78 -34.5 -136t-128.5 -58h-68v81z" />
    <glyph glyph-name="asciicircum" unicode="^" horiz-adv-x="394" 
d="M168 666h70l107 -135h-60l-84 86l-91 -86h-60z" />
    <glyph glyph-name="underscore" unicode="_" horiz-adv-x="609" 
d="M0 -90h609v-83h-609v83z" />
    <glyph glyph-name="grave" unicode="`" horiz-adv-x="220" 
d="M20 769h83l98 -138h-59z" />
    <glyph glyph-name="a" unicode="a" horiz-adv-x="546" 
d="M79 30q-38 36 -38 98v42q0 64 43.5 102.5t127.5 38.5h167v56q0 33 -11 53.5t-39.5 31.5t-81.5 11h-164v59q88 20 198 21q102 0 150.5 -39.5t48.5 -129.5v-374h-79l-17 60q-9 -8 -42.5 -24t-78 -29t-86.5 -13q-60 0 -98 36zM283 75.5q34 8.5 63.5 19t32.5 12.5v154
l-140 -6q-97 -6 -97 -86v-24q0 -41 24 -59.5t59 -18.5q24 0 58 8.5z" />
    <glyph glyph-name="b" unicode="b" horiz-adv-x="580" 
d="M170 53l-18 -53h-82v763h100v-273q39 22 84.5 37t82.5 15q100 0 145.5 -64.5t45.5 -214.5q0 -132 -45 -200.5t-141 -68.5q-91 0 -172 59zM428 268q0 78 -15.5 120t-41.5 57t-64 15q-37 0 -69.5 -10.5t-67.5 -29.5v-305q33 -17 65.5 -27.5t71.5 -10.5q121 0 121 191z" />
    <glyph glyph-name="c" unicode="c" horiz-adv-x="490" 
d="M108.5 54q-56.5 60 -56.5 212q0 107 26 167t73.5 84t120.5 24q101 0 179 -17v-59h-151q-53 0 -84 -16.5t-47 -60t-16 -123.5q0 -78 16.5 -120t48 -58t83.5 -16h158v-57q-38 -9 -89 -14.5t-101 -5.5q-104 0 -160.5 60z" />
    <glyph glyph-name="d" unicode="d" horiz-adv-x="577" 
d="M99 58.5q-47 64.5 -47 204.5q0 101 19.5 161.5t63.5 89t119 28.5q69 0 156 -29v250h100v-763h-82l-18 53q-25 -22 -74.5 -40.5t-91.5 -18.5q-98 0 -145 64.5zM410 116v325q-6 2 -32 9.5t-49 11t-45 3.5q-49 0 -77 -17.5t-41 -60t-13 -119.5q0 -72 12 -113.5t39 -60
t72 -18.5q62 0 134 40z" />
    <glyph glyph-name="e" unicode="e" horiz-adv-x="540" 
d="M144.5 19q-49.5 25 -71 84t-21.5 165q0 108 21.5 167t70.5 83t136 24q76 0 121 -16t66 -55t21 -108q0 -71 -41 -102.5t-118 -31.5h-177q1 -61 13.5 -94.5t45.5 -48.5t95 -15h167v-60q-55 -8 -97 -12.5t-95 -4.5q-87 0 -136.5 25zM320 292q41 0 59.5 15.5t18.5 54.5
q0 60 -26.5 83t-91.5 23q-51 0 -78.5 -15t-39 -52.5t-11.5 -108.5h169z" />
    <glyph glyph-name="f" unicode="f" horiz-adv-x="375" 
d="M102 453h-80v65l80 17v53q0 93 36.5 137t124.5 44q50 0 105 -11v-72h-87q-46 0 -62.5 -22t-16.5 -71v-58h157v-82h-157v-453h-100v453z" />
    <glyph glyph-name="g" unicode="g" horiz-adv-x="578" 
d="M557 479l-109 -11q27 -20 43.5 -47t16.5 -82q0 -71 -45.5 -117t-145.5 -46h-88q-82 0 -82 -50q0 -21 15.5 -31t37.5 -10h169q93 0 139.5 -36.5t46.5 -114.5v-19q0 -77 -50.5 -119t-148.5 -42h-153q-79 0 -127.5 34t-48.5 97v22q0 42 23.5 73t62.5 48q-25 13 -38.5 34.5
t-13.5 47.5q0 39 23.5 64t66.5 34q-50 22 -71.5 63t-21.5 92q0 173 211 173h288v-57zM392 279.5q24 26.5 24 71.5q0 108 -103 108h-56q-53 0 -80.5 -24t-27.5 -78q0 -104 98 -104h59q62 0 86 26.5zM225 8q-44 0 -73.5 -21t-29.5 -62v-19q0 -80 107 -80h117q54 0 84.5 21
t30.5 63v19q0 38 -25 58.5t-82 20.5h-129z" />
    <glyph glyph-name="h" unicode="h" 
d="M70 763h100v-286q38 28 88 47.5t100 19.5q83 0 124 -50.5t41 -132.5v-361h-100v349q0 47 -27.5 75.5t-73.5 28.5q-42 0 -76.5 -12t-75.5 -36v-405h-100v763z" />
    <glyph glyph-name="i" unicode="i" horiz-adv-x="240" 
d="M71 629.5q-5 4.5 -5 12.5v84q0 18 18 18h74q8 0 12 -5t4 -13v-84q0 -17 -16 -17h-74q-8 0 -13 4.5zM70 535h100v-535h-100v535z" />
    <glyph glyph-name="j" unicode="j" horiz-adv-x="240" 
d="M71 630q-5 5 -5 12v84q0 18 17 18h75q8 0 12 -5t4 -13v-84q0 -17 -16 -17h-75q-7 0 -12 5zM70 535h100v-522q0 -68 -7 -135.5t-18 -114.5h-75v772z" />
    <glyph glyph-name="k" unicode="k" horiz-adv-x="521" 
d="M70 763h100v-433h73l149 205h104l-179 -250l192 -285h-104l-165 240h-70v-240h-100v763z" />
    <glyph glyph-name="l" unicode="l" horiz-adv-x="300" 
d="M106.5 39q-36.5 40 -36.5 133v591h100v-578q0 -59 16.5 -81t52.5 -27l50 -6v-72h-70q-76 0 -112.5 40z" />
    <glyph glyph-name="m" unicode="m" horiz-adv-x="943" 
d="M70 535h80l20 -58q45 31 91.5 49t102.5 18q48 0 83 -21t55 -57q40 31 97.5 54.5t108.5 23.5q86 0 127 -50.5t41 -136.5v-357h-100v348q0 48 -27.5 76.5t-74.5 28.5q-38 0 -79.5 -14.5t-79.5 -38.5q8 -27 8 -53v-347h-100v348q0 48 -27 76.5t-74 28.5q-42 0 -76.5 -12
t-75.5 -36v-405h-100v535z" />
    <glyph glyph-name="n" unicode="n" 
d="M70 535h80l20 -58q39 29 88.5 48t99.5 19q85 0 125 -51.5t40 -132.5v-360h-100v348q0 48 -27 76.5t-74 28.5q-42 0 -76.5 -12t-75.5 -36v-405h-100v535z" />
    <glyph glyph-name="o" unicode="o" horiz-adv-x="576" 
d="M152 18q-51 24 -75.5 83.5t-24.5 166.5q0 110 25 169.5t75.5 82t135.5 22.5t135.5 -23t75.5 -82.5t25 -168.5q0 -108 -24.5 -167.5t-75 -83t-136.5 -23.5q-85 0 -136 24zM366.5 89.5q28.5 13.5 43 55t14.5 124.5t-14.5 124.5t-43 54.5t-78.5 13q-51 0 -78.5 -13
t-42 -54.5t-14.5 -124.5q0 -84 14.5 -125.5t42 -54.5t78.5 -13q50 0 78.5 13.5z" />
    <glyph glyph-name="p" unicode="p" horiz-adv-x="580" 
d="M70 535h82l18 -54q33 24 78 42.5t89 18.5q98 0 144.5 -75t46.5 -199q0 -137 -45.5 -206t-145.5 -69q-41 0 -85.5 12.5t-81.5 33.5v-276h-100v772zM428 268q0 99 -33.5 145.5t-86.5 46.5q-64 0 -138 -40v-305q31 -18 66.5 -28t70.5 -10q121 0 121 191z" />
    <glyph glyph-name="q" unicode="q" horiz-adv-x="577" 
d="M410 53q-37 -26 -81.5 -42.5t-84.5 -16.5q-105 0 -148.5 66t-43.5 208q0 143 48.5 208.5t152.5 65.5q115 0 257 -16v-763h-100v290zM410 116v349h-130q-70 0 -98.5 -49t-28.5 -145q0 -73 11.5 -115t37 -61t68.5 -19q68 0 140 40z" />
    <glyph glyph-name="r" unicode="r" horiz-adv-x="416" 
d="M70 535h77l23 -90q38 46 80 71.5t94 25.5q27 0 48 -6v-103q-32 5 -60 5q-49 0 -86 -17.5t-76 -55.5v-365h-100v535z" />
    <glyph glyph-name="s" unicode="s" horiz-adv-x="501" 
d="M142.5 -1.5q-64.5 4.5 -91.5 12.5v60h225q48 0 71 13.5t23 54.5v22q0 64 -86 64h-78q-77 0 -119 31.5t-42 104.5v29q0 77 45.5 113.5t150.5 36.5q44 0 103 -5.5t91 -12.5v-60h-212q-47 0 -69 -16t-22 -56v-20q0 -38 21.5 -50t69.5 -12h80q75 0 114.5 -35t39.5 -100v-41
q0 -77 -50.5 -107.5t-149.5 -30.5q-50 0 -114.5 4.5z" />
    <glyph glyph-name="t" unicode="t" horiz-adv-x="374" 
d="M134 41q-38 41 -36 137l4 275h-85v65l87 17l15 150h79v-150h145v-82h-145v-274q0 -54 20.5 -75t51.5 -24l66 -6v-74h-81q-83 0 -121 41z" />
    <glyph glyph-name="u" unicode="u" 
d="M109.5 35q-40.5 41 -40.5 123v377h100v-350q0 -57 26 -79.5t79 -22.5q74 0 148 47v405h100v-535h-80l-20 58q-100 -64 -195 -64q-77 0 -117.5 41z" />
    <glyph glyph-name="v" unicode="v" horiz-adv-x="545" 
d="M17 535h103l151 -442l155 442h102l-201 -535h-116z" />
    <glyph glyph-name="w" unicode="w" horiz-adv-x="806" 
d="M17 535h103l117 -442l126 442h85l126 -442l112 442h103l-154 -535h-111l-120 397l-122 -397h-109z" />
    <glyph glyph-name="x" unicode="x" horiz-adv-x="518" 
d="M314 262l186 -262h-102l-143 201l-135 -201h-102l186 273l-186 262h102l143 -202l135 201l102 1z" />
    <glyph glyph-name="y" unicode="y" horiz-adv-x="550" 
d="M286 0q-52 1 -91 32t-58 99l-120 404h105l108 -383q22 -68 75 -68l125 451h103l-184 -673l-48 -99h-80z" />
    <glyph glyph-name="z" unicode="z" horiz-adv-x="498" 
d="M49 74l291 379h-299v82h416v-75l-292 -379h292v-81h-408v74z" />
    <glyph glyph-name="braceleft" unicode="{" horiz-adv-x="312" 
d="M137.5 -165.5q-42.5 44.5 -42.5 127.5v260q0 31 -22 48.5t-53 15.5v95q76 7 76 64v211q0 186 196 186v-81q-52 0 -73.5 -30.5t-21.5 -110.5v-191q0 -43 -25 -66.5t-66 -28.5q40 -7 65 -31.5t25 -60.5v-249q0 -69 21.5 -97.5t74.5 -28.5v-77q-112 0 -154.5 44.5z" />
    <glyph glyph-name="bar" unicode="|" horiz-adv-x="252" 
d="M85 770h82v-842h-82v842z" />
    <glyph glyph-name="braceright" unicode="}" horiz-adv-x="312" 
d="M20 -133q53 0 74.5 28.5t21.5 97.5v249q0 36 25 60.5t66 31.5q-42 5 -67 28.5t-25 66.5v191q0 80 -21.5 110.5t-73.5 30.5v81q196 0 196 -186v-211q0 -57 76 -64v-95q-31 2 -53 -15.5t-22 -48.5v-260q0 -83 -42.5 -127.5t-154.5 -44.5v77z" />
    <glyph glyph-name="asciitilde" unicode="~" horiz-adv-x="442" 
d="M249.5 545q-17.5 8 -39.5 23q-18 12 -30 18t-22 6q-23 0 -43 -10t-51 -33l-14 35q28 30 55 47.5t59 17.5q15 0 32 -8t38 -23q18 -12 30 -18.5t21 -6.5q42 0 93 47l15 -37q-27 -31 -52.5 -48.5t-56.5 -17.5q-17 0 -34.5 8z" />
    <glyph glyph-name="uni00A0" unicode="&#xa0;" horiz-adv-x="267" 
 />
    <glyph glyph-name="exclamdown" unicode="&#xa1;" horiz-adv-x="268" 
d="M177.5 531.5q4.5 -4.5 4.5 -12.5v-87q0 -18 -17 -18h-57q-18 0 -18 18v87q0 17 18 17h57q8 0 12.5 -4.5zM186 -201h-101l15 535h73z" />
    <glyph glyph-name="cent" unicode="&#xa2;" horiz-adv-x="487" 
d="M234 -5q-92 1 -143 59t-51 212q0 107 24 166t66.5 81.5t105.5 22.5v89h58v-90q69 -6 146 -29v-59q-62 12 -170 12q-47 0 -74.5 -14.5t-41.5 -57t-14 -124.5q0 -78 14.5 -119t43 -56.5t75.5 -15.5q98 0 174 16v-60q-41 -17 -76 -24t-78 -9v-83h-59v83z" />
    <glyph glyph-name="sterling" unicode="&#xa3;" horiz-adv-x="609" 
d="M62 76l104 14v238l-104 8v51l104 14v110q0 86 25 136.5t73 71.5t123 21q53 0 152 -11v-79h-148q-45 0 -71.5 -10.5t-40 -38.5t-13.5 -80v-120l205 -9v-56l-205 -8v-238h283v-90h-487v76z" />
    <glyph glyph-name="currency" unicode="&#xa4;" horiz-adv-x="609" 
d="M443 262l92 -92l-44 -44l-92 92q-43 -30 -95 -30q-51 0 -94 30l-92 -92l-44 44l92 92q-29 44 -29 94q0 52 29 95l-92 92l44 44l92 -92q43 30 94 30q52 0 95 -30l92 92l44 -44l-92 -92q30 -43 30 -95q0 -51 -30 -94zM383.5 276.5q33.5 33.5 33.5 79.5q0 47 -33 80t-80 33
q-46 0 -78.5 -33t-32.5 -80q0 -46 32.5 -79.5t78.5 -33.5t79.5 33.5z" />
    <glyph glyph-name="yen" unicode="&#xa5;" horiz-adv-x="609" 
d="M381 316h149v-56h-175l-10 -22v-52h185v-55h-185v-131h-101v131h-165v55h165v52l-10 22h-155v56h129l-194 421h105l177 -397l178 397h101z" />
    <glyph glyph-name="brokenbar" unicode="&#xa6;" horiz-adv-x="252" 
d="M85 770h82v-341h-82v341zM85 256h82v-328h-82v328z" />
    <glyph glyph-name="section" unicode="&#xa7;" horiz-adv-x="547" 
d="M194 -3q-67 3 -102 8v70h205q56 0 76 15t20 46v45q0 20 -5 30t-20 14.5t-47 4.5h-118q-80 0 -116.5 24.5t-36.5 85.5v48q0 45 16 66t53 31q-60 20 -60 105v60q0 134 168 134q56 0 127 -3t102 -9v-69h-215q-45 0 -65.5 -14t-20.5 -53v-41q0 -29 16.5 -40t54.5 -11h117
q87 0 121.5 -25.5t34.5 -87.5v-48q0 -40 -15.5 -62.5t-50.5 -31.5q33 -8 45.5 -33.5t12.5 -63.5v-59q0 -76 -44.5 -107.5t-130.5 -31.5q-55 0 -122 3zM321 307q38 0 54 3.5t22 15t6 37.5v47q0 33 -16.5 44.5t-65.5 11.5h-96q-45 0 -62 -12t-17 -46v-46q0 -28 17.5 -41.5
t61.5 -13.5h96z" />
    <glyph glyph-name="dieresis" unicode="&#xa8;" horiz-adv-x="409" 
d="M72 653q-5 5 -5 12v84q0 18 17 18h46q17 0 17 -18v-84q0 -17 -17 -17h-46q-7 0 -12 5zM267 653q-5 5 -5 12v84q0 18 17 18h47q17 0 17 -18v-84q0 -8 -4.5 -12.5t-12.5 -4.5h-47q-7 0 -12 5z" />
    <glyph glyph-name="copyright" unicode="&#xa9;" horiz-adv-x="832" 
d="M165.5 53.5q-57.5 53.5 -84 137.5t-26.5 177q0 158 57 261t200 103h231q234 0 234 -364q0 -112 -27 -195t-80 -128t-127 -45h-231q-89 0 -146.5 53.5zM538 55q82 0 131 78t49 235q0 139 -38.5 224.5t-136.5 85.5h-231q-88 0 -143 -71t-55 -243q0 -81 22 -151.5t66.5 -114
t109.5 -43.5h226zM273.5 195q-41.5 48 -41.5 170q0 218 153 218q35 0 85.5 -5t88.5 -15v-46q-41 6 -85.5 9t-70.5 3q-57 0 -84.5 -38t-27.5 -129q0 -82 26.5 -121t84.5 -39q94 0 163 16v-47q-40 -15 -81 -19.5t-99 -4.5q-70 0 -111.5 48z" />
    <glyph glyph-name="ordfeminine" unicode="&#xaa;" horiz-adv-x="409" 
d="M60 557.5q31 24.5 92 24.5h122v44q0 33 -19.5 48.5t-74.5 15.5h-121v50q69 17 152 18q76 0 114 -29t38 -97v-272h-70l-15 43q-7 -6 -31 -17.5t-55.5 -20.5t-61.5 -9q-45 0 -73 25.5t-28 69.5v36q0 46 31 70.5zM231.5 426.5q39.5 11.5 42.5 14.5v106l-99 -5
q-34 -1 -49.5 -16.5t-15.5 -41.5v-16q0 -28 16.5 -40.5t42.5 -12.5q23 0 62.5 11.5zM31 311h339v-50h-339v50z" />
    <glyph glyph-name="guillemotleft" unicode="&#xab;" horiz-adv-x="614" 
d="M50 281l215 212l52 -52l-163 -160l167 -164l-52 -53zM300 281l215 212l52 -52l-163 -160l167 -164l-52 -53z" />
    <glyph glyph-name="logicalnot" unicode="&#xac;" horiz-adv-x="609" 
d="M528 517v-322h-82v240h-366v82h448z" />
    <glyph glyph-name="uni00AD" unicode="&#xad;" horiz-adv-x="345" 
d="M24 331h297v-82h-297v82z" />
    <glyph glyph-name="registered" unicode="&#xae;" horiz-adv-x="832" 
d="M165.5 53.5q-57.5 53.5 -84 137.5t-26.5 177q0 158 57 261t200 103h231q234 0 234 -364q0 -112 -27 -195t-80 -128t-127 -45h-231q-89 0 -146.5 53.5zM538 55q82 0 131 78t49 235q0 139 -38.5 224.5t-136.5 85.5h-231q-88 0 -143 -71t-55 -243q0 -81 22 -151.5t66.5 -114
t109.5 -43.5h226zM263 580h182q58 0 93 -28.5t35 -102.5q0 -45 -13 -69.5t-31 -34t-45 -15.5l98 -177h-60l-96 179l-104 2v-181h-59v427zM446 377q36 0 52 14t16 57t-17 60.5t-51 17.5h-124v-149h124z" />
    <glyph glyph-name="macron" unicode="&#xaf;" horiz-adv-x="369" 
d="M50 724h270v-60h-270v60z" />
    <glyph glyph-name="degree" unicode="&#xb0;" horiz-adv-x="326" 
d="M66.5 530q-38.5 38 -38.5 98t38.5 98t97.5 38t96.5 -38t37.5 -98t-37.5 -98t-96.5 -38t-97.5 38zM226.5 563.5q24.5 24.5 24.5 64.5q0 39 -24.5 64t-62.5 25q-39 0 -64 -25t-25 -64t25 -64t64 -25q38 0 62.5 24.5z" />
    <glyph glyph-name="plusminus" unicode="&#xb1;" horiz-adv-x="609" 
d="M80 197h448v-82h-448v82zM528 465h-183v-183h-82v183h-183v82h183v183h82v-183h183v-82z" />
    <glyph glyph-name="uni00B2" unicode="&#xb2;" horiz-adv-x="454" 
d="M47 346l186 185q39 37 56.5 69.5t17.5 69.5q0 35 -21.5 54t-74.5 19h-148v67q52 7 87.5 10.5t78.5 3.5q91 0 129.5 -36.5t38.5 -106.5q0 -54 -21.5 -95.5t-75.5 -95.5l-135 -132h250v-78h-368v66z" />
    <glyph glyph-name="uni00B3" unicode="&#xb3;" horiz-adv-x="454" 
d="M40 289v67h170q49 0 74 15t25 52v27q0 33 -23 47.5t-59 16.5l-134 5v65l130 7q39 2 59 15.5t20 41.5v28q0 34 -23 50.5t-73 16.5h-151v68q82 14 184 13q72 0 111 -34t39 -96v-43q0 -42 -21.5 -66.5t-51.5 -32.5q33 -9 57.5 -36.5t24.5 -72.5v-33q0 -64 -42.5 -99
t-117.5 -35q-120 0 -198 13z" />
    <glyph glyph-name="acute" unicode="&#xb4;" horiz-adv-x="220" 
d="M117 769h84l-122 -138h-59z" />
    <glyph glyph-name="uni00B5" unicode="&#xb5;" 
 />
    <glyph glyph-name="paragraph" unicode="&#xb6;" horiz-adv-x="573" 
d="M266 322q-8 -6 -28 -10t-49 -3q-75 0 -115 42.5t-40 107.5v138q0 68 46 104t116 36h367v-71h-72v-666h-69v668h-87v-938h-69v592zM266 378v290h-66q-97 0 -97 -87v-112q0 -54 31 -72.5t66 -18.5h66z" />
    <glyph glyph-name="periodcentered" unicode="&#xb7;" horiz-adv-x="261" 
d="M90 324q-5 5 -5 12v60q0 18 17 18h57q18 0 18 -18v-60q0 -17 -18 -17h-57q-7 0 -12 5z" />
    <glyph glyph-name="cedilla" unicode="&#xb8;" horiz-adv-x="254" 
d="M187 -118q0 -36 -25.5 -55t-73.5 -19h-38v41l21 2q51 6 51 42q0 38 -60 42l52 80h46l-44 -68q71 -6 71 -65z" />
    <glyph glyph-name="uni00B9" unicode="&#xb9;" horiz-adv-x="454" 
d="M407 357v-77h-343v77h127v384l-119 -24v63l128 45h80v-468h127z" />
    <glyph glyph-name="ordmasculine" unicode="&#xba;" horiz-adv-x="430" 
d="M318.5 740q38.5 -17 57 -60.5t18.5 -123.5q0 -79 -18 -122t-56.5 -60.5t-104.5 -17.5q-65 0 -103.5 18t-57 61.5t-18.5 120.5q0 81 18.5 124t56.5 60t104 17q65 0 103.5 -17zM267 430.5q19 9.5 29 38.5t10 88t-10 88t-29 38t-52 9q-34 0 -53 -9t-28.5 -38t-9.5 -88
t9.5 -88t28.5 -38.5t53 -9.5q33 0 52 9.5zM44 311h342v-50h-342v50z" />
    <glyph glyph-name="guillemotright" unicode="&#xbb;" horiz-adv-x="614" 
d="M48 117l163 161l-166 163l54 52l217 -215l-218 -214zM298 117l163 161l-166 163l54 52l217 -215l-218 -214z" />
    <glyph glyph-name="onequarter" unicode="&#xbc;" horiz-adv-x="1275" 
d="M788 770h72l-374 -770h-72zM1083 125h-246l-13 57l184 358h88l-174 -342h161v108l21 72h63v-180h65v-59l-65 -14v-124h-84v124zM413 357v-77h-343v77h127v384l-119 -24v63l128 45h80v-468h127z" />
    <glyph glyph-name="onehalf" unicode="&#xbd;" horiz-adv-x="1275" 
d="M788 770h72l-374 -770h-72zM842 66l186 185q39 37 56.5 69.5t17.5 69.5q0 35 -21.5 54t-74.5 19h-148v67q52 7 87.5 10.5t78.5 3.5q91 0 129.5 -36.5t38.5 -106.5q0 -54 -21.5 -95.5t-75.5 -95.5l-135 -132h250v-78h-368v66zM413 357v-77h-343v77h127v384l-119 -24v63
l128 45h80v-468h127z" />
    <glyph glyph-name="threequarters" unicode="&#xbe;" horiz-adv-x="1275" 
d="M788 770h72l-374 -770h-72zM1083 125h-246l-13 57l184 358h88l-174 -342h161v108l21 72h63v-180h65v-59l-65 -14v-124h-84v124zM50 289v67h170q49 0 74 15t25 52v27q0 33 -23 47.5t-59 16.5l-134 5v65l130 7q39 2 59 15.5t20 41.5v28q0 34 -23 50.5t-73 16.5h-151v68
q82 14 184 13q72 0 111 -34t39 -96v-43q0 -42 -21.5 -66.5t-51.5 -32.5q33 -9 57.5 -36.5t24.5 -72.5v-33q0 -64 -42.5 -99t-117.5 -35q-120 0 -198 13z" />
    <glyph glyph-name="questiondown" unicode="&#xbf;" horiz-adv-x="530" 
d="M369.5 531.5q4.5 -4.5 4.5 -12.5v-87q0 -18 -17 -18h-57q-18 0 -18 18v87q0 17 18 17h57q8 0 12.5 -4.5zM367 165h-56q-74 0 -106.5 -23t-32.5 -81v-51q0 -66 31 -95t98 -29q47 0 90.5 9t94.5 28v-73q-93 -54 -215 -54q-103 0 -151 52.5t-48 146.5v68q0 91 52.5 135.5
t165.5 44.5v92h77v-170z" />
    <glyph glyph-name="Agrave" unicode="&#xc0;" horiz-adv-x="678" 
d="M275 737h128l246 -737h-105l-65 193h-282l-64 -193h-104zM454 284l-116 366l-117 -366h233zM196 929h83l98 -138h-59z" />
    <glyph glyph-name="Aacute" unicode="&#xc1;" horiz-adv-x="678" 
d="M275 737h128l246 -737h-105l-65 193h-282l-64 -193h-104zM454 284l-116 366l-117 -366h233zM410 929h84l-122 -138h-59z" />
    <glyph glyph-name="Acircumflex" unicode="&#xc2;" horiz-adv-x="678" 
d="M275 737h128l246 -737h-105l-65 193h-282l-64 -193h-104zM454 284l-116 366l-117 -366h233zM306 928h70l107 -137h-60l-84 91l-91 -91h-60z" />
    <glyph glyph-name="Atilde" unicode="&#xc3;" horiz-adv-x="678" 
d="M275 737h128l246 -737h-105l-65 193h-282l-64 -193h-104zM454 284l-116 366l-117 -366h233zM191 887.5q28 27.5 68 27.5q23 0 43 -8t45 -23q22 -13 36 -19t29 -6q25 0 39.5 15.5t15.5 44.5h51q-1 -56 -27 -86.5t-72 -30.5q-22 0 -41.5 8t-44.5 23q-21 13 -36.5 19.5
t-30.5 6.5q-23 0 -38 -15t-16 -43h-51q2 59 30 86.5z" />
    <glyph glyph-name="Adieresis" unicode="&#xc4;" horiz-adv-x="678" 
d="M275 737h128l246 -737h-105l-65 193h-282l-64 -193h-104zM454 284l-116 366l-117 -366h233zM180.5 813q-4.5 5 -4.5 12v84q0 18 17 18h47q17 0 17 -18v-84q0 -8 -4.5 -12.5t-12.5 -4.5h-47q-8 0 -12.5 5zM409 813q-5 5 -5 12v84q0 18 18 18h46q17 0 17 -18v-84
q0 -8 -4.5 -12.5t-12.5 -4.5h-46q-8 0 -13 5z" />
    <glyph glyph-name="Aring" unicode="&#xc5;" horiz-adv-x="678" 
d="M275 737h128l246 -737h-105l-65 193h-282l-64 -193h-104zM454 284l-116 366l-117 -366h233zM251.5 790q-28.5 25 -28.5 84t28.5 84.5t87.5 25.5q58 0 85.5 -25t27.5 -85t-27.5 -84.5t-85.5 -24.5q-59 0 -87.5 25zM389 820q15 15 15 54t-15 54.5t-50 15.5q-36 0 -52 -15.5
t-16 -54.5t16 -54t52 -15q35 0 50 15z" />
    <glyph glyph-name="AE" unicode="&#xc6;" horiz-adv-x="969" 
d="M520 23.5q-39 27.5 -43 93.5v75h-231l-118 -192h-99l339 585q44 82 101 117t149 35q117 0 297 -11v-82h-278q-38 0 -53.5 -15t-15.5 -48v-169l303 -6v-78l-303 -7v-151q0 -45 22.5 -62.5t67.5 -17.5h257v-82q-172 -12 -280 -12q-76 0 -115 27.5zM477 278v321l-186 -321
h186z" />
    <glyph glyph-name="Ccedilla" unicode="&#xc7;" horiz-adv-x="582" 
d="M229.5 630.5q-38.5 -22.5 -56.5 -83t-18 -177.5q0 -120 17 -180.5t55 -83t111 -22.5q121 0 201 12v-77q-80 -20 -178 -24l-31 -48q71 -6 71 -65q0 -36 -25.5 -55t-73.5 -19h-38v41l21 2q51 6 51 42q0 38 -60 42l38 59q-94 1 -148.5 30.5t-82.5 111t-28 235.5
q0 147 29 228t86 112.5t151 31.5q52 0 112 -8.5t106 -20.5v-76q-32 5 -88 10t-112 5q-71 0 -109.5 -22.5z" />
    <glyph glyph-name="Egrave" unicode="&#xc8;" 
d="M119 26q-46 30 -46 119v438q0 81 44 117.5t106 36.5q119 0 269 -8l45 -2v-83h-284q-79 0 -79 -79v-153l318 -6v-78l-318 -7v-151q0 -47 22 -63.5t59 -16.5h282v-83q-172 -11 -306 -11q-66 0 -112 30zM170 929h83l98 -138h-59z" />
    <glyph glyph-name="Eacute" unicode="&#xc9;" 
d="M119 26q-46 30 -46 119v438q0 81 44 117.5t106 36.5q119 0 269 -8l45 -2v-83h-284q-79 0 -79 -79v-153l318 -6v-78l-318 -7v-151q0 -47 22 -63.5t59 -16.5h282v-83q-172 -11 -306 -11q-66 0 -112 30zM384 929h84l-122 -138h-59z" />
    <glyph glyph-name="Ecircumflex" unicode="&#xca;" 
d="M119 26q-46 30 -46 119v438q0 81 44 117.5t106 36.5q119 0 269 -8l45 -2v-83h-284q-79 0 -79 -79v-153l318 -6v-78l-318 -7v-151q0 -47 22 -63.5t59 -16.5h282v-83q-172 -11 -306 -11q-66 0 -112 30zM280 928h70l107 -137h-60l-84 91l-91 -91h-60z" />
    <glyph glyph-name="Edieresis" unicode="&#xcb;" 
d="M119 26q-46 30 -46 119v438q0 81 44 117.5t106 36.5q119 0 269 -8l45 -2v-83h-284q-79 0 -79 -79v-153l318 -6v-78l-318 -7v-151q0 -47 22 -63.5t59 -16.5h282v-83q-172 -11 -306 -11q-66 0 -112 30zM154.5 813q-4.5 5 -4.5 12v84q0 18 17 18h47q17 0 17 -18v-84
q0 -8 -4.5 -12.5t-12.5 -4.5h-47q-8 0 -12.5 5zM383 813q-5 5 -5 12v84q0 18 18 18h46q17 0 17 -18v-84q0 -8 -4.5 -12.5t-12.5 -4.5h-46q-8 0 -13 5z" />
    <glyph glyph-name="Igrave" unicode="&#xcc;" horiz-adv-x="247" 
d="M73 737h101v-737h-101v737zM-19 929h83l98 -138h-59z" />
    <glyph glyph-name="Iacute" unicode="&#xcd;" horiz-adv-x="247" 
d="M73 737h101v-737h-101v737zM195 929h84l-122 -138h-59z" />
    <glyph glyph-name="Icircumflex" unicode="&#xce;" horiz-adv-x="247" 
d="M73 737h101v-737h-101v737zM91 928h70l107 -137h-60l-84 91l-91 -91h-60z" />
    <glyph glyph-name="Idieresis" unicode="&#xcf;" horiz-adv-x="247" 
d="M73 737h101v-737h-101v737zM-34.5 813q-4.5 5 -4.5 12v84q0 18 17 18h47q17 0 17 -18v-84q0 -8 -4.5 -12.5t-12.5 -4.5h-47q-8 0 -12.5 5zM194 813q-5 5 -5 12v84q0 18 18 18h46q17 0 17 -18v-84q0 -8 -4.5 -12.5t-12.5 -4.5h-46q-8 0 -13 5z" />
    <glyph glyph-name="Eth" unicode="&#xd0;" horiz-adv-x="673" 
d="M561 644q57 -93 57 -276q0 -179 -62.5 -273.5t-184.5 -94.5h-298v339h-59v67h59v331h298q133 0 190 -93zM517 368q0 105 -16.5 166t-50 87t-88.5 26h-188v-241h153v-67h-153v-249h188q155 0 155 278z" />
    <glyph glyph-name="Ntilde" unicode="&#xd1;" horiz-adv-x="689" 
d="M84 737h82l361 -565v565h100v-737h-81l-361 565v-565h-101v737zM194 887.5q28 27.5 68 27.5q23 0 43 -8t45 -23q22 -13 36 -19t29 -6q25 0 39.5 15.5t15.5 44.5h51q-1 -56 -27 -86.5t-72 -30.5q-22 0 -41.5 8t-44.5 23q-21 13 -36.5 19.5t-30.5 6.5q-23 0 -38 -15
t-16 -43h-51q2 59 30 86.5z" />
    <glyph glyph-name="Ograve" unicode="&#xd2;" horiz-adv-x="690" 
d="M179 22q-61 28 -92.5 108t-31.5 236t32 237.5t93 110.5t165 29q106 0 167 -29t92.5 -110.5t31.5 -237.5t-31.5 -236t-92.5 -108t-167 -28q-105 0 -166 28zM459 105q40 21 58 81t18 180q0 125 -18 186t-57.5 81t-114.5 20q-72 0 -111.5 -20.5t-59 -81.5t-19.5 -185
q0 -121 17.5 -180.5t57 -80.5t115.5 -21q74 0 114 21zM203 929h83l98 -138h-59z" />
    <glyph glyph-name="Oacute" unicode="&#xd3;" horiz-adv-x="690" 
d="M179 22q-61 28 -92.5 108t-31.5 236t32 237.5t93 110.5t165 29q106 0 167 -29t92.5 -110.5t31.5 -237.5t-31.5 -236t-92.5 -108t-167 -28q-105 0 -166 28zM459 105q40 21 58 81t18 180q0 125 -18 186t-57.5 81t-114.5 20q-72 0 -111.5 -20.5t-59 -81.5t-19.5 -185
q0 -121 17.5 -180.5t57 -80.5t115.5 -21q74 0 114 21zM417 929h84l-122 -138h-59z" />
    <glyph glyph-name="Ocircumflex" unicode="&#xd4;" horiz-adv-x="690" 
d="M179 22q-61 28 -92.5 108t-31.5 236t32 237.5t93 110.5t165 29q106 0 167 -29t92.5 -110.5t31.5 -237.5t-31.5 -236t-92.5 -108t-167 -28q-105 0 -166 28zM459 105q40 21 58 81t18 180q0 125 -18 186t-57.5 81t-114.5 20q-72 0 -111.5 -20.5t-59 -81.5t-19.5 -185
q0 -121 17.5 -180.5t57 -80.5t115.5 -21q74 0 114 21zM313 928h70l107 -137h-60l-84 91l-91 -91h-60z" />
    <glyph glyph-name="Otilde" unicode="&#xd5;" horiz-adv-x="690" 
d="M179 22q-61 28 -92.5 108t-31.5 236t32 237.5t93 110.5t165 29q106 0 167 -29t92.5 -110.5t31.5 -237.5t-31.5 -236t-92.5 -108t-167 -28q-105 0 -166 28zM459 105q40 21 58 81t18 180q0 125 -18 186t-57.5 81t-114.5 20q-72 0 -111.5 -20.5t-59 -81.5t-19.5 -185
q0 -121 17.5 -180.5t57 -80.5t115.5 -21q74 0 114 21zM199 887.5q28 27.5 68 27.5q23 0 43 -8t45 -23q22 -13 36 -19t29 -6q25 0 39.5 15.5t15.5 44.5h51q-1 -56 -27 -86.5t-72 -30.5q-22 0 -41.5 8t-44.5 23q-21 13 -36.5 19.5t-30.5 6.5q-23 0 -38 -15t-16 -43h-51
q2 59 30 86.5z" />
    <glyph glyph-name="Odieresis" unicode="&#xd6;" horiz-adv-x="690" 
d="M179 22q-61 28 -92.5 108t-31.5 236t32 237.5t93 110.5t165 29q106 0 167 -29t92.5 -110.5t31.5 -237.5t-31.5 -236t-92.5 -108t-167 -28q-105 0 -166 28zM459 105q40 21 58 81t18 180q0 125 -18 186t-57.5 81t-114.5 20q-72 0 -111.5 -20.5t-59 -81.5t-19.5 -185
q0 -121 17.5 -180.5t57 -80.5t115.5 -21q74 0 114 21zM187.5 813q-4.5 5 -4.5 12v84q0 18 17 18h47q17 0 17 -18v-84q0 -8 -4.5 -12.5t-12.5 -4.5h-47q-8 0 -12.5 5zM416 813q-5 5 -5 12v84q0 18 18 18h46q17 0 17 -18v-84q0 -8 -4.5 -12.5t-12.5 -4.5h-46q-8 0 -13 5z" />
    <glyph glyph-name="multiply" unicode="&#xd7;" horiz-adv-x="609" 
d="M304 415l-59 -59l-129 129l59 59zM363 356l-59 59l129 129l59 -59zM245 356l59 -59l-129 -129l-59 59zM363 356l129 -129l-59 -59l-129 129z" />
    <glyph glyph-name="Oslash" unicode="&#xd8;" horiz-adv-x="690" 
d="M620.5 547q15.5 -72 15.5 -181q0 -156 -31.5 -236t-92.5 -108t-167 -28q-63 0 -108 8.5t-78 30.5l-22 -33h-70l49 74q-31 42 -46 112.5t-15 179.5q0 156 32 237.5t93 110.5t165 29q63 0 108 -9t78 -31l23 34h70l-50 -75q31 -43 46.5 -115zM178 168l299 452
q-21 19 -52.5 26t-79.5 7q-72 0 -111.5 -20.5t-59 -81.5t-19.5 -185q0 -136 23 -198zM459 105q40 21 58 81t18 180q0 139 -23 201l-298 -451q21 -18 52.5 -25t78.5 -7q74 0 114 21z" />
    <glyph glyph-name="Ugrave" unicode="&#xd9;" horiz-adv-x="679" 
d="M133.5 46.5q-70.5 52.5 -70.5 184.5v506h101v-505q0 -81 44 -114t131 -33q88 0 132 33t44 114v505h101v-506q0 -132 -71 -184.5t-206 -52.5t-205.5 52.5zM192 929h83l98 -138h-59z" />
    <glyph glyph-name="Uacute" unicode="&#xda;" horiz-adv-x="679" 
d="M133.5 46.5q-70.5 52.5 -70.5 184.5v506h101v-505q0 -81 44 -114t131 -33q88 0 132 33t44 114v505h101v-506q0 -132 -71 -184.5t-206 -52.5t-205.5 52.5zM406 929h84l-122 -138h-59z" />
    <glyph glyph-name="Ucircumflex" unicode="&#xdb;" horiz-adv-x="679" 
d="M133.5 46.5q-70.5 52.5 -70.5 184.5v506h101v-505q0 -81 44 -114t131 -33q88 0 132 33t44 114v505h101v-506q0 -132 -71 -184.5t-206 -52.5t-205.5 52.5zM302 928h70l107 -137h-60l-84 91l-91 -91h-60z" />
    <glyph glyph-name="Udieresis" unicode="&#xdc;" horiz-adv-x="679" 
d="M133.5 46.5q-70.5 52.5 -70.5 184.5v506h101v-505q0 -81 44 -114t131 -33q88 0 132 33t44 114v505h101v-506q0 -132 -71 -184.5t-206 -52.5t-205.5 52.5zM176.5 813q-4.5 5 -4.5 12v84q0 18 17 18h47q17 0 17 -18v-84q0 -8 -4.5 -12.5t-12.5 -4.5h-47q-8 0 -12.5 5z
M405 813q-5 5 -5 12v84q0 18 18 18h46q17 0 17 -18v-84q0 -8 -4.5 -12.5t-12.5 -4.5h-46q-8 0 -13 5z" />
    <glyph glyph-name="Yacute" unicode="&#xdd;" horiz-adv-x="621" 
d="M260 238l-230 499h105l177 -397l178 397h101l-230 -499v-238h-101v238zM384 929h84l-122 -138h-59z" />
    <glyph glyph-name="Thorn" unicode="&#xde;" horiz-adv-x="568" 
d="M73 737h101v-130h157q85 0 141.5 -47t56.5 -179q0 -134 -58 -183t-141 -49q-23 0 -73.5 4.5t-82.5 8.5v-162h-101v737zM316 240q112 0 112 141q0 135 -106 135h-148v-276h142z" />
    <glyph glyph-name="germandbls" unicode="&#xdf;" 
d="M307 -2.5q-44 4.5 -70 10.5v67q68 -4 135 -4q55 0 78 22.5t23 49.5v20q0 25 -19 38t-59 29q-35 14 -56 25.5t-36 32.5t-15 53q0 37 18 65.5t54 65.5q32 33 48.5 58t16.5 56q0 98 -128 98q-137 0 -137 -149v-535h-100v544q0 99 59.5 161t177.5 62q115 0 169 -48t54 -127
q0 -46 -21 -78t-60 -70q-29 -29 -42 -47t-13 -39q0 -24 18.5 -37.5t56.5 -28.5q36 -15 57.5 -28t37 -36t15.5 -58v-29q0 -75 -51 -111.5t-122 -36.5q-45 0 -89 4.5z" />
    <glyph glyph-name="agrave" unicode="&#xe0;" horiz-adv-x="546" 
d="M79 30q-38 36 -38 98v42q0 64 43.5 102.5t127.5 38.5h167v56q0 33 -11 53.5t-39.5 31.5t-81.5 11h-164v59q88 20 198 21q102 0 150.5 -39.5t48.5 -129.5v-374h-79l-17 60q-9 -8 -42.5 -24t-78 -29t-86.5 -13q-60 0 -98 36zM283 75.5q34 8.5 63.5 19t32.5 12.5v154
l-140 -6q-97 -6 -97 -86v-24q0 -41 24 -59.5t59 -18.5q24 0 58 8.5zM139 769h83l98 -138h-59z" />
    <glyph glyph-name="aacute" unicode="&#xe1;" horiz-adv-x="546" 
d="M79 30q-38 36 -38 98v42q0 64 43.5 102.5t127.5 38.5h167v56q0 33 -11 53.5t-39.5 31.5t-81.5 11h-164v59q88 20 198 21q102 0 150.5 -39.5t48.5 -129.5v-374h-79l-17 60q-9 -8 -42.5 -24t-78 -29t-86.5 -13q-60 0 -98 36zM283 75.5q34 8.5 63.5 19t32.5 12.5v154
l-140 -6q-97 -6 -97 -86v-24q0 -41 24 -59.5t59 -18.5q24 0 58 8.5zM331 769h84l-122 -138h-59z" />
    <glyph glyph-name="acircumflex" unicode="&#xe2;" horiz-adv-x="546" 
d="M79 30q-38 36 -38 98v42q0 64 43.5 102.5t127.5 38.5h167v56q0 33 -11 53.5t-39.5 31.5t-81.5 11h-164v59q88 20 198 21q102 0 150.5 -39.5t48.5 -129.5v-374h-79l-17 60q-9 -8 -42.5 -24t-78 -29t-86.5 -13q-60 0 -98 36zM283 75.5q34 8.5 63.5 19t32.5 12.5v154
l-140 -6q-97 -6 -97 -86v-24q0 -41 24 -59.5t59 -18.5q24 0 58 8.5zM238 768h70l107 -137h-60l-84 91l-91 -91h-60z" />
    <glyph glyph-name="atilde" unicode="&#xe3;" horiz-adv-x="546" 
d="M79 30q-38 36 -38 98v42q0 64 43.5 102.5t127.5 38.5h167v56q0 33 -11 53.5t-39.5 31.5t-81.5 11h-164v59q88 20 198 21q102 0 150.5 -39.5t48.5 -129.5v-374h-79l-17 60q-9 -8 -42.5 -24t-78 -29t-86.5 -13q-60 0 -98 36zM283 75.5q34 8.5 63.5 19t32.5 12.5v154
l-140 -6q-97 -6 -97 -86v-24q0 -41 24 -59.5t59 -18.5q24 0 58 8.5zM131 727.5q28 27.5 68 27.5q23 0 43 -8t45 -23q22 -13 36 -19t29 -6q25 0 39.5 15.5t15.5 44.5h51q-1 -56 -27 -86.5t-72 -30.5q-22 0 -41.5 8t-44.5 23q-21 13 -36.5 19.5t-30.5 6.5q-23 0 -38 -15
t-16 -43h-51q2 59 30 86.5z" />
    <glyph glyph-name="adieresis" unicode="&#xe4;" horiz-adv-x="546" 
d="M79 30q-38 36 -38 98v42q0 64 43.5 102.5t127.5 38.5h167v56q0 33 -11 53.5t-39.5 31.5t-81.5 11h-164v59q88 20 198 21q102 0 150.5 -39.5t48.5 -129.5v-374h-79l-17 60q-9 -8 -42.5 -24t-78 -29t-86.5 -13q-60 0 -98 36zM283 75.5q34 8.5 63.5 19t32.5 12.5v154
l-140 -6q-97 -6 -97 -86v-24q0 -41 24 -59.5t59 -18.5q24 0 58 8.5zM134 653q-5 5 -5 12v84q0 18 18 18h46q17 0 17 -18v-84q0 -17 -17 -17h-46q-8 0 -13 5zM329.5 653q-4.5 5 -4.5 12v84q0 18 17 18h47q17 0 17 -18v-84q0 -8 -4.5 -12.5t-12.5 -4.5h-47q-8 0 -12.5 5z" />
    <glyph glyph-name="aring" unicode="&#xe5;" horiz-adv-x="546" 
d="M79 30q-38 36 -38 98v42q0 64 43.5 102.5t127.5 38.5h167v56q0 33 -11 53.5t-39.5 31.5t-81.5 11h-164v59q88 20 198 21q102 0 150.5 -39.5t48.5 -129.5v-374h-79l-17 60q-9 -8 -42.5 -24t-78 -29t-86.5 -13q-60 0 -98 36zM283 75.5q34 8.5 63.5 19t32.5 12.5v154
l-140 -6q-97 -6 -97 -86v-24q0 -41 24 -59.5t59 -18.5q24 0 58 8.5zM183.5 616q-28.5 25 -28.5 84t28.5 84.5t87.5 25.5q58 0 85.5 -25t27.5 -85t-27.5 -84.5t-85.5 -24.5q-59 0 -87.5 25zM321 646q15 15 15 54t-15 54.5t-50 15.5q-36 0 -52 -15.5t-16 -54.5t16 -54t52 -15
q35 0 50 15z" />
    <glyph glyph-name="ae" unicode="&#xe6;" horiz-adv-x="872" 
d="M78 31.5q-35 37.5 -35 99.5v37q0 63 42.5 100.5t125.5 37.5h170v63q0 45 -28.5 69.5t-94.5 24.5h-173v59q42 10 83 15t100 6q59 0 104 -21.5t64 -61.5q21 43 64.5 62.5t108.5 19.5q73 0 118 -16.5t67 -56t22 -109.5q0 -67 -41 -94t-124 -27h-172q0 -98 42 -133t123 -35
h157v-60q-84 -17 -202 -17q-70 0 -116 29t-70 73q-41 -43 -101.5 -72.5t-129.5 -29.5t-104 37.5zM649 304q38 0 57 12.5t19 45.5q0 57 -28 80t-95 23q-49 0 -75 -13.5t-36.5 -47.5t-11.5 -100h170zM313.5 87q43.5 20 78.5 56q-12 50 -12 111l-151 -6q-44 -1 -64.5 -23
t-20.5 -56v-22q0 -80 81 -80q45 0 88.5 20z" />
    <glyph glyph-name="ccedilla" unicode="&#xe7;" horiz-adv-x="490" 
d="M296 -6l-31 -47q71 -6 71 -65q0 -36 -25.5 -55t-73.5 -19h-38v41l21 2q51 6 51 42q0 38 -60 42l39 59q-95 5 -146.5 66t-51.5 206q0 107 26 167t73.5 84t120.5 24q101 0 179 -17v-59h-151q-53 0 -84 -16.5t-47 -60t-16 -123.5q0 -78 16.5 -120t48 -58t83.5 -16h158v-57
q-71 -17 -163 -20z" />
    <glyph glyph-name="egrave" unicode="&#xe8;" horiz-adv-x="540" 
d="M144.5 19q-49.5 25 -71 84t-21.5 165q0 108 21.5 167t70.5 83t136 24q76 0 121 -16t66 -55t21 -108q0 -71 -41 -102.5t-118 -31.5h-177q1 -61 13.5 -94.5t45.5 -48.5t95 -15h167v-60q-55 -8 -97 -12.5t-95 -4.5q-87 0 -136.5 25zM320 292q41 0 59.5 15.5t18.5 54.5
q0 60 -26.5 83t-91.5 23q-51 0 -78.5 -15t-39 -52.5t-11.5 -108.5h169zM139 769h83l98 -138h-59z" />
    <glyph glyph-name="eacute" unicode="&#xe9;" horiz-adv-x="540" 
d="M144.5 19q-49.5 25 -71 84t-21.5 165q0 108 21.5 167t70.5 83t136 24q76 0 121 -16t66 -55t21 -108q0 -71 -41 -102.5t-118 -31.5h-177q1 -61 13.5 -94.5t45.5 -48.5t95 -15h167v-60q-55 -8 -97 -12.5t-95 -4.5q-87 0 -136.5 25zM320 292q41 0 59.5 15.5t18.5 54.5
q0 60 -26.5 83t-91.5 23q-51 0 -78.5 -15t-39 -52.5t-11.5 -108.5h169zM331 769h84l-122 -138h-59z" />
    <glyph glyph-name="ecircumflex" unicode="&#xea;" horiz-adv-x="540" 
d="M144.5 19q-49.5 25 -71 84t-21.5 165q0 108 21.5 167t70.5 83t136 24q76 0 121 -16t66 -55t21 -108q0 -71 -41 -102.5t-118 -31.5h-177q1 -61 13.5 -94.5t45.5 -48.5t95 -15h167v-60q-55 -8 -97 -12.5t-95 -4.5q-87 0 -136.5 25zM320 292q41 0 59.5 15.5t18.5 54.5
q0 60 -26.5 83t-91.5 23q-51 0 -78.5 -15t-39 -52.5t-11.5 -108.5h169zM238 768h70l107 -137h-60l-84 91l-91 -91h-60z" />
    <glyph glyph-name="edieresis" unicode="&#xeb;" horiz-adv-x="540" 
d="M144.5 19q-49.5 25 -71 84t-21.5 165q0 108 21.5 167t70.5 83t136 24q76 0 121 -16t66 -55t21 -108q0 -71 -41 -102.5t-118 -31.5h-177q1 -61 13.5 -94.5t45.5 -48.5t95 -15h167v-60q-55 -8 -97 -12.5t-95 -4.5q-87 0 -136.5 25zM320 292q41 0 59.5 15.5t18.5 54.5
q0 60 -26.5 83t-91.5 23q-51 0 -78.5 -15t-39 -52.5t-11.5 -108.5h169zM134 653q-5 5 -5 12v84q0 18 18 18h46q17 0 17 -18v-84q0 -17 -17 -17h-46q-8 0 -13 5zM329.5 653q-4.5 5 -4.5 12v84q0 18 17 18h47q17 0 17 -18v-84q0 -8 -4.5 -12.5t-12.5 -4.5h-47q-8 0 -12.5 5z
" />
    <glyph glyph-name="igrave" unicode="&#xec;" horiz-adv-x="238" 
d="M70 535h100v-535h-100v535zM-11 769h83l98 -138h-59z" />
    <glyph glyph-name="iacute" unicode="&#xed;" horiz-adv-x="238" 
d="M70 535h100v-535h-100v535zM181 769h84l-122 -138h-59z" />
    <glyph glyph-name="icircumflex" unicode="&#xee;" horiz-adv-x="238" 
d="M70 535h100v-535h-100v535zM88 768h70l107 -137h-60l-84 91l-91 -91h-60z" />
    <glyph glyph-name="idieresis" unicode="&#xef;" horiz-adv-x="238" 
d="M70 535h100v-535h-100v535zM-16 653q-5 5 -5 12v84q0 18 18 18h46q17 0 17 -18v-84q0 -17 -17 -17h-46q-8 0 -13 5zM179.5 653q-4.5 5 -4.5 12v84q0 18 17 18h47q17 0 17 -18v-84q0 -8 -4.5 -12.5t-12.5 -4.5h-47q-8 0 -12.5 5z" />
    <glyph glyph-name="eth" unicode="&#xf0;" horiz-adv-x="576" 
d="M497 512.5q27 -97.5 27 -244.5q0 -108 -24.5 -167.5t-75 -83t-136.5 -23.5q-85 0 -136 23.5t-75.5 82.5t-24.5 164q0 107 26 165.5t74 80.5t123 22q95 0 139 -40q-23 94 -79 144l-160 -62l-13 35l137 54q-60 35 -157 41v62q156 -8 240 -71l125 49l14 -36l-107 -41
q56 -57 83 -154.5zM366.5 89q28.5 13 43 53t14.5 122q0 81 -14.5 121.5t-43 53.5t-78.5 13t-78 -13t-42.5 -53.5t-14.5 -121.5q0 -82 14.5 -122t42 -53t78.5 -13q50 0 78.5 13z" />
    <glyph glyph-name="ntilde" unicode="&#xf1;" 
d="M70 535h80l20 -58q39 29 88.5 48t99.5 19q85 0 125 -51.5t40 -132.5v-360h-100v348q0 48 -27 76.5t-74 28.5q-42 0 -76.5 -12t-75.5 -36v-405h-100v535zM156 727.5q28 27.5 68 27.5q23 0 43 -8t45 -23q22 -13 36 -19t29 -6q25 0 39.5 15.5t15.5 44.5h51q-1 -56 -27 -86.5
t-72 -30.5q-22 0 -41.5 8t-44.5 23q-21 13 -36.5 19.5t-30.5 6.5q-23 0 -38 -15t-16 -43h-51q2 59 30 86.5z" />
    <glyph glyph-name="ograve" unicode="&#xf2;" horiz-adv-x="576" 
d="M152 18q-51 24 -75.5 83.5t-24.5 166.5q0 110 25 169.5t75.5 82t135.5 22.5t135.5 -23t75.5 -82.5t25 -168.5q0 -108 -24.5 -167.5t-75 -83t-136.5 -23.5q-85 0 -136 24zM366.5 89.5q28.5 13.5 43 55t14.5 124.5t-14.5 124.5t-43 54.5t-78.5 13q-51 0 -78.5 -13
t-42 -54.5t-14.5 -124.5q0 -84 14.5 -125.5t42 -54.5t78.5 -13q50 0 78.5 13.5zM157 769h83l98 -138h-59z" />
    <glyph glyph-name="oacute" unicode="&#xf3;" horiz-adv-x="576" 
d="M152 18q-51 24 -75.5 83.5t-24.5 166.5q0 110 25 169.5t75.5 82t135.5 22.5t135.5 -23t75.5 -82.5t25 -168.5q0 -108 -24.5 -167.5t-75 -83t-136.5 -23.5q-85 0 -136 24zM366.5 89.5q28.5 13.5 43 55t14.5 124.5t-14.5 124.5t-43 54.5t-78.5 13q-51 0 -78.5 -13
t-42 -54.5t-14.5 -124.5q0 -84 14.5 -125.5t42 -54.5t78.5 -13q50 0 78.5 13.5zM349 769h84l-122 -138h-59z" />
    <glyph glyph-name="ocircumflex" unicode="&#xf4;" horiz-adv-x="576" 
d="M152 18q-51 24 -75.5 83.5t-24.5 166.5q0 110 25 169.5t75.5 82t135.5 22.5t135.5 -23t75.5 -82.5t25 -168.5q0 -108 -24.5 -167.5t-75 -83t-136.5 -23.5q-85 0 -136 24zM366.5 89.5q28.5 13.5 43 55t14.5 124.5t-14.5 124.5t-43 54.5t-78.5 13q-51 0 -78.5 -13
t-42 -54.5t-14.5 -124.5q0 -84 14.5 -125.5t42 -54.5t78.5 -13q50 0 78.5 13.5zM256 768h70l107 -137h-60l-84 91l-91 -91h-60z" />
    <glyph glyph-name="otilde" unicode="&#xf5;" horiz-adv-x="576" 
d="M152 18q-51 24 -75.5 83.5t-24.5 166.5q0 110 25 169.5t75.5 82t135.5 22.5t135.5 -23t75.5 -82.5t25 -168.5q0 -108 -24.5 -167.5t-75 -83t-136.5 -23.5q-85 0 -136 24zM366.5 89.5q28.5 13.5 43 55t14.5 124.5t-14.5 124.5t-43 54.5t-78.5 13q-51 0 -78.5 -13
t-42 -54.5t-14.5 -124.5q0 -84 14.5 -125.5t42 -54.5t78.5 -13q50 0 78.5 13.5zM149 727.5q28 27.5 68 27.5q23 0 43 -8t45 -23q22 -13 36 -19t29 -6q25 0 39.5 15.5t15.5 44.5h51q-1 -56 -27 -86.5t-72 -30.5q-22 0 -41.5 8t-44.5 23q-21 13 -36.5 19.5t-30.5 6.5
q-23 0 -38 -15t-16 -43h-51q2 59 30 86.5z" />
    <glyph glyph-name="odieresis" unicode="&#xf6;" horiz-adv-x="576" 
d="M152 18q-51 24 -75.5 83.5t-24.5 166.5q0 110 25 169.5t75.5 82t135.5 22.5t135.5 -23t75.5 -82.5t25 -168.5q0 -108 -24.5 -167.5t-75 -83t-136.5 -23.5q-85 0 -136 24zM366.5 89.5q28.5 13.5 43 55t14.5 124.5t-14.5 124.5t-43 54.5t-78.5 13q-51 0 -78.5 -13
t-42 -54.5t-14.5 -124.5q0 -84 14.5 -125.5t42 -54.5t78.5 -13q50 0 78.5 13.5zM152 653q-5 5 -5 12v84q0 18 18 18h46q17 0 17 -18v-84q0 -17 -17 -17h-46q-8 0 -13 5zM347.5 653q-4.5 5 -4.5 12v84q0 18 17 18h47q17 0 17 -18v-84q0 -8 -4.5 -12.5t-12.5 -4.5h-47
q-8 0 -12.5 5z" />
    <glyph glyph-name="divide" unicode="&#xf7;" horiz-adv-x="609" 
d="M258.5 510.5q-6.5 6.5 -6.5 16.5v59q0 12 6 18.5t18 6.5h57q25 0 25 -25v-59q0 -23 -25 -23h-57q-11 0 -17.5 6.5zM80 397h448v-82h-448v82zM258.5 108.5q-6.5 6.5 -6.5 16.5v58q0 12 6 18.5t18 6.5h57q25 0 25 -25v-58q0 -23 -25 -23h-57q-11 0 -17.5 6.5z" />
    <glyph glyph-name="oslash" unicode="&#xf8;" horiz-adv-x="576" 
d="M480 471q23 -32 33.5 -81t10.5 -122q0 -108 -24.5 -167.5t-75 -83t-136.5 -23.5q-55 0 -95.5 10t-68.5 32l-29 -36h-51l53 65q-23 31 -34 81t-11 122q0 110 25 169.5t75.5 82t135.5 22.5q57 0 97 -9.5t68 -32.5l28 35h51zM166 149l226 277q-16 20 -40.5 27.5t-63.5 7.5
q-51 0 -78.5 -13t-42 -54.5t-14.5 -124.5q0 -80 13 -120zM411 387l-226 -277q15 -20 39.5 -27t63.5 -7q50 0 78.5 13.5t43 55t14.5 124.5q0 78 -13 118z" />
    <glyph glyph-name="ugrave" unicode="&#xf9;" 
d="M109.5 35q-40.5 41 -40.5 123v377h100v-350q0 -57 26 -79.5t79 -22.5q74 0 148 47v405h100v-535h-80l-20 58q-100 -64 -195 -64q-77 0 -117.5 41zM157 769h83l98 -138h-59z" />
    <glyph glyph-name="uacute" unicode="&#xfa;" 
d="M109.5 35q-40.5 41 -40.5 123v377h100v-350q0 -57 26 -79.5t79 -22.5q74 0 148 47v405h100v-535h-80l-20 58q-100 -64 -195 -64q-77 0 -117.5 41zM349 769h84l-122 -138h-59z" />
    <glyph glyph-name="ucircumflex" unicode="&#xfb;" 
d="M109.5 35q-40.5 41 -40.5 123v377h100v-350q0 -57 26 -79.5t79 -22.5q74 0 148 47v405h100v-535h-80l-20 58q-100 -64 -195 -64q-77 0 -117.5 41zM256 768h70l107 -137h-60l-84 91l-91 -91h-60z" />
    <glyph glyph-name="udieresis" unicode="&#xfc;" 
d="M109.5 35q-40.5 41 -40.5 123v377h100v-350q0 -57 26 -79.5t79 -22.5q74 0 148 47v405h100v-535h-80l-20 58q-100 -64 -195 -64q-77 0 -117.5 41zM152 653q-5 5 -5 12v84q0 18 18 18h46q17 0 17 -18v-84q0 -17 -17 -17h-46q-8 0 -13 5zM347.5 653q-4.5 5 -4.5 12v84
q0 18 17 18h47q17 0 17 -18v-84q0 -8 -4.5 -12.5t-12.5 -4.5h-47q-8 0 -12.5 5z" />
    <glyph glyph-name="yacute" unicode="&#xfd;" horiz-adv-x="550" 
d="M286 0q-52 1 -91 32t-58 99l-120 404h105l108 -383q22 -68 75 -68l125 451h103l-184 -673l-48 -99h-80zM330 769h84l-122 -138h-59z" />
    <glyph glyph-name="thorn" unicode="&#xfe;" horiz-adv-x="580" 
d="M70 763h100v-282q33 24 78 42.5t89 18.5q95 0 143 -76t48 -198q0 -275 -191 -275q-41 0 -85.5 12.5t-81.5 33.5v-276h-100v1000zM428 264q0 101 -33.5 148.5t-86.5 47.5q-64 0 -138 -40v-305q31 -18 66.5 -28t70.5 -10q121 0 121 187z" />
    <glyph glyph-name="ydieresis" unicode="&#xff;" horiz-adv-x="550" 
d="M286 0q-52 1 -91 32t-58 99l-120 404h105l108 -383q22 -68 75 -68l125 451h103l-184 -673l-48 -99h-80zM133 653q-5 5 -5 12v84q0 18 18 18h46q17 0 17 -18v-84q0 -17 -17 -17h-46q-8 0 -13 5zM328.5 653q-4.5 5 -4.5 12v84q0 18 17 18h47q17 0 17 -18v-84
q0 -8 -4.5 -12.5t-12.5 -4.5h-47q-8 0 -12.5 5z" />
    <glyph glyph-name="Amacron" unicode="&#x100;" horiz-adv-x="678" 
d="M275 737h128l246 -737h-105l-65 193h-282l-64 -193h-104zM454 284l-116 366l-117 -366h233zM197 884h270v-60h-270v60z" />
    <glyph glyph-name="amacron" unicode="&#x101;" horiz-adv-x="546" 
d="M79 30q-38 36 -38 98v42q0 64 43.5 102.5t127.5 38.5h167v56q0 33 -11 53.5t-39.5 31.5t-81.5 11h-164v59q88 20 198 21q102 0 150.5 -39.5t48.5 -129.5v-374h-79l-17 60q-9 -8 -42.5 -24t-78 -29t-86.5 -13q-60 0 -98 36zM283 75.5q34 8.5 63.5 19t32.5 12.5v154
l-140 -6q-97 -6 -97 -86v-24q0 -41 24 -59.5t59 -18.5q24 0 58 8.5zM132 724h270v-60h-270v60z" />
    <glyph glyph-name="Abreve" unicode="&#x102;" horiz-adv-x="678" 
d="M275 737h128l246 -737h-105l-65 193h-282l-64 -193h-104zM454 284l-116 366l-117 -366h233zM234 822q-36 35 -36 110h47q0 -50 23.5 -74t60.5 -24q88 0 88 98h49q0 -76 -36.5 -110.5t-98.5 -34.5q-61 0 -97 35z" />
    <glyph glyph-name="abreve" unicode="&#x103;" horiz-adv-x="546" 
d="M79 30q-38 36 -38 98v42q0 64 43.5 102.5t127.5 38.5h167v56q0 33 -11 53.5t-39.5 31.5t-81.5 11h-164v59q88 20 198 21q102 0 150.5 -39.5t48.5 -129.5v-374h-79l-17 60q-9 -8 -42.5 -24t-78 -29t-86.5 -13q-60 0 -98 36zM283 75.5q34 8.5 63.5 19t32.5 12.5v154
l-140 -6q-97 -6 -97 -86v-24q0 -41 24 -59.5t59 -18.5q24 0 58 8.5zM166 662q-36 35 -36 110h47q0 -50 24 -74t60 -24q88 0 88 98h49q0 -76 -36.5 -110.5t-98.5 -34.5q-61 0 -97 35z" />
    <glyph glyph-name="Aogonek" unicode="&#x104;" horiz-adv-x="678" 
d="M275 737h128l246 -737h-105l-65 193h-282l-64 -193h-104zM454 284l-116 366l-117 -366h233zM499.5 -162.5q-27.5 25.5 -27.5 63.5q0 31 18 56.5t54 42.5h38q-59 -33 -59 -77q0 -28 20 -44t55 -16h8v-49q-16 -2 -28 -2q-51 0 -78.5 25.5z" />
    <glyph glyph-name="aogonek" unicode="&#x105;" horiz-adv-x="546" 
d="M503 -137v-49q-16 -2 -28 -2q-51 0 -78.5 25.5t-27.5 63.5q0 31 18 56.5t54 42.5h-40l-17 60q-9 -8 -42.5 -24t-78 -29t-86.5 -13q-60 0 -98 36t-38 98v42q0 64 43.5 102.5t127.5 38.5h167v56q0 33 -11 53.5t-39.5 31.5t-81.5 11h-164v59q88 20 198 21q102 0 150.5 -39.5
t48.5 -129.5v-374h-1q-59 -33 -59 -77q0 -28 20 -44t55 -16h8zM379 261l-140 -6q-97 -6 -97 -86v-24q0 -41 24 -59.5t59 -18.5q24 0 58 8.5t63.5 19t32.5 12.5v154z" />
    <glyph glyph-name="Cacute" unicode="&#x106;" horiz-adv-x="582" 
d="M166.5 23.5q-55.5 29.5 -83.5 111t-28 236.5q0 147 29 228t86 112.5t151 31.5q52 0 112 -8.5t106 -20.5v-76q-32 5 -88 10t-112 5q-71 0 -109.5 -22.5t-56.5 -83t-18 -177.5q0 -120 17 -180.5t55 -83t111 -22.5q121 0 201 12v-77q-100 -25 -222 -25q-95 0 -150.5 29.5z
M393 929h84l-122 -138h-59z" />
    <glyph glyph-name="cacute" unicode="&#x107;" horiz-adv-x="490" 
d="M108.5 54q-56.5 60 -56.5 212q0 107 26 167t73.5 84t120.5 24q101 0 179 -17v-59h-151q-53 0 -84 -16.5t-47 -60t-16 -123.5q0 -78 16.5 -120t48 -58t83.5 -16h158v-57q-38 -9 -89 -14.5t-101 -5.5q-104 0 -160.5 60zM331 769h84l-122 -138h-59z" />
    <glyph glyph-name="Ccircumflex" unicode="&#x108;" horiz-adv-x="582" 
d="M166.5 23.5q-55.5 29.5 -83.5 111t-28 236.5q0 147 29 228t86 112.5t151 31.5q52 0 112 -8.5t106 -20.5v-76q-32 5 -88 10t-112 5q-71 0 -109.5 -22.5t-56.5 -83t-18 -177.5q0 -120 17 -180.5t55 -83t111 -22.5q121 0 201 12v-77q-100 -25 -222 -25q-95 0 -150.5 29.5z
M289 928h70l107 -137h-60l-84 91l-91 -91h-60z" />
    <glyph glyph-name="ccircumflex" unicode="&#x109;" horiz-adv-x="490" 
d="M108.5 54q-56.5 60 -56.5 212q0 107 26 167t73.5 84t120.5 24q101 0 179 -17v-59h-151q-53 0 -84 -16.5t-47 -60t-16 -123.5q0 -78 16.5 -120t48 -58t83.5 -16h158v-57q-38 -9 -89 -14.5t-101 -5.5q-104 0 -160.5 60zM238 768h70l107 -137h-60l-84 91l-91 -91h-60z" />
    <glyph glyph-name="Cdotaccent" unicode="&#x10a;" horiz-adv-x="582" 
d="M166.5 23.5q-55.5 29.5 -83.5 111t-28 236.5q0 147 29 228t86 112.5t151 31.5q52 0 112 -8.5t106 -20.5v-76q-32 5 -88 10t-112 5q-71 0 -109.5 -22.5t-56.5 -83t-18 -177.5q0 -120 17 -180.5t55 -83t111 -22.5q121 0 201 12v-77q-100 -25 -222 -25q-95 0 -150.5 29.5z
M283.5 820q-4.5 5 -4.5 12v84q0 18 17 18h47q17 0 17 -18v-84q0 -8 -4.5 -12.5t-12.5 -4.5h-47q-8 0 -12.5 5z" />
    <glyph glyph-name="cdotaccent" unicode="&#x10b;" horiz-adv-x="490" 
d="M108.5 54q-56.5 60 -56.5 212q0 107 26 167t73.5 84t120.5 24q101 0 179 -17v-59h-151q-53 0 -84 -16.5t-47 -60t-16 -123.5q0 -78 16.5 -120t48 -58t83.5 -16h158v-57q-38 -9 -89 -14.5t-101 -5.5q-104 0 -160.5 60zM232.5 660q-4.5 5 -4.5 12v84q0 18 17 18h47
q17 0 17 -18v-84q0 -8 -4.5 -12.5t-12.5 -4.5h-47q-8 0 -12.5 5z" />
    <glyph glyph-name="Ccaron" unicode="&#x10c;" horiz-adv-x="582" 
d="M166.5 23.5q-55.5 29.5 -83.5 111t-28 236.5q0 147 29 228t86 112.5t151 31.5q52 0 112 -8.5t106 -20.5v-76q-32 5 -88 10t-112 5q-71 0 -109.5 -22.5t-56.5 -83t-18 -177.5q0 -120 17 -180.5t55 -83t111 -22.5q121 0 201 12v-77q-100 -25 -222 -25q-95 0 -150.5 29.5z
M177 928h60l84 -90l90 90h61l-118 -137h-70z" />
    <glyph glyph-name="ccaron" unicode="&#x10d;" horiz-adv-x="490" 
d="M108.5 54q-56.5 60 -56.5 212q0 107 26 167t73.5 84t120.5 24q101 0 179 -17v-59h-151q-53 0 -84 -16.5t-47 -60t-16 -123.5q0 -78 16.5 -120t48 -58t83.5 -16h158v-57q-38 -9 -89 -14.5t-101 -5.5q-104 0 -160.5 60zM126 768h60l84 -90l90 90h61l-118 -137h-70z" />
    <glyph glyph-name="Dcaron" unicode="&#x10e;" horiz-adv-x="673" 
d="M73 737h298q133 0 190 -93t57 -276q0 -179 -62.5 -273.5t-184.5 -94.5h-298v737zM362 90q155 0 155 278q0 105 -16.5 166t-50 87t-88.5 26h-188v-557h188zM177 928h60l84 -90l90 90h61l-118 -137h-70z" />
    <glyph glyph-name="dcaron" unicode="&#x10f;" horiz-adv-x="577" 
d="M99 58.5q-47 64.5 -47 204.5q0 101 19.5 161.5t63.5 89t119 28.5q69 0 156 -29v250h100v-763h-82l-18 53q-25 -22 -74.5 -40.5t-91.5 -18.5q-98 0 -145 64.5zM410 116v325q-6 2 -32 9.5t-49 11t-45 3.5q-49 0 -77 -17.5t-41 -60t-13 -119.5q0 -72 12 -113.5t39 -60
t72 -18.5q62 0 134 40zM573 722v61h92v-61l-7 -140h-78z" />
    <glyph glyph-name="Dcroat" unicode="&#x110;" horiz-adv-x="673" 
d="M561 644q57 -93 57 -276q0 -179 -62.5 -273.5t-184.5 -94.5h-298v339h-59v67h59v331h298q133 0 190 -93zM517 368q0 105 -16.5 166t-50 87t-88.5 26h-188v-241h153v-67h-153v-249h188q155 0 155 278z" />
    <glyph glyph-name="dcroat" unicode="&#x111;" horiz-adv-x="577" 
d="M576 625h-66v-625h-82l-18 53q-25 -22 -74.5 -40.5t-91.5 -18.5q-98 0 -145 64.5t-47 204.5q0 101 19.5 161.5t63.5 89t119 28.5q69 0 156 -29v112h-132v42h132v96h100v-96h66v-42zM410 441q-6 2 -32 9.5t-49 11t-45 3.5q-49 0 -77 -17.5t-41 -60t-13 -119.5
q0 -72 12 -113.5t39 -60t72 -18.5q62 0 134 40v325z" />
    <glyph glyph-name="Emacron" unicode="&#x112;" 
d="M119 26q-46 30 -46 119v438q0 81 44 117.5t106 36.5q119 0 269 -8l45 -2v-83h-284q-79 0 -79 -79v-153l318 -6v-78l-318 -7v-151q0 -47 22 -63.5t59 -16.5h282v-83q-172 -11 -306 -11q-66 0 -112 30zM171 884h270v-60h-270v60z" />
    <glyph glyph-name="emacron" unicode="&#x113;" horiz-adv-x="540" 
d="M144.5 19q-49.5 25 -71 84t-21.5 165q0 108 21.5 167t70.5 83t136 24q76 0 121 -16t66 -55t21 -108q0 -71 -41 -102.5t-118 -31.5h-177q1 -61 13.5 -94.5t45.5 -48.5t95 -15h167v-60q-55 -8 -97 -12.5t-95 -4.5q-87 0 -136.5 25zM320 292q41 0 59.5 15.5t18.5 54.5
q0 60 -26.5 83t-91.5 23q-51 0 -78.5 -15t-39 -52.5t-11.5 -108.5h169zM132 724h270v-60h-270v60z" />
    <glyph glyph-name="Ebreve" unicode="&#x114;" 
d="M119 26q-46 30 -46 119v438q0 81 44 117.5t106 36.5q119 0 269 -8l45 -2v-83h-284q-79 0 -79 -79v-153l318 -6v-78l-318 -7v-151q0 -47 22 -63.5t59 -16.5h282v-83q-172 -11 -306 -11q-66 0 -112 30zM208 822q-36 35 -36 110h47q0 -50 23.5 -74t60.5 -24q88 0 88 98h49
q0 -76 -36.5 -110.5t-98.5 -34.5q-61 0 -97 35z" />
    <glyph glyph-name="ebreve" unicode="&#x115;" horiz-adv-x="540" 
d="M144.5 19q-49.5 25 -71 84t-21.5 165q0 108 21.5 167t70.5 83t136 24q76 0 121 -16t66 -55t21 -108q0 -71 -41 -102.5t-118 -31.5h-177q1 -61 13.5 -94.5t45.5 -48.5t95 -15h167v-60q-55 -8 -97 -12.5t-95 -4.5q-87 0 -136.5 25zM320 292q41 0 59.5 15.5t18.5 54.5
q0 60 -26.5 83t-91.5 23q-51 0 -78.5 -15t-39 -52.5t-11.5 -108.5h169zM166 662q-36 35 -36 110h47q0 -50 24 -74t60 -24q88 0 88 98h49q0 -76 -36.5 -110.5t-98.5 -34.5q-61 0 -97 35z" />
    <glyph glyph-name="Edotaccent" unicode="&#x116;" 
d="M119 26q-46 30 -46 119v438q0 81 44 117.5t106 36.5q119 0 269 -8l45 -2v-83h-284q-79 0 -79 -79v-153l318 -6v-78l-318 -7v-151q0 -47 22 -63.5t59 -16.5h282v-83q-172 -11 -306 -11q-66 0 -112 30zM274.5 820q-4.5 5 -4.5 12v84q0 18 17 18h47q17 0 17 -18v-84
q0 -8 -4.5 -12.5t-12.5 -4.5h-47q-8 0 -12.5 5z" />
    <glyph glyph-name="edotaccent" unicode="&#x117;" horiz-adv-x="540" 
d="M144.5 19q-49.5 25 -71 84t-21.5 165q0 108 21.5 167t70.5 83t136 24q76 0 121 -16t66 -55t21 -108q0 -71 -41 -102.5t-118 -31.5h-177q1 -61 13.5 -94.5t45.5 -48.5t95 -15h167v-60q-55 -8 -97 -12.5t-95 -4.5q-87 0 -136.5 25zM320 292q41 0 59.5 15.5t18.5 54.5
q0 60 -26.5 83t-91.5 23q-51 0 -78.5 -15t-39 -52.5t-11.5 -108.5h169zM232.5 660q-4.5 5 -4.5 12v84q0 18 17 18h47q17 0 17 -18v-84q0 -8 -4.5 -12.5t-12.5 -4.5h-47q-8 0 -12.5 5z" />
    <glyph glyph-name="Eogonek" unicode="&#x118;" 
d="M561 -130v-49q-16 -2 -28 -2q-51 0 -78.5 25.5t-27.5 63.5q0 30 17 54.5t50 41.5q-168 -8 -263 -8q-66 0 -112 30t-46 119v438q0 81 44 117.5t106 36.5q119 0 269 -8l45 -2v-83h-284q-79 0 -79 -79v-153l318 -6v-78l-318 -7v-151q0 -47 22 -63.5t59 -16.5h282v-83
q-59 -33 -59 -77q0 -28 20 -44t55 -16h8z" />
    <glyph glyph-name="eogonek" unicode="&#x119;" horiz-adv-x="540" 
d="M497 -113v-49q-16 -2 -28 -2q-51 0 -78.5 25.5t-27.5 63.5q0 44 36 76q-61 -7 -118 -7q-87 0 -136.5 25t-71 84t-21.5 165q0 108 21.5 167t70.5 83t136 24q76 0 121 -16t66 -55t21 -108q0 -71 -41 -102.5t-118 -31.5h-177q1 -61 13.5 -94.5t45.5 -48.5t95 -15h167v-60
l-25 -4q-34 -27 -34 -60q0 -28 20 -44t55 -16h8zM201.5 453q-27.5 -15 -39 -52.5t-11.5 -108.5h169q41 0 59.5 15.5t18.5 54.5q0 60 -26.5 83t-91.5 23q-51 0 -78.5 -15z" />
    <glyph glyph-name="Ecaron" unicode="&#x11a;" 
d="M119 26q-46 30 -46 119v438q0 81 44 117.5t106 36.5q119 0 269 -8l45 -2v-83h-284q-79 0 -79 -79v-153l318 -6v-78l-318 -7v-151q0 -47 22 -63.5t59 -16.5h282v-83q-172 -11 -306 -11q-66 0 -112 30zM168 928h60l84 -90l90 90h61l-118 -137h-70z" />
    <glyph glyph-name="ecaron" unicode="&#x11b;" horiz-adv-x="540" 
d="M144.5 19q-49.5 25 -71 84t-21.5 165q0 108 21.5 167t70.5 83t136 24q76 0 121 -16t66 -55t21 -108q0 -71 -41 -102.5t-118 -31.5h-177q1 -61 13.5 -94.5t45.5 -48.5t95 -15h167v-60q-55 -8 -97 -12.5t-95 -4.5q-87 0 -136.5 25zM320 292q41 0 59.5 15.5t18.5 54.5
q0 60 -26.5 83t-91.5 23q-51 0 -78.5 -15t-39 -52.5t-11.5 -108.5h169zM126 768h60l84 -90l90 90h61l-118 -137h-70z" />
    <glyph glyph-name="Gcircumflex" unicode="&#x11c;" horiz-adv-x="657" 
d="M145.5 36q-50.5 41 -70.5 122t-20 212q0 130 22 210.5t78 121.5t156 41q121 0 241 -27v-77q-115 14 -224 14q-70 0 -107 -27.5t-51.5 -88t-14.5 -168.5q0 -113 14.5 -173t49 -84.5t99.5 -24.5q77 0 169 33v195h-164v77q65 10 167 10q44 0 94 -4v-398h-75l-15 51
q-41 -22 -95.5 -39t-111.5 -17q-91 0 -141.5 41zM295 928h70l107 -137h-60l-84 91l-91 -91h-60z" />
    <glyph glyph-name="gcircumflex" unicode="&#x11d;" horiz-adv-x="578" 
d="M557 479l-109 -11q27 -20 43.5 -47t16.5 -82q0 -71 -45.5 -117t-145.5 -46h-88q-82 0 -82 -50q0 -21 15.5 -31t37.5 -10h169q93 0 139.5 -36.5t46.5 -114.5v-19q0 -77 -50.5 -119t-148.5 -42h-153q-79 0 -127.5 34t-48.5 97v22q0 42 23.5 73t62.5 48q-25 13 -38.5 34.5
t-13.5 47.5q0 39 23.5 64t66.5 34q-50 22 -71.5 63t-21.5 92q0 173 211 173h288v-57zM392 279.5q24 26.5 24 71.5q0 108 -103 108h-56q-53 0 -80.5 -24t-27.5 -78q0 -104 98 -104h59q62 0 86 26.5zM225 8q-44 0 -73.5 -21t-29.5 -62v-19q0 -80 107 -80h117q54 0 84.5 21
t30.5 63v19q0 38 -25 58.5t-82 20.5h-129zM257 768h70l107 -137h-60l-84 91l-91 -91h-60z" />
    <glyph glyph-name="Gbreve" unicode="&#x11e;" horiz-adv-x="657" 
d="M145.5 36q-50.5 41 -70.5 122t-20 212q0 130 22 210.5t78 121.5t156 41q121 0 241 -27v-77q-115 14 -224 14q-70 0 -107 -27.5t-51.5 -88t-14.5 -168.5q0 -113 14.5 -173t49 -84.5t99.5 -24.5q77 0 169 33v195h-164v77q65 10 167 10q44 0 94 -4v-398h-75l-15 51
q-41 -22 -95.5 -39t-111.5 -17q-91 0 -141.5 41zM223 822q-36 35 -36 110h47q0 -50 23.5 -74t60.5 -24q88 0 88 98h49q0 -76 -36.5 -110.5t-98.5 -34.5q-61 0 -97 35z" />
    <glyph glyph-name="gbreve" unicode="&#x11f;" horiz-adv-x="578" 
d="M557 479l-109 -11q27 -20 43.5 -47t16.5 -82q0 -71 -45.5 -117t-145.5 -46h-88q-82 0 -82 -50q0 -21 15.5 -31t37.5 -10h169q93 0 139.5 -36.5t46.5 -114.5v-19q0 -77 -50.5 -119t-148.5 -42h-153q-79 0 -127.5 34t-48.5 97v22q0 42 23.5 73t62.5 48q-25 13 -38.5 34.5
t-13.5 47.5q0 39 23.5 64t66.5 34q-50 22 -71.5 63t-21.5 92q0 173 211 173h288v-57zM392 279.5q24 26.5 24 71.5q0 108 -103 108h-56q-53 0 -80.5 -24t-27.5 -78q0 -104 98 -104h59q62 0 86 26.5zM225 8q-44 0 -73.5 -21t-29.5 -62v-19q0 -80 107 -80h117q54 0 84.5 21
t30.5 63v19q0 38 -25 58.5t-82 20.5h-129zM185 662q-36 35 -36 110h47q0 -50 24 -74t60 -24q88 0 88 98h49q0 -76 -36.5 -110.5t-98.5 -34.5q-61 0 -97 35z" />
    <glyph glyph-name="Gdotaccent" unicode="&#x120;" horiz-adv-x="657" 
d="M145.5 36q-50.5 41 -70.5 122t-20 212q0 130 22 210.5t78 121.5t156 41q121 0 241 -27v-77q-115 14 -224 14q-70 0 -107 -27.5t-51.5 -88t-14.5 -168.5q0 -113 14.5 -173t49 -84.5t99.5 -24.5q77 0 169 33v195h-164v77q65 10 167 10q44 0 94 -4v-398h-75l-15 51
q-41 -22 -95.5 -39t-111.5 -17q-91 0 -141.5 41zM289.5 820q-4.5 5 -4.5 12v84q0 18 17 18h47q17 0 17 -18v-84q0 -8 -4.5 -12.5t-12.5 -4.5h-47q-8 0 -12.5 5z" />
    <glyph glyph-name="gdotaccent" unicode="&#x121;" horiz-adv-x="578" 
d="M557 479l-109 -11q27 -20 43.5 -47t16.5 -82q0 -71 -45.5 -117t-145.5 -46h-88q-82 0 -82 -50q0 -21 15.5 -31t37.5 -10h169q93 0 139.5 -36.5t46.5 -114.5v-19q0 -77 -50.5 -119t-148.5 -42h-153q-79 0 -127.5 34t-48.5 97v22q0 42 23.5 73t62.5 48q-25 13 -38.5 34.5
t-13.5 47.5q0 39 23.5 64t66.5 34q-50 22 -71.5 63t-21.5 92q0 173 211 173h288v-57zM392 279.5q24 26.5 24 71.5q0 108 -103 108h-56q-53 0 -80.5 -24t-27.5 -78q0 -104 98 -104h59q62 0 86 26.5zM225 8q-44 0 -73.5 -21t-29.5 -62v-19q0 -80 107 -80h117q54 0 84.5 21
t30.5 63v19q0 38 -25 58.5t-82 20.5h-129zM251.5 660q-4.5 5 -4.5 12v84q0 18 17 18h47q17 0 17 -18v-84q0 -8 -4.5 -12.5t-12.5 -4.5h-47q-8 0 -12.5 5z" />
    <glyph glyph-name="Gcommaaccent" unicode="&#x122;" horiz-adv-x="657" 
d="M145.5 36q-50.5 41 -70.5 122t-20 212q0 130 22 210.5t78 121.5t156 41q121 0 241 -27v-77q-115 14 -224 14q-70 0 -107 -27.5t-51.5 -88t-14.5 -168.5q0 -113 14.5 -173t49 -84.5t99.5 -24.5q77 0 169 33v195h-164v77q65 10 167 10q44 0 94 -4v-398h-75l-15 51
q-41 -22 -95.5 -39t-111.5 -17q-91 0 -141.5 41zM260 -165l29 5q25 5 38 12.5t19 26t6 55.5h62q0 -53 -9.5 -82.5t-34 -43.5t-68.5 -14h-42v41z" />
    <glyph glyph-name="gcommaaccent" unicode="&#x123;" horiz-adv-x="578" 
d="M557 479l-109 -11q27 -20 43.5 -47t16.5 -82q0 -71 -45.5 -117t-145.5 -46h-88q-82 0 -82 -50q0 -21 15.5 -31t37.5 -10h169q93 0 139.5 -36.5t46.5 -114.5v-19q0 -77 -50.5 -119t-148.5 -42h-153q-79 0 -127.5 34t-48.5 97v22q0 42 23.5 73t62.5 48q-25 13 -38.5 34.5
t-13.5 47.5q0 39 23.5 64t66.5 34q-50 22 -71.5 63t-21.5 92q0 173 211 173h288v-57zM392 279.5q24 26.5 24 71.5q0 108 -103 108h-56q-53 0 -80.5 -24t-27.5 -78q0 -104 98 -104h59q62 0 86 26.5zM225 8q-44 0 -73.5 -21t-29.5 -62v-19q0 -80 107 -80h117q54 0 84.5 21
t30.5 63v19q0 38 -25 58.5t-82 20.5h-129zM240.5 699q9.5 30 34 44t68.5 14h42v-41l-29 -6q-25 -5 -38 -12t-19 -26t-6 -56h-62q0 53 9.5 83z" />
    <glyph glyph-name="Hcircumflex" unicode="&#x124;" horiz-adv-x="688" 
d="M73 737h101v-331h341v331h100v-737h-100v316h-341v-316h-101v737zM312 928h70l107 -137h-60l-84 91l-91 -91h-60z" />
    <glyph glyph-name="hcircumflex" unicode="&#x125;" 
d="M70 763h100v-286q38 28 88 47.5t100 19.5q83 0 124 -50.5t41 -132.5v-361h-100v349q0 47 -27.5 75.5t-73.5 28.5q-42 0 -76.5 -12t-75.5 -36v-405h-100v763zM127 952h70l107 -137h-60l-84 91l-91 -91h-60z" />
    <glyph glyph-name="Hbar" unicode="&#x126;" horiz-adv-x="688" 
d="M674 523h-59v-523h-100v316h-341v-316h-101v523h-59v54h59v160h101v-160h341v160h100v-160h59v-54zM515 523h-341v-117h341v117z" />
    <glyph glyph-name="hbar" unicode="&#x127;" 
d="M482 493.5q41 -50.5 41 -132.5v-361h-100v349q0 47 -27.5 75.5t-73.5 28.5q-42 0 -76.5 -12t-75.5 -36v-405h-100v625h-69v42h69v96h100v-96h130v-42h-130v-148q38 28 88 47.5t100 19.5q83 0 124 -50.5z" />
    <glyph glyph-name="Itilde" unicode="&#x128;" horiz-adv-x="247" 
d="M73 737h101v-737h-101v737zM-23 887.5q28 27.5 68 27.5q23 0 43 -8t45 -23q22 -13 36 -19t29 -6q25 0 39.5 15.5t15.5 44.5h51q-1 -56 -27 -86.5t-72 -30.5q-22 0 -41.5 8t-44.5 23q-21 13 -36.5 19.5t-30.5 6.5q-23 0 -38 -15t-16 -43h-51q2 59 30 86.5z" />
    <glyph glyph-name="itilde" unicode="&#x129;" horiz-adv-x="238" 
d="M70 535h100v-535h-100v535zM-19 727.5q28 27.5 68 27.5q23 0 43 -8t45 -23q22 -13 36 -19t29 -6q25 0 39.5 15.5t15.5 44.5h51q-1 -56 -27 -86.5t-72 -30.5q-22 0 -41.5 8t-44.5 23q-21 13 -36.5 19.5t-30.5 6.5q-23 0 -38 -15t-16 -43h-51q2 59 30 86.5z" />
    <glyph glyph-name="Imacron" unicode="&#x12a;" horiz-adv-x="247" 
d="M73 737h101v-737h-101v737zM-18 884h270v-60h-270v60z" />
    <glyph glyph-name="imacron" unicode="&#x12b;" horiz-adv-x="238" 
d="M70 535h100v-535h-100v535zM-18 724h270v-60h-270v60z" />
    <glyph glyph-name="Ibreve" unicode="&#x12c;" horiz-adv-x="247" 
d="M73 737h101v-737h-101v737zM19 822q-36 35 -36 110h47q0 -50 23.5 -74t60.5 -24q88 0 88 98h49q0 -76 -36.5 -110.5t-98.5 -34.5q-61 0 -97 35z" />
    <glyph glyph-name="ibreve" unicode="&#x12d;" horiz-adv-x="238" 
d="M70 535h100v-535h-100v535zM16 662q-36 35 -36 110h47q0 -50 24 -74t60 -24q88 0 88 98h49q0 -76 -36.5 -110.5t-98.5 -34.5q-61 0 -97 35z" />
    <glyph glyph-name="Iogonek" unicode="&#x12e;" horiz-adv-x="247" 
d="M73 737h101v-737h-101v737zM91.5 -162.5q-27.5 25.5 -27.5 63.5q0 31 18 56.5t54 42.5h38q-59 -33 -59 -77q0 -28 20 -44t55 -16h8v-49q-16 -2 -28 -2q-51 0 -78.5 25.5z" />
    <glyph glyph-name="iogonek" unicode="&#x12f;" horiz-adv-x="240" 
d="M71 629.5q-5 4.5 -5 12.5v84q0 18 18 18h74q8 0 12 -5t4 -13v-84q0 -17 -16 -17h-74q-8 0 -13 4.5zM70 535h100v-535h-100v535zM87.5 -162.5q-27.5 25.5 -27.5 63.5q0 31 18 56.5t54 42.5h38q-59 -33 -59 -77q0 -28 20 -44t55 -16h8v-49q-16 -2 -28 -2q-51 0 -78.5 25.5z
" />
    <glyph glyph-name="Idotaccent" unicode="&#x130;" horiz-adv-x="247" 
d="M73 737h101v-737h-101v737zM85.5 820q-4.5 5 -4.5 12v84q0 18 17 18h47q17 0 17 -18v-84q0 -8 -4.5 -12.5t-12.5 -4.5h-47q-8 0 -12.5 5z" />
    <glyph glyph-name="dotlessi" unicode="&#x131;" horiz-adv-x="238" 
d="M70 535h100v-535h-100v535z" />
    <glyph glyph-name="Jcircumflex" unicode="&#x134;" horiz-adv-x="391" 
d="M81 0.5q-32 6.5 -54 15.5v79q62 -11 95 -11q47 0 71 21.5t24 75.5v556h100v-569q0 -92 -42 -133t-132 -41q-30 0 -62 6.5zM235 928h70l107 -137h-60l-84 91l-91 -91h-60z" />
    <glyph glyph-name="jcircumflex" unicode="&#x135;" horiz-adv-x="240" 
d="M70 535h100v-522q0 -68 -7 -135.5t-18 -114.5h-75v772zM88 768h70l107 -137h-60l-84 91l-91 -91h-60z" />
    <glyph glyph-name="Kcommaaccent" unicode="&#x136;" horiz-adv-x="618" 
d="M73 737h101v-325h120l186 325h107l-214 -369l218 -368h-108l-190 322h-119v-322h-101v737zM218 -165l29 5q25 5 38 12.5t19 26t6 55.5h62q0 -53 -9.5 -82.5t-34 -43.5t-68.5 -14h-42v41z" />
    <glyph glyph-name="kcommaaccent" unicode="&#x137;" horiz-adv-x="521" 
d="M70 763h100v-433h73l149 205h104l-179 -250l192 -285h-104l-165 240h-70v-240h-100v763zM179 -165l29 5q25 5 38 12.5t19 26t6 55.5h62q0 -53 -9.5 -82.5t-34 -43.5t-68.5 -14h-42v41z" />
    <glyph glyph-name="kgreenlandic" unicode="&#x138;" horiz-adv-x="521" 
d="M70 540h100v-216h70l149 211h107l-179 -257l192 -278h-105l-164 234h-70v-234h-100v540z" />
    <glyph glyph-name="Lacute" unicode="&#x139;" horiz-adv-x="533" 
d="M113 36q-40 36 -40 120v581h101v-566q0 -45 21 -62t58 -17h255v-92h-279q-76 0 -116 36zM195 929h84l-122 -138h-59z" />
    <glyph glyph-name="lacute" unicode="&#x13a;" horiz-adv-x="300" 
d="M106.5 39q-36.5 40 -36.5 133v591h100v-578q0 -59 16.5 -81t52.5 -27l50 -6v-72h-70q-76 0 -112.5 40zM181 997h84l-122 -138h-59z" />
    <glyph glyph-name="Lcommaaccent" unicode="&#x13b;" horiz-adv-x="533" 
d="M113 36q-40 36 -40 120v581h101v-566q0 -45 21 -62t58 -17h255v-92h-279q-76 0 -116 36zM194 -165l29 5q25 5 38 12.5t19 26t6 55.5h62q0 -53 -9.5 -82.5t-34 -43.5t-68.5 -14h-42v41z" />
    <glyph glyph-name="lcommaaccent" unicode="&#x13c;" horiz-adv-x="300" 
d="M106.5 39q-36.5 40 -36.5 133v591h100v-578q0 -59 16.5 -81t52.5 -27l50 -6v-72h-70q-76 0 -112.5 40zM88 -165l29 5q25 5 38 12.5t19 26t6 55.5h62q0 -53 -9.5 -82.5t-34 -43.5t-68.5 -14h-42v41z" />
    <glyph glyph-name="Lcaron" unicode="&#x13d;" horiz-adv-x="533" 
d="M113 36q-40 36 -40 120v581h101v-566q0 -45 21 -62t58 -17h255v-92h-279q-76 0 -116 36zM256 722v61h92v-61l-7 -140h-78z" />
    <glyph glyph-name="lcaron" unicode="&#x13e;" horiz-adv-x="300" 
d="M106.5 39q-36.5 40 -36.5 133v591h100v-578q0 -59 16.5 -81t52.5 -27l50 -6v-72h-70q-76 0 -112.5 40zM232 722v61h92v-61l-7 -140h-78z" />
    <glyph glyph-name="Ldot" unicode="&#x13f;" horiz-adv-x="533" 
d="M113 36q-40 36 -40 120v581h101v-566q0 -45 21 -62t58 -17h255v-92h-279q-76 0 -116 36zM360 351q-5 5 -5 12v60q0 18 17 18h57q18 0 18 -18v-60q0 -17 -18 -17h-57q-7 0 -12 5z" />
    <glyph glyph-name="ldot" unicode="&#x140;" horiz-adv-x="338" 
d="M106.5 39q-36.5 40 -36.5 133v591h100v-578q0 -59 16.5 -81t52.5 -27l50 -6v-72h-70q-76 0 -112.5 40zM250 333q-5 5 -5 12v60q0 18 17 18h57q18 0 18 -18v-60q0 -17 -18 -17h-57q-7 0 -12 5z" />
    <glyph glyph-name="Lslash" unicode="&#x141;" horiz-adv-x="533" 
d="M508 92v-92h-279q-76 0 -116 36t-40 120v186l-73 -31v57l73 31v338h101v-307l133 58v-56l-133 -58v-203q0 -45 21 -62t58 -17h255z" />
    <glyph glyph-name="lslash" unicode="&#x142;" horiz-adv-x="300" 
d="M289 71v-72h-70q-76 0 -112.5 40t-36.5 133v205l-69 -26v57l69 26v329h100v-297l98 36v-57l-98 -36v-224q0 -59 16.5 -81t52.5 -27z" />
    <glyph glyph-name="Nacute" unicode="&#x143;" horiz-adv-x="689" 
d="M84 737h82l361 -565v565h100v-737h-81l-361 565v-565h-101v737zM412 929h84l-122 -138h-59z" />
    <glyph glyph-name="nacute" unicode="&#x144;" 
d="M70 535h80l20 -58q39 29 88.5 48t99.5 19q85 0 125 -51.5t40 -132.5v-360h-100v348q0 48 -27 76.5t-74 28.5q-42 0 -76.5 -12t-75.5 -36v-405h-100v535zM356 769h84l-122 -138h-59z" />
    <glyph glyph-name="Ncommaaccent" unicode="&#x145;" horiz-adv-x="689" 
d="M84 737h82l361 -565v565h100v-737h-81l-361 565v-565h-101v737zM256 -165l29 5q25 5 38 12.5t19 26t6 55.5h62q0 -53 -9.5 -82.5t-34 -43.5t-68.5 -14h-42v41z" />
    <glyph glyph-name="ncommaaccent" unicode="&#x146;" 
d="M70 535h80l20 -58q39 29 88.5 48t99.5 19q85 0 125 -51.5t40 -132.5v-360h-100v348q0 48 -27 76.5t-74 28.5q-42 0 -76.5 -12t-75.5 -36v-405h-100v535zM211 -165l29 5q25 5 38 12.5t19 26t6 55.5h62q0 -53 -9.5 -82.5t-34 -43.5t-68.5 -14h-42v41z" />
    <glyph glyph-name="Ncaron" unicode="&#x147;" horiz-adv-x="689" 
d="M84 737h82l361 -565v565h100v-737h-81l-361 565v-565h-101v737zM196 928h60l84 -90l90 90h61l-118 -137h-70z" />
    <glyph glyph-name="ncaron" unicode="&#x148;" 
d="M70 535h80l20 -58q39 29 88.5 48t99.5 19q85 0 125 -51.5t40 -132.5v-360h-100v348q0 48 -27 76.5t-74 28.5q-42 0 -76.5 -12t-75.5 -36v-405h-100v535zM151 768h60l84 -90l90 90h61l-118 -137h-70z" />
    <glyph glyph-name="Eng" unicode="&#x14a;" horiz-adv-x="685" 
d="M627 737v-807q0 -91 -44.5 -132t-140.5 -41q-29 0 -61 6.5t-55 15.5v79q64 -11 99 -11q50 0 76 21.5t26 75.5v86l-342 535v-565h-101v737h82l361 -565v565h100z" />
    <glyph glyph-name="eng" unicode="&#x14b;" 
d="M483 492.5q40 -51.5 40 -132.5v-369q0 -86 -33.5 -142t-90.5 -86h-81q49 38 77 91t28 134v360q0 48 -27 76.5t-74 28.5q-42 0 -76.5 -12t-75.5 -36v-405h-100v535h80l20 -58q39 29 88.5 48t99.5 19q85 0 125 -51.5z" />
    <glyph glyph-name="Omacron" unicode="&#x14c;" horiz-adv-x="690" 
d="M179 22q-61 28 -92.5 108t-31.5 236t32 237.5t93 110.5t165 29q106 0 167 -29t92.5 -110.5t31.5 -237.5t-31.5 -236t-92.5 -108t-167 -28q-105 0 -166 28zM459 105q40 21 58 81t18 180q0 125 -18 186t-57.5 81t-114.5 20q-72 0 -111.5 -20.5t-59 -81.5t-19.5 -185
q0 -121 17.5 -180.5t57 -80.5t115.5 -21q74 0 114 21zM204 884h270v-60h-270v60z" />
    <glyph glyph-name="omacron" unicode="&#x14d;" horiz-adv-x="576" 
d="M152 18q-51 24 -75.5 83.5t-24.5 166.5q0 110 25 169.5t75.5 82t135.5 22.5t135.5 -23t75.5 -82.5t25 -168.5q0 -108 -24.5 -167.5t-75 -83t-136.5 -23.5q-85 0 -136 24zM366.5 89.5q28.5 13.5 43 55t14.5 124.5t-14.5 124.5t-43 54.5t-78.5 13q-51 0 -78.5 -13
t-42 -54.5t-14.5 -124.5q0 -84 14.5 -125.5t42 -54.5t78.5 -13q50 0 78.5 13.5zM150 724h270v-60h-270v60z" />
    <glyph glyph-name="Obreve" unicode="&#x14e;" horiz-adv-x="690" 
d="M179 22q-61 28 -92.5 108t-31.5 236t32 237.5t93 110.5t165 29q106 0 167 -29t92.5 -110.5t31.5 -237.5t-31.5 -236t-92.5 -108t-167 -28q-105 0 -166 28zM459 105q40 21 58 81t18 180q0 125 -18 186t-57.5 81t-114.5 20q-72 0 -111.5 -20.5t-59 -81.5t-19.5 -185
q0 -121 17.5 -180.5t57 -80.5t115.5 -21q74 0 114 21zM241 822q-36 35 -36 110h47q0 -50 23.5 -74t60.5 -24q88 0 88 98h49q0 -76 -36.5 -110.5t-98.5 -34.5q-61 0 -97 35z" />
    <glyph glyph-name="obreve" unicode="&#x14f;" horiz-adv-x="576" 
d="M152 18q-51 24 -75.5 83.5t-24.5 166.5q0 110 25 169.5t75.5 82t135.5 22.5t135.5 -23t75.5 -82.5t25 -168.5q0 -108 -24.5 -167.5t-75 -83t-136.5 -23.5q-85 0 -136 24zM366.5 89.5q28.5 13.5 43 55t14.5 124.5t-14.5 124.5t-43 54.5t-78.5 13q-51 0 -78.5 -13
t-42 -54.5t-14.5 -124.5q0 -84 14.5 -125.5t42 -54.5t78.5 -13q50 0 78.5 13.5zM184 662q-36 35 -36 110h47q0 -50 24 -74t60 -24q88 0 88 98h49q0 -76 -36.5 -110.5t-98.5 -34.5q-61 0 -97 35z" />
    <glyph glyph-name="Ohungarumlaut" unicode="&#x150;" horiz-adv-x="690" 
d="M179 22q-61 28 -92.5 108t-31.5 236t32 237.5t93 110.5t165 29q106 0 167 -29t92.5 -110.5t31.5 -237.5t-31.5 -236t-92.5 -108t-167 -28q-105 0 -166 28zM459 105q40 21 58 81t18 180q0 125 -18 186t-57.5 81t-114.5 20q-72 0 -111.5 -20.5t-59 -81.5t-19.5 -185
q0 -121 17.5 -180.5t57 -80.5t115.5 -21q74 0 114 21zM312 929h80l-113 -138h-59zM467 929h79l-113 -138h-59z" />
    <glyph glyph-name="ohungarumlaut" unicode="&#x151;" horiz-adv-x="576" 
d="M152 18q-51 24 -75.5 83.5t-24.5 166.5q0 110 25 169.5t75.5 82t135.5 22.5t135.5 -23t75.5 -82.5t25 -168.5q0 -108 -24.5 -167.5t-75 -83t-136.5 -23.5q-85 0 -136 24zM366.5 89.5q28.5 13.5 43 55t14.5 124.5t-14.5 124.5t-43 54.5t-78.5 13q-51 0 -78.5 -13
t-42 -54.5t-14.5 -124.5q0 -84 14.5 -125.5t42 -54.5t78.5 -13q50 0 78.5 13.5zM255 769h80l-113 -138h-59zM410 769h79l-113 -138h-59z" />
    <glyph glyph-name="OE" unicode="&#x152;" horiz-adv-x="1052" 
d="M636 565v-153l318 -6v-78l-318 -7v-151q0 -47 22 -63.5t59 -16.5h282v-83q-174 -11 -308 -11q-97 0 -134 58q-34 -34 -85 -47t-127 -13q-105 0 -166 28t-92.5 108t-31.5 236t32 237.5t93 110.5t165 29q77 0 129 -14.5t86 -50.5q20 30 53 44.5t71 14.5q120 0 270 -8l45 -2
v-83h-284q-79 0 -79 -79zM459 105q40 21 58 81t18 180q0 125 -18 186t-57.5 81t-114.5 20q-72 0 -111.5 -20.5t-59 -81.5t-19.5 -185q0 -121 17.5 -180.5t57 -80.5t115.5 -21q74 0 114 21z" />
    <glyph glyph-name="oe" unicode="&#x153;" horiz-adv-x="907" 
d="M554.5 107.5q34.5 -36.5 114.5 -36.5h171v-60q-110 -17 -199 -17q-60 0 -102 19.5t-66 61.5q-25 -45 -70 -63t-117 -18q-84 0 -134.5 24t-75 83.5t-24.5 166.5q0 110 25 169.5t75.5 82t135.5 22.5q70 0 114.5 -17.5t69.5 -60.5q24 40 65 59t104 19q77 0 122.5 -15.5
t68.5 -56t23 -116.5q0 -63 -40.5 -94t-107.5 -31h-188q1 -85 35.5 -121.5zM544.5 427.5q-26.5 -40.5 -26.5 -135.5h170q38 0 57.5 15.5t19.5 55.5q0 62 -28.5 83.5t-95.5 21.5q-70 0 -96.5 -40.5zM366.5 84.5q28.5 13.5 43 56.5t14.5 128t-14.5 127t-43 55.5t-78.5 13.5
q-51 0 -78.5 -13.5t-42 -55.5t-14.5 -127q0 -86 14.5 -128.5t42.5 -56t78 -13.5t78.5 13.5z" />
    <glyph glyph-name="Racute" unicode="&#x154;" horiz-adv-x="614" 
d="M73 737h295q90 0 143.5 -47.5t53.5 -175.5q0 -103 -37.5 -147t-95.5 -60l147 -307h-102l-136 293l-137 2q-11 1 -30 1v-296h-101v737zM352 374q54 0 83.5 30t29.5 110q0 77 -30 105t-83 28h-178v-273h178zM367 929h84l-122 -138h-59z" />
    <glyph glyph-name="racute" unicode="&#x155;" horiz-adv-x="416" 
d="M70 535h77l23 -90q38 46 80 71.5t94 25.5q27 0 48 -6v-103q-32 5 -60 5q-49 0 -86 -17.5t-76 -55.5v-365h-100v535zM275 769h84l-122 -138h-59z" />
    <glyph glyph-name="Rcommaaccent" unicode="&#x156;" horiz-adv-x="614" 
d="M73 737h295q90 0 143.5 -47.5t53.5 -175.5q0 -103 -37.5 -147t-95.5 -60l147 -307h-102l-136 293l-137 2q-11 1 -30 1v-296h-101v737zM352 374q54 0 83.5 30t29.5 110q0 77 -30 105t-83 28h-178v-273h178zM214 -165l29 5q25 5 38 12.5t19 26t6 55.5h62q0 -53 -9.5 -82.5
t-34 -43.5t-68.5 -14h-42v41z" />
    <glyph glyph-name="rcommaaccent" unicode="&#x157;" horiz-adv-x="416" 
d="M70 535h77l23 -90q38 46 80 71.5t94 25.5q27 0 48 -6v-103q-32 5 -60 5q-49 0 -86 -17.5t-76 -55.5v-365h-100v535zM36 -165l29 5q25 5 38 12.5t19 26t6 55.5h62q0 -53 -9.5 -82.5t-34 -43.5t-68.5 -14h-42v41z" />
    <glyph glyph-name="Rcaron" unicode="&#x158;" horiz-adv-x="614" 
d="M73 737h295q90 0 143.5 -47.5t53.5 -175.5q0 -103 -37.5 -147t-95.5 -60l147 -307h-102l-136 293l-137 2q-11 1 -30 1v-296h-101v737zM352 374q54 0 83.5 30t29.5 110q0 77 -30 105t-83 28h-178v-273h178zM151 928h60l84 -90l90 90h61l-118 -137h-70z" />
    <glyph glyph-name="rcaron" unicode="&#x159;" horiz-adv-x="416" 
d="M70 535h77l23 -90q38 46 80 71.5t94 25.5q27 0 48 -6v-103q-32 5 -60 5q-49 0 -86 -17.5t-76 -55.5v-365h-100v535zM70 768h60l84 -90l90 90h61l-118 -137h-70z" />
    <glyph glyph-name="Sacute" unicode="&#x15a;" horiz-adv-x="582" 
d="M167.5 -0.5q-67.5 5.5 -106.5 14.5v78q83 -8 221 -8q71 0 110 21.5t39 78.5v43q0 93 -99 93h-75q-99 0 -150 43.5t-51 142.5v41q0 102 55.5 149t165.5 47q48 0 110 -7t106 -15v-78l-21 1q-128 9 -184 9q-68 0 -102 -24t-34 -87v-30q0 -52 27.5 -74t82.5 -22h81
q90 0 137 -48.5t47 -128.5v-52q0 -109 -63 -151t-178 -42q-51 0 -118.5 5.5zM357 929h84l-122 -138h-59z" />
    <glyph glyph-name="sacute" unicode="&#x15b;" horiz-adv-x="501" 
d="M142.5 -1.5q-64.5 4.5 -91.5 12.5v60h225q48 0 71 13.5t23 54.5v22q0 64 -86 64h-78q-77 0 -119 31.5t-42 104.5v29q0 77 45.5 113.5t150.5 36.5q44 0 103 -5.5t91 -12.5v-60h-212q-47 0 -69 -16t-22 -56v-20q0 -38 21.5 -50t69.5 -12h80q75 0 114.5 -35t39.5 -100v-41
q0 -77 -50.5 -107.5t-149.5 -30.5q-50 0 -114.5 4.5zM303 769h84l-122 -138h-59z" />
    <glyph glyph-name="Scircumflex" unicode="&#x15c;" horiz-adv-x="582" 
d="M167.5 -0.5q-67.5 5.5 -106.5 14.5v78q83 -8 221 -8q71 0 110 21.5t39 78.5v43q0 93 -99 93h-75q-99 0 -150 43.5t-51 142.5v41q0 102 55.5 149t165.5 47q48 0 110 -7t106 -15v-78l-21 1q-128 9 -184 9q-68 0 -102 -24t-34 -87v-30q0 -52 27.5 -74t82.5 -22h81
q90 0 137 -48.5t47 -128.5v-52q0 -109 -63 -151t-178 -42q-51 0 -118.5 5.5zM253 928h70l107 -137h-60l-84 91l-91 -91h-60z" />
    <glyph glyph-name="scircumflex" unicode="&#x15d;" horiz-adv-x="501" 
d="M142.5 -1.5q-64.5 4.5 -91.5 12.5v60h225q48 0 71 13.5t23 54.5v22q0 64 -86 64h-78q-77 0 -119 31.5t-42 104.5v29q0 77 45.5 113.5t150.5 36.5q44 0 103 -5.5t91 -12.5v-60h-212q-47 0 -69 -16t-22 -56v-20q0 -38 21.5 -50t69.5 -12h80q75 0 114.5 -35t39.5 -100v-41
q0 -77 -50.5 -107.5t-149.5 -30.5q-50 0 -114.5 4.5zM210 768h70l107 -137h-60l-84 91l-91 -91h-60z" />
    <glyph glyph-name="Scedilla" unicode="&#x15e;" horiz-adv-x="582" 
d="M480 367.5q47 -48.5 47 -128.5v-52q0 -103 -56.5 -146t-159.5 -47l-31 -47q71 -6 71 -65q0 -36 -25.5 -55t-73.5 -19h-38v41l21 2q51 6 51 42q0 38 -60 42l39 59q-54 2 -112 7t-92 13v78q83 -8 221 -8q71 0 110 21.5t39 78.5v43q0 93 -99 93h-75q-99 0 -150 43.5
t-51 142.5v41q0 102 55.5 149t165.5 47q48 0 110 -7t106 -15v-78l-21 1q-128 9 -184 9q-68 0 -102 -24t-34 -87v-30q0 -52 27.5 -74t82.5 -22h81q90 0 137 -48.5z" />
    <glyph glyph-name="scedilla" unicode="&#x15f;" horiz-adv-x="501" 
d="M417.5 273q39.5 -35 39.5 -100v-41q0 -75 -48 -105.5t-141 -32.5l-31 -47q71 -6 71 -65q0 -36 -25.5 -55t-73.5 -19h-38v41l21 2q51 6 51 42q0 38 -60 42l39 60q-48 1 -98 5.5t-73 10.5v60h225q48 0 71 13.5t23 54.5v22q0 64 -86 64h-78q-77 0 -119 31.5t-42 104.5v29
q0 77 45.5 113.5t150.5 36.5q44 0 103 -5.5t91 -12.5v-60h-212q-47 0 -69 -16t-22 -56v-20q0 -38 21.5 -50t69.5 -12h80q75 0 114.5 -35z" />
    <glyph glyph-name="Scaron" unicode="&#x160;" horiz-adv-x="582" 
d="M167.5 -0.5q-67.5 5.5 -106.5 14.5v78q83 -8 221 -8q71 0 110 21.5t39 78.5v43q0 93 -99 93h-75q-99 0 -150 43.5t-51 142.5v41q0 102 55.5 149t165.5 47q48 0 110 -7t106 -15v-78l-21 1q-128 9 -184 9q-68 0 -102 -24t-34 -87v-30q0 -52 27.5 -74t82.5 -22h81
q90 0 137 -48.5t47 -128.5v-52q0 -109 -63 -151t-178 -42q-51 0 -118.5 5.5zM141 928h60l84 -90l90 90h61l-118 -137h-70z" />
    <glyph glyph-name="scaron" unicode="&#x161;" horiz-adv-x="501" 
d="M142.5 -1.5q-64.5 4.5 -91.5 12.5v60h225q48 0 71 13.5t23 54.5v22q0 64 -86 64h-78q-77 0 -119 31.5t-42 104.5v29q0 77 45.5 113.5t150.5 36.5q44 0 103 -5.5t91 -12.5v-60h-212q-47 0 -69 -16t-22 -56v-20q0 -38 21.5 -50t69.5 -12h80q75 0 114.5 -35t39.5 -100v-41
q0 -77 -50.5 -107.5t-149.5 -30.5q-50 0 -114.5 4.5zM98 768h60l84 -90l90 90h61l-118 -137h-70z" />
    <glyph glyph-name="uni0162" unicode="&#x162;" horiz-adv-x="573" 
d="M315 0l-34 -53q71 -6 71 -65q0 -36 -25.5 -55t-73.5 -19h-38v41l21 2q51 6 51 42q0 38 -60 42l42 65h-33v647h-220v90h541v-90h-220v-647h-22z" />
    <glyph glyph-name="uni0163" unicode="&#x163;" horiz-adv-x="374" 
d="M198 453v-274q0 -54 20.5 -75t51.5 -24l66 -6v-74h-81q-18 0 -27 1l-35 -54q71 -6 71 -65q0 -36 -25.5 -55t-73.5 -19h-38v41l21 2q51 6 51 42q0 38 -60 42l48 74q-47 14 -68.5 54.5t-20.5 114.5l4 275h-85v65l87 17l15 150h79v-150h145v-82h-145z" />
    <glyph glyph-name="Tcaron" unicode="&#x164;" horiz-adv-x="573" 
d="M236 647h-220v90h541v-90h-220v-647h-101v647zM142 928h60l84 -90l90 90h61l-118 -137h-70z" />
    <glyph glyph-name="tcaron" unicode="&#x165;" horiz-adv-x="374" 
d="M134 41q-38 41 -36 137l4 275h-85v65l87 17l15 150h79v-150h145v-82h-145v-274q0 -54 20.5 -75t51.5 -24l66 -6v-74h-81q-83 0 -121 41zM260 722v61h92v-61l-7 -140h-78z" />
    <glyph glyph-name="Tbar" unicode="&#x166;" horiz-adv-x="573" 
d="M337 647v-233h175v-55h-175v-359h-101v359h-176v55h176v233h-220v90h541v-90h-220z" />
    <glyph glyph-name="tbar" unicode="&#x167;" horiz-adv-x="374" 
d="M198 453v-125h134v-42h-134v-107q0 -54 20.5 -75t51.5 -24l66 -6v-74h-81q-83 0 -121 41t-36 137l2 108h-83v42h83l2 125h-85v65l87 17l15 150h79v-150h145v-82h-145z" />
    <glyph glyph-name="Utilde" unicode="&#x168;" horiz-adv-x="679" 
d="M133.5 46.5q-70.5 52.5 -70.5 184.5v506h101v-505q0 -81 44 -114t131 -33q88 0 132 33t44 114v505h101v-506q0 -132 -71 -184.5t-206 -52.5t-205.5 52.5zM188 887.5q28 27.5 68 27.5q23 0 43 -8t45 -23q22 -13 36 -19t29 -6q25 0 39.5 15.5t15.5 44.5h51
q-1 -56 -27 -86.5t-72 -30.5q-22 0 -41.5 8t-44.5 23q-21 13 -36.5 19.5t-30.5 6.5q-23 0 -38 -15t-16 -43h-51q2 59 30 86.5z" />
    <glyph glyph-name="utilde" unicode="&#x169;" 
d="M109.5 35q-40.5 41 -40.5 123v377h100v-350q0 -57 26 -79.5t79 -22.5q74 0 148 47v405h100v-535h-80l-20 58q-100 -64 -195 -64q-77 0 -117.5 41zM149 727.5q28 27.5 68 27.5q23 0 43 -8t45 -23q22 -13 36 -19t29 -6q25 0 39.5 15.5t15.5 44.5h51q-1 -56 -27 -86.5
t-72 -30.5q-22 0 -41.5 8t-44.5 23q-21 13 -36.5 19.5t-30.5 6.5q-23 0 -38 -15t-16 -43h-51q2 59 30 86.5z" />
    <glyph glyph-name="Umacron" unicode="&#x16a;" horiz-adv-x="679" 
d="M133.5 46.5q-70.5 52.5 -70.5 184.5v506h101v-505q0 -81 44 -114t131 -33q88 0 132 33t44 114v505h101v-506q0 -132 -71 -184.5t-206 -52.5t-205.5 52.5zM193 884h270v-60h-270v60z" />
    <glyph glyph-name="umacron" unicode="&#x16b;" 
d="M109.5 35q-40.5 41 -40.5 123v377h100v-350q0 -57 26 -79.5t79 -22.5q74 0 148 47v405h100v-535h-80l-20 58q-100 -64 -195 -64q-77 0 -117.5 41zM150 724h270v-60h-270v60z" />
    <glyph glyph-name="Ubreve" unicode="&#x16c;" horiz-adv-x="679" 
d="M133.5 46.5q-70.5 52.5 -70.5 184.5v506h101v-505q0 -81 44 -114t131 -33q88 0 132 33t44 114v505h101v-506q0 -132 -71 -184.5t-206 -52.5t-205.5 52.5zM230 822q-36 35 -36 110h47q0 -50 23.5 -74t60.5 -24q88 0 88 98h49q0 -76 -36.5 -110.5t-98.5 -34.5q-61 0 -97 35
z" />
    <glyph glyph-name="ubreve" unicode="&#x16d;" 
d="M109.5 35q-40.5 41 -40.5 123v377h100v-350q0 -57 26 -79.5t79 -22.5q74 0 148 47v405h100v-535h-80l-20 58q-100 -64 -195 -64q-77 0 -117.5 41zM184 662q-36 35 -36 110h47q0 -50 24 -74t60 -24q88 0 88 98h49q0 -76 -36.5 -110.5t-98.5 -34.5q-61 0 -97 35z" />
    <glyph glyph-name="Uring" unicode="&#x16e;" horiz-adv-x="679" 
d="M133.5 46.5q-70.5 52.5 -70.5 184.5v506h101v-505q0 -81 44 -114t131 -33q88 0 132 33t44 114v505h101v-506q0 -132 -71 -184.5t-206 -52.5t-205.5 52.5zM247.5 790q-28.5 25 -28.5 84t28.5 84.5t87.5 25.5q58 0 85.5 -25t27.5 -85t-27.5 -84.5t-85.5 -24.5
q-59 0 -87.5 25zM385 820q15 15 15 54t-15 54.5t-50 15.5q-36 0 -52 -15.5t-16 -54.5t16 -54t52 -15q35 0 50 15z" />
    <glyph glyph-name="uring" unicode="&#x16f;" 
d="M109.5 35q-40.5 41 -40.5 123v377h100v-350q0 -57 26 -79.5t79 -22.5q74 0 148 47v405h100v-535h-80l-20 58q-100 -64 -195 -64q-77 0 -117.5 41zM201.5 616q-28.5 25 -28.5 84t28.5 84.5t87.5 25.5q58 0 85.5 -25t27.5 -85t-27.5 -84.5t-85.5 -24.5q-59 0 -87.5 25z
M339 646q15 15 15 54t-15 54.5t-50 15.5q-36 0 -52 -15.5t-16 -54.5t16 -54t52 -15q35 0 50 15z" />
    <glyph glyph-name="Uhungarumlaut" unicode="&#x170;" horiz-adv-x="679" 
d="M133.5 46.5q-70.5 52.5 -70.5 184.5v506h101v-505q0 -81 44 -114t131 -33q88 0 132 33t44 114v505h101v-506q0 -132 -71 -184.5t-206 -52.5t-205.5 52.5zM301 929h80l-113 -138h-59zM456 929h79l-113 -138h-59z" />
    <glyph glyph-name="uhungarumlaut" unicode="&#x171;" 
d="M109.5 35q-40.5 41 -40.5 123v377h100v-350q0 -57 26 -79.5t79 -22.5q74 0 148 47v405h100v-535h-80l-20 58q-100 -64 -195 -64q-77 0 -117.5 41zM255 769h80l-113 -138h-59zM410 769h79l-113 -138h-59z" />
    <glyph glyph-name="Uogonek" unicode="&#x172;" horiz-adv-x="679" 
d="M616 737v-506q0 -110 -49.5 -164t-143.5 -68q-58 -34 -58 -76q0 -28 20 -44t55 -16h8v-49q-16 -2 -28 -2q-51 0 -78.5 25.5t-27.5 63.5q0 29 15.5 53t46.5 41q-12 -1 -37 -1q-135 0 -205.5 52.5t-70.5 184.5v506h101v-505q0 -81 44 -114t131 -33q88 0 132 33t44 114v505
h101z" />
    <glyph glyph-name="uogonek" unicode="&#x173;" 
d="M546 -137v-49q-16 -2 -28 -2q-51 0 -78.5 25.5t-27.5 63.5q0 31 18 56.5t54 42.5h-42l-20 58q-100 -64 -195 -64q-77 0 -117.5 41t-40.5 123v377h100v-350q0 -57 26 -79.5t79 -22.5q74 0 148 47v405h100v-535q-59 -33 -59 -77q0 -28 20 -44t55 -16h8z" />
    <glyph glyph-name="Wcircumflex" unicode="&#x174;" horiz-adv-x="991" 
d="M29 737h104l146 -594l169 594h97l167 -594l147 594h103l-185 -737h-106l-175 594l-176 -594h-106zM479 928h70l107 -137h-60l-84 91l-91 -91h-60z" />
    <glyph glyph-name="wcircumflex" unicode="&#x175;" horiz-adv-x="806" 
d="M17 535h103l117 -442l126 442h85l126 -442l112 442h103l-154 -535h-111l-120 397l-122 -397h-109zM376 768h70l107 -137h-60l-84 91l-91 -91h-60z" />
    <glyph glyph-name="Ycircumflex" unicode="&#x176;" horiz-adv-x="621" 
d="M260 238l-230 499h105l177 -397l178 397h101l-230 -499v-238h-101v238zM280 928h70l107 -137h-60l-84 91l-91 -91h-60z" />
    <glyph glyph-name="ycircumflex" unicode="&#x177;" horiz-adv-x="550" 
d="M286 0q-52 1 -91 32t-58 99l-120 404h105l108 -383q22 -68 75 -68l125 451h103l-184 -673l-48 -99h-80zM237 768h70l107 -137h-60l-84 91l-91 -91h-60z" />
    <glyph glyph-name="Ydieresis" unicode="&#x178;" horiz-adv-x="621" 
d="M260 238l-230 499h105l177 -397l178 397h101l-230 -499v-238h-101v238zM154.5 813q-4.5 5 -4.5 12v84q0 18 17 18h47q17 0 17 -18v-84q0 -8 -4.5 -12.5t-12.5 -4.5h-47q-8 0 -12.5 5zM383 813q-5 5 -5 12v84q0 18 18 18h46q17 0 17 -18v-84q0 -8 -4.5 -12.5t-12.5 -4.5
h-46q-8 0 -13 5z" />
    <glyph glyph-name="Zacute" unicode="&#x179;" horiz-adv-x="564" 
d="M42 81l363 566h-363v90h485v-81l-363 -566h363v-90h-485v81zM352 929h84l-122 -138h-59z" />
    <glyph glyph-name="zacute" unicode="&#x17a;" horiz-adv-x="498" 
d="M49 74l291 379h-299v82h416v-75l-292 -379h292v-81h-408v74zM300 769h84l-122 -138h-59z" />
    <glyph glyph-name="Zdotaccent" unicode="&#x17b;" horiz-adv-x="564" 
d="M42 81l363 566h-363v90h485v-81l-363 -566h363v-90h-485v81zM242.5 820q-4.5 5 -4.5 12v84q0 18 17 18h47q17 0 17 -18v-84q0 -8 -4.5 -12.5t-12.5 -4.5h-47q-8 0 -12.5 5z" />
    <glyph glyph-name="zdotaccent" unicode="&#x17c;" horiz-adv-x="498" 
d="M49 74l291 379h-299v82h416v-75l-292 -379h292v-81h-408v74zM201.5 660q-4.5 5 -4.5 12v84q0 18 17 18h47q17 0 17 -18v-84q0 -8 -4.5 -12.5t-12.5 -4.5h-47q-8 0 -12.5 5z" />
    <glyph glyph-name="Zcaron" unicode="&#x17d;" horiz-adv-x="564" 
d="M42 81l363 566h-363v90h485v-81l-363 -566h363v-90h-485v81zM136 928h60l84 -90l90 90h61l-118 -137h-70z" />
    <glyph glyph-name="zcaron" unicode="&#x17e;" horiz-adv-x="498" 
d="M49 74l291 379h-299v82h416v-75l-292 -379h292v-81h-408v74zM95 768h60l84 -90l90 90h61l-118 -137h-70z" />
    <glyph glyph-name="uni018F" unicode="&#x18f;" horiz-adv-x="615" 
d="M115 72.5q-61 78.5 -61 258.5v69h405q-1 104 -21.5 157.5t-65.5 74.5t-128 21q-73 0 -114 -5.5t-46 -6.5v77q83 25 188 25q102 0 163.5 -28.5t93.5 -108t32 -229.5t-31.5 -234t-88 -116.5t-139.5 -32.5q-126 0 -187 78.5zM384.5 104q33.5 20 52 71.5t20.5 143.5h-302
q1 -88 14.5 -138.5t45 -73.5t86.5 -23q50 0 83.5 20z" />
    <glyph glyph-name="florin" unicode="&#x192;" horiz-adv-x="609" 
d="M60.5 -199.5q-26.5 4.5 -41.5 10.5l11 62h59q35 0 57.5 18t38 59t27.5 115l54 328h-91l11 73h89l23 124q18 109 57.5 159t120.5 50q60 0 102 -15l-10 -62h-60q-36 0 -57.5 -15.5t-34 -48t-22.5 -90.5l-18 -102h122l-12 -73h-119l-51 -305q-17 -105 -41 -168t-62 -93.5
t-97 -30.5q-29 0 -55.5 4.5z" />
    <glyph glyph-name="Ohorn" unicode="&#x1a0;" horiz-adv-x="690" 
d="M616 569.5q20 -76.5 20 -203.5q0 -156 -31.5 -236t-92.5 -108t-167 -28q-105 0 -166 28t-92.5 108t-31.5 236t32 237.5t93 110.5t165 29q51 0 91 -6h66q37 0 57 26t20 86h71q0 -72 -26 -112.5t-71 -51.5q43 -39 63 -115.5zM459 105q40 21 58 81t18 180q0 125 -18 186
t-57.5 81t-114.5 20q-72 0 -111.5 -20.5t-59 -81.5t-19.5 -185q0 -121 17.5 -180.5t57 -80.5t115.5 -21q74 0 114 21z" />
    <glyph glyph-name="ohorn" unicode="&#x1a1;" horiz-adv-x="576" 
d="M532.5 539q-23.5 -40 -63.5 -53q28 -32 41.5 -85t13.5 -133q0 -108 -24.5 -167.5t-75 -83t-136.5 -23.5q-85 0 -136 24t-75.5 83.5t-24.5 166.5q0 110 25 169.5t75.5 82t135.5 22.5q50 0 85 -7h35q37 0 56.5 26t19.5 86h72q0 -68 -23.5 -108zM366.5 89.5q28.5 13.5 43 55
t14.5 124.5t-14.5 124.5t-43 54.5t-78.5 13q-51 0 -78.5 -13t-42 -54.5t-14.5 -124.5q0 -84 14.5 -125.5t42 -54.5t78.5 -13q50 0 78.5 13.5z" />
    <glyph glyph-name="Uhorn" unicode="&#x1af;" horiz-adv-x="679" 
d="M684.5 737.5q-25.5 -40.5 -68.5 -51.5v-455q0 -132 -71 -184.5t-206 -52.5t-205.5 52.5t-70.5 184.5v506h101v-505q0 -81 44 -114t131 -33q88 0 132 33t44 114v505h47q37 0 57 26t20 86h71q0 -71 -25.5 -111.5z" />
    <glyph glyph-name="uhorn" unicode="&#x1b0;" 
d="M590 536.5q-25 -40.5 -68 -52.5v-484h-80l-20 58q-100 -64 -195 -64q-77 0 -117.5 41t-40.5 123v377h100v-350q0 -57 26 -79.5t79 -22.5q74 0 148 47v405h45q37 0 57 26t20 86h71q0 -70 -25 -110.5z" />
    <glyph glyph-name="Gcaron" unicode="&#x1e6;" horiz-adv-x="657" 
d="M145.5 36q-50.5 41 -70.5 122t-20 212q0 130 22 210.5t78 121.5t156 41q121 0 241 -27v-77q-115 14 -224 14q-70 0 -107 -27.5t-51.5 -88t-14.5 -168.5q0 -113 14.5 -173t49 -84.5t99.5 -24.5q77 0 169 33v195h-164v77q65 10 167 10q44 0 94 -4v-398h-75l-15 51
q-41 -22 -95.5 -39t-111.5 -17q-91 0 -141.5 41zM183 928h60l84 -90l90 90h61l-118 -137h-70z" />
    <glyph glyph-name="gcaron" unicode="&#x1e7;" horiz-adv-x="578" 
d="M557 479l-109 -11q27 -20 43.5 -47t16.5 -82q0 -71 -45.5 -117t-145.5 -46h-88q-82 0 -82 -50q0 -21 15.5 -31t37.5 -10h169q93 0 139.5 -36.5t46.5 -114.5v-19q0 -77 -50.5 -119t-148.5 -42h-153q-79 0 -127.5 34t-48.5 97v22q0 42 23.5 73t62.5 48q-25 13 -38.5 34.5
t-13.5 47.5q0 39 23.5 64t66.5 34q-50 22 -71.5 63t-21.5 92q0 173 211 173h288v-57zM392 279.5q24 26.5 24 71.5q0 108 -103 108h-56q-53 0 -80.5 -24t-27.5 -78q0 -104 98 -104h59q62 0 86 26.5zM225 8q-44 0 -73.5 -21t-29.5 -62v-19q0 -80 107 -80h117q54 0 84.5 21
t30.5 63v19q0 38 -25 58.5t-82 20.5h-129zM145 768h60l84 -90l90 90h61l-118 -137h-70z" />
    <glyph glyph-name="uni01EA" unicode="&#x1ea;" horiz-adv-x="690" 
d="M359 -77q0 -28 20 -44t55 -16h8v-49q-16 -2 -28 -2q-51 0 -78.5 25.5t-27.5 63.5q0 59 61 93h-24q-105 0 -166 28t-92.5 108t-31.5 236t32 237.5t93 110.5t165 29q106 0 167 -29t92.5 -110.5t31.5 -237.5q0 -137 -24.5 -215t-72.5 -112.5t-127 -41.5q-53 -33 -53 -74z
M172.5 185.5q17.5 -59.5 57 -80.5t115.5 -21q74 0 114 21t58 81t18 180q0 125 -18 186t-57.5 81t-114.5 20q-72 0 -111.5 -20.5t-59 -81.5t-19.5 -185q0 -121 17.5 -180.5z" />
    <glyph glyph-name="uni01EB" unicode="&#x1eb;" horiz-adv-x="576" 
d="M284 -77q0 -28 20 -44t55 -16h8v-49q-16 -2 -28 -2q-51 0 -78.5 25.5t-27.5 63.5q0 59 61 93h-6q-85 0 -136 24t-75.5 83.5t-24.5 166.5q0 110 25 169.5t75.5 82t135.5 22.5t135.5 -23t75.5 -82.5t25 -168.5q0 -97 -19.5 -154.5t-60.5 -84.5t-108 -33q-52 -32 -52 -73z
M167.5 143.5q14.5 -41.5 42 -54.5t78.5 -13q50 0 78.5 13.5t43 55t14.5 124.5t-14.5 124.5t-43 54.5t-78.5 13q-51 0 -78.5 -13t-42 -54.5t-14.5 -124.5q0 -84 14.5 -125.5z" />
    <glyph glyph-name="Aringacute" unicode="&#x1fa;" horiz-adv-x="678" 
d="M251.5 790q-28.5 25 -28.5 84q0 55 24.5 80.5t74.5 29.5l88 124h84l-113 -128q36 -8 53.5 -33t17.5 -73q0 -60 -27.5 -84.5t-85.5 -24.5q-59 0 -87.5 25zM287 928.5q-16 -15.5 -16 -54.5t16 -54t52 -15q35 0 50 15t15 54t-15 54.5t-50 15.5q-36 0 -52 -15.5zM649 0h-105
l-65 193h-282l-64 -193h-104l246 737h128zM454 284l-116 366l-117 -366h233z" />
    <glyph glyph-name="aringacute" unicode="&#x1fb;" horiz-adv-x="546" 
d="M183.5 616q-28.5 25 -28.5 84q0 55 24.5 80.5t74.5 28.5l84 120h84l-109 -123q36 -8 53.5 -33t17.5 -73q0 -60 -27.5 -84.5t-85.5 -24.5q-59 0 -87.5 25zM219 754.5q-16 -15.5 -16 -54.5t16 -54t52 -15q35 0 50 15t15 54t-15 54.5t-50 15.5q-36 0 -52 -15.5zM431.5 503.5
q48.5 -39.5 48.5 -129.5v-374h-79l-17 60q-9 -8 -42.5 -24t-78 -29t-86.5 -13q-60 0 -98 36t-38 98v42q0 64 43.5 102.5t127.5 38.5h167v56q0 33 -11 53.5t-39.5 31.5t-81.5 11h-164v59q88 20 198 21q102 0 150.5 -39.5zM379 261l-140 -6q-97 -6 -97 -86v-24q0 -41 24 -59.5
t59 -18.5q24 0 58 8.5t63.5 19t32.5 12.5v154z" />
    <glyph glyph-name="AEacute" unicode="&#x1fc;" horiz-adv-x="969" 
d="M520 23.5q-39 27.5 -43 93.5v75h-231l-118 -192h-99l339 585q44 82 101 117t149 35q117 0 297 -11v-82h-278q-38 0 -53.5 -15t-15.5 -48v-169l303 -6v-78l-303 -7v-151q0 -45 22.5 -62.5t67.5 -17.5h257v-82q-172 -12 -280 -12q-76 0 -115 27.5zM477 278v321l-186 -321
h186zM603 929h84l-122 -138h-59z" />
    <glyph glyph-name="aeacute" unicode="&#x1fd;" horiz-adv-x="872" 
d="M78 31.5q-35 37.5 -35 99.5v37q0 63 42.5 100.5t125.5 37.5h170v63q0 45 -28.5 69.5t-94.5 24.5h-173v59q42 10 83 15t100 6q59 0 104 -21.5t64 -61.5q21 43 64.5 62.5t108.5 19.5q73 0 118 -16.5t67 -56t22 -109.5q0 -67 -41 -94t-124 -27h-172q0 -98 42 -133t123 -35
h157v-60q-84 -17 -202 -17q-70 0 -116 29t-70 73q-41 -43 -101.5 -72.5t-129.5 -29.5t-104 37.5zM649 304q38 0 57 12.5t19 45.5q0 57 -28 80t-95 23q-49 0 -75 -13.5t-36.5 -47.5t-11.5 -100h170zM313.5 87q43.5 20 78.5 56q-12 50 -12 111l-151 -6q-44 -1 -64.5 -23
t-20.5 -56v-22q0 -80 81 -80q45 0 88.5 20zM496 769h84l-122 -138h-59z" />
    <glyph glyph-name="Oslashacute" unicode="&#x1fe;" horiz-adv-x="690" 
d="M620.5 547q15.5 -72 15.5 -181q0 -156 -31.5 -236t-92.5 -108t-167 -28q-63 0 -108 8.5t-78 30.5l-22 -33h-70l49 74q-31 42 -46 112.5t-15 179.5q0 156 32 237.5t93 110.5t165 29q63 0 108 -9t78 -31l23 34h70l-50 -75q31 -43 46.5 -115zM178 168l299 452
q-21 19 -52.5 26t-79.5 7q-72 0 -111.5 -20.5t-59 -81.5t-19.5 -185q0 -136 23 -198zM459 105q40 21 58 81t18 180q0 139 -23 201l-298 -451q21 -18 52.5 -25t78.5 -7q74 0 114 21zM417 929h84l-122 -138h-59z" />
    <glyph glyph-name="oslashacute" unicode="&#x1ff;" horiz-adv-x="576" 
d="M480 471q23 -32 33.5 -81t10.5 -122q0 -108 -24.5 -167.5t-75 -83t-136.5 -23.5q-55 0 -95.5 10t-68.5 32l-29 -36h-51l53 65q-23 31 -34 81t-11 122q0 110 25 169.5t75.5 82t135.5 22.5q57 0 97 -9.5t68 -32.5l28 35h51zM166 149l226 277q-16 20 -40.5 27.5t-63.5 7.5
q-51 0 -78.5 -13t-42 -54.5t-14.5 -124.5q0 -80 13 -120zM411 387l-226 -277q15 -20 39.5 -27t63.5 -7q50 0 78.5 13.5t43 55t14.5 124.5q0 78 -13 118zM349 769h84l-122 -138h-59z" />
    <glyph glyph-name="uni0200" unicode="&#x200;" horiz-adv-x="678" 
d="M275 737h128l246 -737h-105l-65 193h-282l-64 -193h-104zM454 284l-116 366l-117 -366h233zM125 929h83l98 -138h-59zM281 929h83l98 -138h-59z" />
    <glyph glyph-name="uni0201" unicode="&#x201;" horiz-adv-x="546" 
d="M79 30q-38 36 -38 98v42q0 64 43.5 102.5t127.5 38.5h167v56q0 33 -11 53.5t-39.5 31.5t-81.5 11h-164v59q88 20 198 21q102 0 150.5 -39.5t48.5 -129.5v-374h-79l-17 60q-9 -8 -42.5 -24t-78 -29t-86.5 -13q-60 0 -98 36zM283 75.5q34 8.5 63.5 19t32.5 12.5v154
l-140 -6q-97 -6 -97 -86v-24q0 -41 24 -59.5t59 -18.5q24 0 58 8.5zM60 769h84l97 -138h-59zM216 769h84l97 -138h-59z" />
    <glyph glyph-name="uni0202" unicode="&#x202;" horiz-adv-x="678" 
d="M275 737h128l246 -737h-105l-65 193h-282l-64 -193h-104zM454 284l-116 366l-117 -366h233zM433 898q36 -35 36 -110h-47q0 51 -24 74.5t-60 23.5q-88 0 -88 -98h-49q0 76 36.5 110.5t98.5 34.5q61 0 97 -35z" />
    <glyph glyph-name="uni0203" unicode="&#x203;" horiz-adv-x="546" 
d="M79 30q-38 36 -38 98v42q0 64 43.5 102.5t127.5 38.5h167v56q0 33 -11 53.5t-39.5 31.5t-81.5 11h-164v59q88 20 198 21q102 0 150.5 -39.5t48.5 -129.5v-374h-79l-17 60q-9 -8 -42.5 -24t-78 -29t-86.5 -13q-60 0 -98 36zM283 75.5q34 8.5 63.5 19t32.5 12.5v154
l-140 -6q-97 -6 -97 -86v-24q0 -41 24 -59.5t59 -18.5q24 0 58 8.5zM366 738q36 -35 36 -110h-47q0 51 -24 74.5t-60 23.5q-88 0 -88 -98h-49q0 76 36.5 110.5t98.5 34.5q61 0 97 -35z" />
    <glyph glyph-name="uni0204" unicode="&#x204;" 
d="M119 26q-46 30 -46 119v438q0 81 44 117.5t106 36.5q119 0 269 -8l45 -2v-83h-284q-79 0 -79 -79v-153l318 -6v-78l-318 -7v-151q0 -47 22 -63.5t59 -16.5h282v-83q-172 -11 -306 -11q-66 0 -112 30zM99 929h83l98 -138h-59zM255 929h83l98 -138h-59z" />
    <glyph glyph-name="uni0205" unicode="&#x205;" horiz-adv-x="540" 
d="M144.5 19q-49.5 25 -71 84t-21.5 165q0 108 21.5 167t70.5 83t136 24q76 0 121 -16t66 -55t21 -108q0 -71 -41 -102.5t-118 -31.5h-177q1 -61 13.5 -94.5t45.5 -48.5t95 -15h167v-60q-55 -8 -97 -12.5t-95 -4.5q-87 0 -136.5 25zM320 292q41 0 59.5 15.5t18.5 54.5
q0 60 -26.5 83t-91.5 23q-51 0 -78.5 -15t-39 -52.5t-11.5 -108.5h169zM60 769h84l97 -138h-59zM216 769h84l97 -138h-59z" />
    <glyph glyph-name="uni0206" unicode="&#x206;" 
d="M119 26q-46 30 -46 119v438q0 81 44 117.5t106 36.5q119 0 269 -8l45 -2v-83h-284q-79 0 -79 -79v-153l318 -6v-78l-318 -7v-151q0 -47 22 -63.5t59 -16.5h282v-83q-172 -11 -306 -11q-66 0 -112 30zM407 898q36 -35 36 -110h-47q0 51 -24 74.5t-60 23.5q-88 0 -88 -98
h-49q0 76 36.5 110.5t98.5 34.5q61 0 97 -35z" />
    <glyph glyph-name="uni0207" unicode="&#x207;" horiz-adv-x="540" 
d="M144.5 19q-49.5 25 -71 84t-21.5 165q0 108 21.5 167t70.5 83t136 24q76 0 121 -16t66 -55t21 -108q0 -71 -41 -102.5t-118 -31.5h-177q1 -61 13.5 -94.5t45.5 -48.5t95 -15h167v-60q-55 -8 -97 -12.5t-95 -4.5q-87 0 -136.5 25zM320 292q41 0 59.5 15.5t18.5 54.5
q0 60 -26.5 83t-91.5 23q-51 0 -78.5 -15t-39 -52.5t-11.5 -108.5h169zM366 738q36 -35 36 -110h-47q0 51 -24 74.5t-60 23.5q-88 0 -88 -98h-49q0 76 36.5 110.5t98.5 34.5q61 0 97 -35z" />
    <glyph glyph-name="uni0208" unicode="&#x208;" horiz-adv-x="247" 
d="M73 737h101v-737h-101v737zM-90 929h83l98 -138h-59zM66 929h83l98 -138h-59z" />
    <glyph glyph-name="uni0209" unicode="&#x209;" horiz-adv-x="238" 
d="M70 535h100v-535h-100v535zM-90 769h84l97 -138h-59zM66 769h84l97 -138h-59z" />
    <glyph glyph-name="uni020A" unicode="&#x20a;" horiz-adv-x="247" 
d="M73 737h101v-737h-101v737zM218 898q36 -35 36 -110h-47q0 51 -24 74.5t-60 23.5q-88 0 -88 -98h-49q0 76 36.5 110.5t98.5 34.5q61 0 97 -35z" />
    <glyph glyph-name="uni020B" unicode="&#x20b;" horiz-adv-x="238" 
d="M70 535h100v-535h-100v535zM216 738q36 -35 36 -110h-47q0 51 -24 74.5t-60 23.5q-88 0 -88 -98h-49q0 76 36.5 110.5t98.5 34.5q61 0 97 -35z" />
    <glyph glyph-name="uni020C" unicode="&#x20c;" horiz-adv-x="690" 
d="M179 22q-61 28 -92.5 108t-31.5 236t32 237.5t93 110.5t165 29q106 0 167 -29t92.5 -110.5t31.5 -237.5t-31.5 -236t-92.5 -108t-167 -28q-105 0 -166 28zM459 105q40 21 58 81t18 180q0 125 -18 186t-57.5 81t-114.5 20q-72 0 -111.5 -20.5t-59 -81.5t-19.5 -185
q0 -121 17.5 -180.5t57 -80.5t115.5 -21q74 0 114 21zM132 929h83l98 -138h-59zM288 929h83l98 -138h-59z" />
    <glyph glyph-name="uni020D" unicode="&#x20d;" horiz-adv-x="576" 
d="M152 18q-51 24 -75.5 83.5t-24.5 166.5q0 110 25 169.5t75.5 82t135.5 22.5t135.5 -23t75.5 -82.5t25 -168.5q0 -108 -24.5 -167.5t-75 -83t-136.5 -23.5q-85 0 -136 24zM366.5 89.5q28.5 13.5 43 55t14.5 124.5t-14.5 124.5t-43 54.5t-78.5 13q-51 0 -78.5 -13
t-42 -54.5t-14.5 -124.5q0 -84 14.5 -125.5t42 -54.5t78.5 -13q50 0 78.5 13.5zM78 769h84l97 -138h-59zM234 769h84l97 -138h-59z" />
    <glyph glyph-name="uni020E" unicode="&#x20e;" horiz-adv-x="690" 
d="M179 22q-61 28 -92.5 108t-31.5 236t32 237.5t93 110.5t165 29q106 0 167 -29t92.5 -110.5t31.5 -237.5t-31.5 -236t-92.5 -108t-167 -28q-105 0 -166 28zM459 105q40 21 58 81t18 180q0 125 -18 186t-57.5 81t-114.5 20q-72 0 -111.5 -20.5t-59 -81.5t-19.5 -185
q0 -121 17.5 -180.5t57 -80.5t115.5 -21q74 0 114 21zM440 898q36 -35 36 -110h-47q0 51 -24 74.5t-60 23.5q-88 0 -88 -98h-49q0 76 36.5 110.5t98.5 34.5q61 0 97 -35z" />
    <glyph glyph-name="uni020F" unicode="&#x20f;" horiz-adv-x="576" 
d="M152 18q-51 24 -75.5 83.5t-24.5 166.5q0 110 25 169.5t75.5 82t135.5 22.5t135.5 -23t75.5 -82.5t25 -168.5q0 -108 -24.5 -167.5t-75 -83t-136.5 -23.5q-85 0 -136 24zM366.5 89.5q28.5 13.5 43 55t14.5 124.5t-14.5 124.5t-43 54.5t-78.5 13q-51 0 -78.5 -13
t-42 -54.5t-14.5 -124.5q0 -84 14.5 -125.5t42 -54.5t78.5 -13q50 0 78.5 13.5zM384 738q36 -35 36 -110h-47q0 51 -24 74.5t-60 23.5q-88 0 -88 -98h-49q0 76 36.5 110.5t98.5 34.5q61 0 97 -35z" />
    <glyph glyph-name="uni0210" unicode="&#x210;" horiz-adv-x="614" 
d="M73 737h295q90 0 143.5 -47.5t53.5 -175.5q0 -103 -37.5 -147t-95.5 -60l147 -307h-102l-136 293l-137 2q-11 1 -30 1v-296h-101v737zM352 374q54 0 83.5 30t29.5 110q0 77 -30 105t-83 28h-178v-273h178zM82 929h83l98 -138h-59zM238 929h83l98 -138h-59z" />
    <glyph glyph-name="uni0211" unicode="&#x211;" horiz-adv-x="416" 
d="M70 535h77l23 -90q38 46 80 71.5t94 25.5q27 0 48 -6v-103q-32 5 -60 5q-49 0 -86 -17.5t-76 -55.5v-365h-100v535zM3 769h84l97 -138h-59zM159 769h84l97 -138h-59z" />
    <glyph glyph-name="uni0212" unicode="&#x212;" horiz-adv-x="614" 
d="M73 737h295q90 0 143.5 -47.5t53.5 -175.5q0 -103 -37.5 -147t-95.5 -60l147 -307h-102l-136 293l-137 2q-11 1 -30 1v-296h-101v737zM352 374q54 0 83.5 30t29.5 110q0 77 -30 105t-83 28h-178v-273h178zM390 898q36 -35 36 -110h-47q0 51 -24 74.5t-60 23.5
q-88 0 -88 -98h-49q0 76 36.5 110.5t98.5 34.5q61 0 97 -35z" />
    <glyph glyph-name="uni0213" unicode="&#x213;" horiz-adv-x="416" 
d="M70 535h77l23 -90q38 46 80 71.5t94 25.5q27 0 48 -6v-103q-32 5 -60 5q-49 0 -86 -17.5t-76 -55.5v-365h-100v535zM310 738q36 -35 36 -110h-47q0 51 -24 74.5t-60 23.5q-88 0 -88 -98h-49q0 76 36.5 110.5t98.5 34.5q61 0 97 -35z" />
    <glyph glyph-name="uni0214" unicode="&#x214;" horiz-adv-x="679" 
d="M133.5 46.5q-70.5 52.5 -70.5 184.5v506h101v-505q0 -81 44 -114t131 -33q88 0 132 33t44 114v505h101v-506q0 -132 -71 -184.5t-206 -52.5t-205.5 52.5zM121 929h83l98 -138h-59zM277 929h83l98 -138h-59z" />
    <glyph glyph-name="uni0215" unicode="&#x215;" 
d="M109.5 35q-40.5 41 -40.5 123v377h100v-350q0 -57 26 -79.5t79 -22.5q74 0 148 47v405h100v-535h-80l-20 58q-100 -64 -195 -64q-77 0 -117.5 41zM78 769h84l97 -138h-59zM234 769h84l97 -138h-59z" />
    <glyph glyph-name="uni0216" unicode="&#x216;" horiz-adv-x="679" 
d="M133.5 46.5q-70.5 52.5 -70.5 184.5v506h101v-505q0 -81 44 -114t131 -33q88 0 132 33t44 114v505h101v-506q0 -132 -71 -184.5t-206 -52.5t-205.5 52.5zM429 898q36 -35 36 -110h-47q0 51 -24 74.5t-60 23.5q-88 0 -88 -98h-49q0 76 36.5 110.5t98.5 34.5q61 0 97 -35z
" />
    <glyph glyph-name="uni0217" unicode="&#x217;" 
d="M109.5 35q-40.5 41 -40.5 123v377h100v-350q0 -57 26 -79.5t79 -22.5q74 0 148 47v405h100v-535h-80l-20 58q-100 -64 -195 -64q-77 0 -117.5 41zM384 738q36 -35 36 -110h-47q0 51 -24 74.5t-60 23.5q-88 0 -88 -98h-49q0 76 36.5 110.5t98.5 34.5q61 0 97 -35z" />
    <glyph glyph-name="Scommaaccent" unicode="&#x218;" horiz-adv-x="582" 
d="M167.5 -0.5q-67.5 5.5 -106.5 14.5v78q83 -8 221 -8q71 0 110 21.5t39 78.5v43q0 93 -99 93h-75q-99 0 -150 43.5t-51 142.5v41q0 102 55.5 149t165.5 47q48 0 110 -7t106 -15v-78l-21 1q-128 9 -184 9q-68 0 -102 -24t-34 -87v-30q0 -52 27.5 -74t82.5 -22h81
q90 0 137 -48.5t47 -128.5v-52q0 -109 -63 -151t-178 -42q-51 0 -118.5 5.5zM201 -165l29 5q25 5 38 12.5t19 26t6 55.5h62q0 -53 -9.5 -82.5t-34 -43.5t-68.5 -14h-42v41z" />
    <glyph glyph-name="scommaaccent" unicode="&#x219;" horiz-adv-x="501" 
d="M142.5 -1.5q-64.5 4.5 -91.5 12.5v60h225q48 0 71 13.5t23 54.5v22q0 64 -86 64h-78q-77 0 -119 31.5t-42 104.5v29q0 77 45.5 113.5t150.5 36.5q44 0 103 -5.5t91 -12.5v-60h-212q-47 0 -69 -16t-22 -56v-20q0 -38 21.5 -50t69.5 -12h80q75 0 114.5 -35t39.5 -100v-41
q0 -77 -50.5 -107.5t-149.5 -30.5q-50 0 -114.5 4.5zM158 -165l29 5q25 5 38 12.5t19 26t6 55.5h62q0 -53 -9.5 -82.5t-34 -43.5t-68.5 -14h-42v41z" />
    <glyph glyph-name="uni021A" unicode="&#x21a;" horiz-adv-x="573" 
d="M236 647h-220v90h541v-90h-220v-647h-101v647zM168 -165l29 5q25 5 38 12.5t19 26t6 55.5h62q0 -53 -9.5 -82.5t-34 -43.5t-68.5 -14h-42v41z" />
    <glyph glyph-name="uni021B" unicode="&#x21b;" horiz-adv-x="374" 
d="M134 41q-38 41 -36 137l4 275h-85v65l87 17l15 150h79v-150h145v-82h-145v-274q0 -54 20.5 -75t51.5 -24l66 -6v-74h-81q-83 0 -121 41zM104 -165l29 5q25 5 38 12.5t19 26t6 55.5h62q0 -53 -9.5 -82.5t-34 -43.5t-68.5 -14h-42v41z" />
    <glyph glyph-name="uni022A" unicode="&#x22a;" horiz-adv-x="690" 
d="M179 22q-61 28 -92.5 108t-31.5 236t32 237.5t93 110.5t165 29q106 0 167 -29t92.5 -110.5t31.5 -237.5t-31.5 -236t-92.5 -108t-167 -28q-105 0 -166 28zM459 105q40 21 58 81t18 180q0 125 -18 186t-57.5 81t-114.5 20q-72 0 -111.5 -20.5t-59 -81.5t-19.5 -185
q0 -121 17.5 -180.5t57 -80.5t115.5 -21q74 0 114 21zM198.5 813q-4.5 5 -4.5 12v84q0 18 17 18h47q17 0 17 -18v-84q0 -8 -4.5 -12.5t-12.5 -4.5h-47q-8 0 -12.5 5zM427 813q-5 5 -5 12v84q0 18 18 18h46q17 0 17 -18v-84q0 -8 -4.5 -12.5t-12.5 -4.5h-46q-8 0 -13 5z
M215 1057h270v-60h-270v60z" />
    <glyph glyph-name="uni022B" unicode="&#x22b;" horiz-adv-x="576" 
d="M152 18q-51 24 -75.5 83.5t-24.5 166.5q0 110 25 169.5t75.5 82t135.5 22.5t135.5 -23t75.5 -82.5t25 -168.5q0 -108 -24.5 -167.5t-75 -83t-136.5 -23.5q-85 0 -136 24zM366.5 89.5q28.5 13.5 43 55t14.5 124.5t-14.5 124.5t-43 54.5t-78.5 13q-51 0 -78.5 -13
t-42 -54.5t-14.5 -124.5q0 -84 14.5 -125.5t42 -54.5t78.5 -13q50 0 78.5 13.5zM152 653q-5 5 -5 12v84q0 18 18 18h46q17 0 17 -18v-84q0 -17 -17 -17h-46q-8 0 -13 5zM347.5 653q-4.5 5 -4.5 12v84q0 18 17 18h47q17 0 17 -18v-84q0 -8 -4.5 -12.5t-12.5 -4.5h-47
q-8 0 -12.5 5zM150 897h270v-60h-270v60z" />
    <glyph glyph-name="uni022C" unicode="&#x22c;" horiz-adv-x="690" 
d="M179 22q-61 28 -92.5 108t-31.5 236t32 237.5t93 110.5t165 29q106 0 167 -29t92.5 -110.5t31.5 -237.5t-31.5 -236t-92.5 -108t-167 -28q-105 0 -166 28zM459 105q40 21 58 81t18 180q0 125 -18 186t-57.5 81t-114.5 20q-72 0 -111.5 -20.5t-59 -81.5t-19.5 -185
q0 -121 17.5 -180.5t57 -80.5t115.5 -21q74 0 114 21zM220 1043h270v-60h-270v60zM199 887.5q28 27.5 68 27.5q23 0 43 -8t45 -23q22 -13 36 -19t29 -6q25 0 39.5 15.5t15.5 44.5h51q-1 -56 -27 -86.5t-72 -30.5q-22 0 -41.5 8t-44.5 23q-21 13 -36.5 19.5t-30.5 6.5
q-23 0 -38 -15t-16 -43h-51q2 59 30 86.5z" />
    <glyph glyph-name="uni022D" unicode="&#x22d;" horiz-adv-x="576" 
d="M152 18q-51 24 -75.5 83.5t-24.5 166.5q0 110 25 169.5t75.5 82t135.5 22.5t135.5 -23t75.5 -82.5t25 -168.5q0 -108 -24.5 -167.5t-75 -83t-136.5 -23.5q-85 0 -136 24zM366.5 89.5q28.5 13.5 43 55t14.5 124.5t-14.5 124.5t-43 54.5t-78.5 13q-51 0 -78.5 -13
t-42 -54.5t-14.5 -124.5q0 -84 14.5 -125.5t42 -54.5t78.5 -13q50 0 78.5 13.5zM150 897h270v-60h-270v60zM137 727.5q28 27.5 68 27.5q23 0 43 -8t45 -23q22 -13 36 -19t29 -6q25 0 39.5 15.5t15.5 44.5h51q-1 -56 -27 -86.5t-72 -30.5q-22 0 -41.5 8t-44.5 23
q-21 13 -36.5 19.5t-30.5 6.5q-23 0 -38 -15t-16 -43h-51q2 59 30 86.5z" />
    <glyph glyph-name="uni0230" unicode="&#x230;" horiz-adv-x="690" 
d="M179 22q-61 28 -92.5 108t-31.5 236t32 237.5t93 110.5t165 29q106 0 167 -29t92.5 -110.5t31.5 -237.5t-31.5 -236t-92.5 -108t-167 -28q-105 0 -166 28zM459 105q40 21 58 81t18 180q0 125 -18 186t-57.5 81t-114.5 20q-72 0 -111.5 -20.5t-59 -81.5t-19.5 -185
q0 -121 17.5 -180.5t57 -80.5t115.5 -21q74 0 114 21zM307.5 820q-4.5 5 -4.5 12v84q0 18 17 18h47q17 0 17 -18v-84q0 -8 -4.5 -12.5t-12.5 -4.5h-47q-8 0 -12.5 5zM204 1051h270v-60h-270v60z" />
    <glyph glyph-name="uni0231" unicode="&#x231;" horiz-adv-x="576" 
d="M152 18q-51 24 -75.5 83.5t-24.5 166.5q0 110 25 169.5t75.5 82t135.5 22.5t135.5 -23t75.5 -82.5t25 -168.5q0 -108 -24.5 -167.5t-75 -83t-136.5 -23.5q-85 0 -136 24zM366.5 89.5q28.5 13.5 43 55t14.5 124.5t-14.5 124.5t-43 54.5t-78.5 13q-51 0 -78.5 -13
t-42 -54.5t-14.5 -124.5q0 -84 14.5 -125.5t42 -54.5t78.5 -13q50 0 78.5 13.5zM250.5 660q-4.5 5 -4.5 12v84q0 18 17 18h47q17 0 17 -18v-84q0 -8 -4.5 -12.5t-12.5 -4.5h-47q-8 0 -12.5 5zM150 891h270v-60h-270v60z" />
    <glyph glyph-name="uni0232" unicode="&#x232;" horiz-adv-x="621" 
d="M260 238l-230 499h105l177 -397l178 397h101l-230 -499v-238h-101v238zM171 884h270v-60h-270v60z" />
    <glyph glyph-name="uni0233" unicode="&#x233;" horiz-adv-x="550" 
d="M286 0q-52 1 -91 32t-58 99l-120 404h105l108 -383q22 -68 75 -68l125 451h103l-184 -673l-48 -99h-80zM131 724h270v-60h-270v60z" />
    <glyph glyph-name="uni0237" unicode="&#x237;" horiz-adv-x="240" 
d="M70 535h100v-522q0 -68 -7 -135.5t-18 -114.5h-75v772z" />
    <glyph glyph-name="uni0259" unicode="&#x259;" horiz-adv-x="540" 
d="M395.5 517q49.5 -25 71 -84t21.5 -165q0 -108 -21.5 -167t-70.5 -83t-136 -24q-76 0 -121 16t-66 55t-21 108q0 71 41 102.5t118 31.5h177q-1 61 -13.5 94.5t-45.5 48.5t-95 15h-167v60q55 8 97 12.5t95 4.5q87 0 136.5 -25zM220 244q-41 0 -59.5 -15.5t-18.5 -54.5
q0 -60 26.5 -83t91.5 -23q51 0 78.5 15t39 52.5t11.5 108.5h-169z" />
    <glyph glyph-name="uni02B9" unicode="&#x2b9;" horiz-adv-x="147" 
d="M126 763l-33 -306h-70l11 306h92z" />
    <glyph glyph-name="uni02BA" unicode="&#x2ba;" horiz-adv-x="290" 
d="M126 763l-33 -306h-70l11 306h92zM269 763l-33 -306h-70l11 306h92z" />
    <glyph glyph-name="uni02BB" unicode="&#x2bb;" horiz-adv-x="178" 
d="M119 746q9 -2 12 -3v-31q-12 0 -17.5 -4t-5.5 -14v-34h9q8 0 12.5 -5t4.5 -14v-76q0 -20 -17 -20h-56q-17 0 -17 20v126q0 57 55 57q11 0 20 -2z" />
    <glyph glyph-name="uni02BC" unicode="&#x2bc;" horiz-adv-x="205" 
d="M52 518v36q25 0 25 24v44h-9q-8 0 -13.5 5.5t-5.5 14.5v86q0 21 19 21h61q16 0 16 -21v-146q0 -38 -21 -52.5t-48 -14.5q-13 0 -24 3z" />
    <glyph glyph-name="uni02BE" unicode="&#x2be;" horiz-adv-x="201" 
d="M25 630q47 0 68 15.5t21 51.5q0 37 -21 52.5t-68 15.5v45q74 0 110.5 -26t36.5 -87t-36 -86t-111 -25v44z" />
    <glyph glyph-name="uni02BF" unicode="&#x2bf;" horiz-adv-x="201" 
d="M66 611q-36 25 -36 86t36 87t110 26v-45q-47 0 -68 -15.5t-21 -52.5q0 -36 21 -51.5t68 -15.5v-44q-74 0 -110 25z" />
    <glyph glyph-name="circumflex" unicode="&#x2c6;" horiz-adv-x="394" 
d="M168 768h70l107 -137h-60l-84 91l-91 -91h-60z" />
    <glyph glyph-name="caron" unicode="&#x2c7;" horiz-adv-x="394" 
d="M50 768h60l84 -90l90 90h61l-118 -137h-70z" />
    <glyph glyph-name="uni02C8" unicode="&#x2c8;" horiz-adv-x="141" 
d="M111 763v-260h-81v260h81z" />
    <glyph glyph-name="uni02C9" unicode="&#x2c9;" horiz-adv-x="328" 
d="M29 724h270v-60h-270v60z" />
    <glyph glyph-name="uni02CA" unicode="&#x2ca;" horiz-adv-x="222" 
d="M117 769h84l-122 -138h-59z" />
    <glyph glyph-name="uni02CB" unicode="&#x2cb;" horiz-adv-x="222" 
d="M20 769h83l98 -138h-59z" />
    <glyph glyph-name="uni02CC" unicode="&#x2cc;" horiz-adv-x="141" 
d="M111 23v-260h-81v260h81z" />
    <glyph glyph-name="breve" unicode="&#x2d8;" horiz-adv-x="355" 
d="M81 662q-36 35 -36 110h47q0 -50 24 -74t60 -24q88 0 88 98h49q0 -76 -36.5 -110.5t-98.5 -34.5q-61 0 -97 35z" />
    <glyph glyph-name="dotaccent" unicode="&#x2d9;" horiz-adv-x="180" 
d="M52 653q-5 5 -5 12v84q0 18 17 18h47q17 0 17 -18v-84q0 -8 -4.5 -12.5t-12.5 -4.5h-47q-7 0 -12 5z" />
    <glyph glyph-name="ring" unicode="&#x2da;" horiz-adv-x="329" 
d="M78.5 616q-28.5 25 -28.5 84t28.5 84.5t87.5 25.5q58 0 85.5 -25t27.5 -85t-27.5 -84.5t-85.5 -24.5q-59 0 -87.5 25zM216 646q15 15 15 54t-15 54.5t-50 15.5q-36 0 -52 -15.5t-16 -54.5t16 -54t52 -15q35 0 50 15z" />
    <glyph glyph-name="ogonek" unicode="&#x2db;" horiz-adv-x="231" 
d="M75.5 -162.5q-27.5 25.5 -27.5 63.5q0 31 18 56.5t54 42.5h38q-59 -33 -59 -77q0 -28 20 -44t55 -16h8v-49q-16 -2 -28 -2q-51 0 -78.5 25.5z" />
    <glyph glyph-name="tilde" unicode="&#x2dc;" horiz-adv-x="442" 
d="M75 727.5q28 27.5 68 27.5q23 0 43 -8t45 -23q22 -13 36 -19t29 -6q25 0 39.5 15.5t15.5 44.5h51q-1 -56 -27 -86.5t-72 -30.5q-22 0 -41.5 8t-44.5 23q-21 13 -36.5 19.5t-30.5 6.5q-23 0 -38 -15t-16 -43h-51q2 59 30 86.5z" />
    <glyph glyph-name="hungarumlaut" unicode="&#x2dd;" horiz-adv-x="378" 
d="M112 769h80l-113 -138h-59zM267 769h79l-113 -138h-59z" />
    <glyph glyph-name="gravecomb" unicode="&#x300;" horiz-adv-x="0" 
d="M-400 769h83l98 -138h-59z" />
    <glyph glyph-name="acutecomb" unicode="&#x301;" horiz-adv-x="0" 
d="M-208 769h84l-122 -138h-59z" />
    <glyph glyph-name="uni0302" unicode="&#x302;" horiz-adv-x="0" 
d="M-301 768h70l107 -137h-60l-84 91l-91 -91h-60z" />
    <glyph glyph-name="tildecomb" unicode="&#x303;" horiz-adv-x="0" 
d="M-420 727.5q28 27.5 68 27.5q23 0 43 -8t45 -23q22 -13 36 -19t29 -6q25 0 39.5 15.5t15.5 44.5h51q-1 -56 -27 -86.5t-72 -30.5q-22 0 -41.5 8t-44.5 23q-21 13 -36.5 19.5t-30.5 6.5q-23 0 -38 -15t-16 -43h-51q2 59 30 86.5z" />
    <glyph glyph-name="uni0304" unicode="&#x304;" horiz-adv-x="0" 
d="M-407 724h270v-60h-270v60z" />
    <glyph glyph-name="uni0306" unicode="&#x306;" horiz-adv-x="0" 
d="M-373 662q-36 35 -36 110h47q0 -50 24 -74t60 -24q88 0 88 98h49q0 -76 -36.5 -110.5t-98.5 -34.5q-61 0 -97 35z" />
    <glyph glyph-name="uni0307" unicode="&#x307;" horiz-adv-x="0" 
d="M-306.5 660q-4.5 5 -4.5 12v84q0 18 17 18h47q17 0 17 -18v-84q0 -8 -4.5 -12.5t-12.5 -4.5h-47q-8 0 -12.5 5z" />
    <glyph glyph-name="uni0308" unicode="&#x308;" horiz-adv-x="0" 
d="M-405 653q-5 5 -5 12v84q0 18 18 18h46q17 0 17 -18v-84q0 -17 -17 -17h-46q-8 0 -13 5zM-209.5 653q-4.5 5 -4.5 12v84q0 18 17 18h47q17 0 17 -18v-84q0 -8 -4.5 -12.5t-12.5 -4.5h-47q-8 0 -12.5 5z" />
    <glyph glyph-name="hookabovecomb" unicode="&#x309;" horiz-adv-x="0" 
d="M-331 646q27 8 39 22t12 31q0 19 -10 29t-34 10q-18 0 -34 -6v41q20 7 47 7q42 0 63.5 -20.5t21.5 -57.5q0 -72 -105 -102v46z" />
    <glyph glyph-name="uni030A" unicode="&#x30a;" horiz-adv-x="0" 
d="M-355.5 616q-28.5 25 -28.5 84t28.5 84.5t87.5 25.5q58 0 85.5 -25t27.5 -85t-27.5 -84.5t-85.5 -24.5q-59 0 -87.5 25zM-218 646q15 15 15 54t-15 54.5t-50 15.5q-36 0 -52 -15.5t-16 -54.5t16 -54t52 -15q35 0 50 15z" />
    <glyph glyph-name="uni030B" unicode="&#x30b;" horiz-adv-x="0" 
d="M-302 769h80l-113 -138h-59zM-147 769h79l-113 -138h-59z" />
    <glyph glyph-name="uni030C" unicode="&#x30c;" horiz-adv-x="0" 
d="M-413 768h60l84 -90l90 90h61l-118 -137h-70z" />
    <glyph glyph-name="uni030F" unicode="&#x30f;" horiz-adv-x="0" 
d="M-502 769h84l97 -138h-59zM-346 769h84l97 -138h-59z" />
    <glyph glyph-name="uni0311" unicode="&#x311;" horiz-adv-x="0" 
d="M-173 738q36 -35 36 -110h-47q0 51 -24 74.5t-60 23.5q-88 0 -88 -98h-49q0 76 36.5 110.5t98.5 34.5q61 0 97 -35z" />
    <glyph glyph-name="uni0312" unicode="&#x312;" horiz-adv-x="0" 
d="M-374.5 699q9.5 30 34 44t68.5 14h42v-41l-29 -6q-25 -5 -38 -12t-19 -26t-6 -56h-62q0 53 9.5 83z" />
    <glyph glyph-name="uni031B" unicode="&#x31b;" horiz-adv-x="0" 
d="M-260 535h89q37 0 56.5 26t19.5 86h72q0 -85 -36 -126.5t-95 -41.5h-106v56z" />
    <glyph glyph-name="dotbelowcomb" unicode="&#x323;" horiz-adv-x="0" 
d="M-306.5 -210.5q-4.5 4.5 -4.5 12.5v84q0 18 17 18h47q17 0 17 -18v-84q0 -8 -4.5 -12.5t-12.5 -4.5h-47q-8 0 -12.5 4.5z" />
    <glyph glyph-name="uni0324" unicode="&#x324;" horiz-adv-x="0" 
d="M-425 -197q-5 5 -5 12v84q0 18 18 18h46q17 0 17 -18v-84q0 -8 -4.5 -12.5t-12.5 -4.5h-46q-8 0 -13 5zM-196.5 -197.5q-4.5 4.5 -4.5 12.5v84q0 18 17 18h47q17 0 17 -18v-84q0 -8 -4.5 -12.5t-12.5 -4.5h-47q-8 0 -12.5 4.5z" />
    <glyph glyph-name="uni0326" unicode="&#x326;" horiz-adv-x="0" 
d="M-393 -165l29 5q25 5 38 12.5t19 26t6 55.5h62q0 -53 -9.5 -82.5t-34 -43.5t-68.5 -14h-42v41z" />
    <glyph glyph-name="uni0327" unicode="&#x327;" horiz-adv-x="0" 
d="M-203 -118q0 -36 -25.5 -55t-73.5 -19h-38v41l21 2q51 6 51 42q0 38 -60 42l52 80h46l-44 -68q71 -6 71 -65z" />
    <glyph glyph-name="uni0328" unicode="&#x328;" horiz-adv-x="0" 
d="M-324.5 -162.5q-27.5 25.5 -27.5 63.5q0 31 18 56.5t54 42.5h38q-59 -33 -59 -77q0 -28 20 -44t55 -16h8v-49q-16 -2 -28 -2q-51 0 -78.5 25.5z" />
    <glyph glyph-name="uni032E" unicode="&#x32e;" horiz-adv-x="0" 
d="M-368 -188q-36 35 -36 110h47q0 -51 23.5 -74.5t60.5 -23.5q88 0 88 98h49q0 -76 -36.5 -110.5t-98.5 -34.5q-61 0 -97 35z" />
    <glyph glyph-name="uni0331" unicode="&#x331;" horiz-adv-x="0" 
d="M-406 -136h270v-60h-270v60z" />
    <glyph glyph-name="uni0335" unicode="&#x335;" horiz-adv-x="0" 
d="M-312 332h285v-48h-285v48z" />
    <glyph glyph-name="uni03A9" unicode="&#x3a9;" horiz-adv-x="774" 
d="M631.5 645.5q77.5 -93.5 77.5 -252.5q0 -88 -39 -167t-111 -138l165 -9v-79h-265v88q76 58 112.5 135t36.5 162q0 119 -52 191.5t-169 72.5q-118 0 -171 -71.5t-53 -190.5q0 -92 36 -160.5t119 -138.5v-88h-265v80l165 9q-155 117 -155 308q0 93 31.5 170t103.5 124.5
t189 47.5q167 0 244.5 -93.5z" />
    <glyph glyph-name="uni03BC" unicode="&#x3bc;" 
d="M522 535v-535h-80l-16 58q-71 -64 -166 -64q-49 0 -91 20v-283h-100v804h100v-350q0 -56 27 -79t78 -23q42 0 76.5 11.5t71.5 35.5v405h100z" />
    <glyph glyph-name="pi" unicode="&#x3c0;" horiz-adv-x="624" 
d="M560 535v-92h-102v-300q0 -38 14 -53.5t45 -15.5h51v-59q-36 -21 -87 -21q-62 0 -92.5 35t-30.5 110v304h-144v-443h-101v443h-93v92h540z" />
    <glyph glyph-name="uni1E02" unicode="&#x1e02;" horiz-adv-x="611" 
d="M73 737h274q196 0 196 -190q0 -66 -28.5 -109t-74.5 -55q51 -13 90 -57t39 -122q0 -111 -53 -157.5t-158 -46.5h-285v737zM350 417q44 0 70.5 33t26.5 89q0 108 -101 108h-172v-230h176zM355 90q57 0 87.5 29.5t30.5 101.5q0 55 -33.5 86.5t-84.5 31.5h-181v-249h181z
M255.5 820q-4.5 5 -4.5 12v84q0 18 17 18h47q17 0 17 -18v-84q0 -8 -4.5 -12.5t-12.5 -4.5h-47q-8 0 -12.5 5z" />
    <glyph glyph-name="uni1E03" unicode="&#x1e03;" horiz-adv-x="580" 
d="M170 53l-18 -53h-82v763h100v-273q39 22 84.5 37t82.5 15q100 0 145.5 -64.5t45.5 -214.5q0 -132 -45 -200.5t-141 -68.5q-91 0 -172 59zM428 268q0 78 -15.5 120t-41.5 57t-64 15q-37 0 -69.5 -10.5t-67.5 -29.5v-305q33 -17 65.5 -27.5t71.5 -10.5q121 0 121 191z
M82.5 860q-4.5 5 -4.5 12v84q0 18 17 18h47q17 0 17 -18v-84q0 -8 -4.5 -12.5t-12.5 -4.5h-47q-8 0 -12.5 5z" />
    <glyph glyph-name="uni1E08" unicode="&#x1e08;" horiz-adv-x="582" 
d="M355 791h-59l97 138h84zM229.5 630.5q-38.5 -22.5 -56.5 -83t-18 -177.5q0 -120 17 -180.5t55 -83t111 -22.5q121 0 201 12v-77q-80 -20 -178 -24l-31 -48q71 -6 71 -65q0 -36 -25.5 -55t-73.5 -19h-38v41l21 2q51 6 51 42q0 38 -60 42l38 59q-94 1 -148.5 30.5
t-82.5 111t-28 235.5q0 147 29 228t86 112.5t151 31.5q52 0 112 -8.5t106 -20.5v-76q-32 5 -88 10t-112 5q-71 0 -109.5 -22.5z" />
    <glyph glyph-name="uni1E09" unicode="&#x1e09;" horiz-adv-x="490" 
d="M293 631h-59l97 138h84zM296 -6l-31 -47q71 -6 71 -65q0 -36 -25.5 -55t-73.5 -19h-38v41l21 2q51 6 51 42q0 38 -60 42l39 59q-95 5 -146.5 66t-51.5 206q0 107 26 167t73.5 84t120.5 24q101 0 179 -17v-59h-151q-53 0 -84 -16.5t-47 -60t-16 -123.5q0 -78 16.5 -120
t48 -58t83.5 -16h158v-57q-71 -17 -163 -20z" />
    <glyph glyph-name="uni1E0A" unicode="&#x1e0a;" horiz-adv-x="673" 
d="M73 737h298q133 0 190 -93t57 -276q0 -179 -62.5 -273.5t-184.5 -94.5h-298v737zM362 90q155 0 155 278q0 105 -16.5 166t-50 87t-88.5 26h-188v-557h188zM283.5 820q-4.5 5 -4.5 12v84q0 18 17 18h47q17 0 17 -18v-84q0 -8 -4.5 -12.5t-12.5 -4.5h-47q-8 0 -12.5 5z" />
    <glyph glyph-name="uni1E0B" unicode="&#x1e0b;" horiz-adv-x="577" 
d="M99 58.5q-47 64.5 -47 204.5q0 101 19.5 161.5t63.5 89t119 28.5q69 0 156 -29v250h100v-763h-82l-18 53q-25 -22 -74.5 -40.5t-91.5 -18.5q-98 0 -145 64.5zM410 116v325q-6 2 -32 9.5t-49 11t-45 3.5q-49 0 -77 -17.5t-41 -60t-13 -119.5q0 -72 12 -113.5t39 -60
t72 -18.5q62 0 134 40zM422.5 860q-4.5 5 -4.5 12v84q0 18 17 18h47q17 0 17 -18v-84q0 -8 -4.5 -12.5t-12.5 -4.5h-47q-8 0 -12.5 5z" />
    <glyph glyph-name="uni1E0C" unicode="&#x1e0c;" horiz-adv-x="673" 
d="M73 737h298q133 0 190 -93t57 -276q0 -179 -62.5 -273.5t-184.5 -94.5h-298v737zM362 90q155 0 155 278q0 105 -16.5 166t-50 87t-88.5 26h-188v-557h188zM263.5 -210.5q-4.5 4.5 -4.5 12.5v84q0 18 17 18h47q17 0 17 -18v-84q0 -8 -4.5 -12.5t-12.5 -4.5h-47
q-8 0 -12.5 4.5z" />
    <glyph glyph-name="uni1E0D" unicode="&#x1e0d;" horiz-adv-x="577" 
d="M99 58.5q-47 64.5 -47 204.5q0 101 19.5 161.5t63.5 89t119 28.5q69 0 156 -29v250h100v-763h-82l-18 53q-25 -22 -74.5 -40.5t-91.5 -18.5q-98 0 -145 64.5zM410 116v325q-6 2 -32 9.5t-49 11t-45 3.5q-49 0 -77 -17.5t-41 -60t-13 -119.5q0 -72 12 -113.5t39 -60
t72 -18.5q62 0 134 40zM246.5 -210.5q-4.5 4.5 -4.5 12.5v84q0 18 17 18h47q17 0 17 -18v-84q0 -8 -4.5 -12.5t-12.5 -4.5h-47q-8 0 -12.5 4.5z" />
    <glyph glyph-name="uni1E0E" unicode="&#x1e0e;" horiz-adv-x="673" 
d="M73 737h298q133 0 190 -93t57 -276q0 -179 -62.5 -273.5t-184.5 -94.5h-298v737zM362 90q155 0 155 278q0 105 -16.5 166t-50 87t-88.5 26h-188v-557h188zM164 -136h270v-60h-270v60z" />
    <glyph glyph-name="uni1E0F" unicode="&#x1e0f;" horiz-adv-x="577" 
d="M99 58.5q-47 64.5 -47 204.5q0 101 19.5 161.5t63.5 89t119 28.5q69 0 156 -29v250h100v-763h-82l-18 53q-25 -22 -74.5 -40.5t-91.5 -18.5q-98 0 -145 64.5zM410 116v325q-6 2 -32 9.5t-49 11t-45 3.5q-49 0 -77 -17.5t-41 -60t-13 -119.5q0 -72 12 -113.5t39 -60
t72 -18.5q62 0 134 40zM149 -136h270v-60h-270v60z" />
    <glyph glyph-name="uni1E14" unicode="&#x1e14;" 
d="M119 26q-46 30 -46 119v438q0 81 44 117.5t106 36.5q119 0 269 -8l45 -2v-83h-284q-79 0 -79 -79v-153l318 -6v-78l-318 -7v-151q0 -47 22 -63.5t59 -16.5h282v-83q-172 -11 -306 -11q-66 0 -112 30zM171 884h270v-60h-270v60zM156 1063h83l98 -138h-59z" />
    <glyph glyph-name="uni1E15" unicode="&#x1e15;" horiz-adv-x="540" 
d="M144.5 19q-49.5 25 -71 84t-21.5 165q0 108 21.5 167t70.5 83t136 24q76 0 121 -16t66 -55t21 -108q0 -71 -41 -102.5t-118 -31.5h-177q1 -61 13.5 -94.5t45.5 -48.5t95 -15h167v-60q-55 -8 -97 -12.5t-95 -4.5q-87 0 -136.5 25zM320 292q41 0 59.5 15.5t18.5 54.5
q0 60 -26.5 83t-91.5 23q-51 0 -78.5 -15t-39 -52.5t-11.5 -108.5h169zM132 724h270v-60h-270v60zM126 898h83l98 -138h-59z" />
    <glyph glyph-name="uni1E16" unicode="&#x1e16;" 
d="M119 26q-46 30 -46 119v438q0 81 44 117.5t106 36.5q119 0 269 -8l45 -2v-83h-284q-79 0 -79 -79v-153l318 -6v-78l-318 -7v-151q0 -47 22 -63.5t59 -16.5h282v-83q-172 -11 -306 -11q-66 0 -112 30zM171 884h270v-60h-270v60zM378 1063h84l-122 -138h-59z" />
    <glyph glyph-name="uni1E17" unicode="&#x1e17;" horiz-adv-x="540" 
d="M144.5 19q-49.5 25 -71 84t-21.5 165q0 108 21.5 167t70.5 83t136 24q76 0 121 -16t66 -55t21 -108q0 -71 -41 -102.5t-118 -31.5h-177q1 -61 13.5 -94.5t45.5 -48.5t95 -15h167v-60q-55 -8 -97 -12.5t-95 -4.5q-87 0 -136.5 25zM320 292q41 0 59.5 15.5t18.5 54.5
q0 60 -26.5 83t-91.5 23q-51 0 -78.5 -15t-39 -52.5t-11.5 -108.5h169zM132 724h270v-60h-270v60zM327 898h84l-122 -138h-59z" />
    <glyph glyph-name="uni1E1C" unicode="&#x1e1c;" 
d="M208 822q-36 35 -36 110h47q0 -50 24 -74t60 -24q88 0 88 98h49q0 -76 -36.5 -110.5t-98.5 -34.5q-61 0 -97 35zM174 565v-153l318 -6v-78l-318 -7v-151q0 -47 22 -63.5t59 -16.5h282v-83q-83 -6 -185 -9l-33 -51q71 -6 71 -65q0 -36 -25.5 -55t-73.5 -19h-38v41l21 2
q51 6 51 42q0 38 -60 42l40 62l-74 -1q-66 0 -112 30t-46 119v438q0 81 44 117.5t106 36.5q119 0 269 -8l45 -2v-83h-284q-79 0 -79 -79z" />
    <glyph glyph-name="uni1E1D" unicode="&#x1e1d;" horiz-adv-x="540" 
d="M166 662q-36 35 -36 110h47q0 -50 24 -74t60 -24q88 0 88 98h49q0 -76 -36.5 -110.5t-98.5 -34.5q-61 0 -97 35zM165.5 134.5q12.5 -33.5 45.5 -48.5t95 -15h167v-60q-55 -8 -92.5 -12t-84.5 -5l-31 -47q71 -6 71 -65q0 -36 -25.5 -55t-73.5 -19h-38v41l21 2q51 6 51 42
q0 38 -60 42l39 60q-75 4 -117.5 31t-61.5 84.5t-19 157.5q0 108 21.5 167t70.5 83t136 24q76 0 121 -16t66 -55t21 -108q0 -71 -41 -102.5t-118 -31.5h-177q1 -61 13.5 -94.5zM201.5 453q-27.5 -15 -39 -52.5t-11.5 -108.5h169q41 0 59.5 15.5t18.5 54.5q0 60 -26.5 83
t-91.5 23q-51 0 -78.5 -15z" />
    <glyph glyph-name="uni1E1E" unicode="&#x1e1e;" horiz-adv-x="572" 
d="M73 583q0 81 44 117.5t106 36.5q182 0 314 -11v-82h-286q-37 0 -57 -20.5t-20 -57.5v-171l318 -6v-78l-318 -6v-305h-101v583zM274.5 820q-4.5 5 -4.5 12v84q0 18 17 18h47q17 0 17 -18v-84q0 -8 -4.5 -12.5t-12.5 -4.5h-47q-8 0 -12.5 5z" />
    <glyph glyph-name="uni1E1F" unicode="&#x1e1f;" horiz-adv-x="375" 
d="M102 453h-80v65l80 17v53q0 93 36.5 137t124.5 44q50 0 105 -11v-72h-87q-46 0 -62.5 -22t-16.5 -71v-58h157v-82h-157v-453h-100v453zM226.5 874q-4.5 5 -4.5 12v84q0 18 17 18h47q17 0 17 -18v-84q0 -8 -4.5 -12.5t-12.5 -4.5h-47q-8 0 -12.5 5z" />
    <glyph glyph-name="uni1E20" unicode="&#x1e20;" horiz-adv-x="657" 
d="M145.5 36q-50.5 41 -70.5 122t-20 212q0 130 22 210.5t78 121.5t156 41q121 0 241 -27v-77q-115 14 -224 14q-70 0 -107 -27.5t-51.5 -88t-14.5 -168.5q0 -113 14.5 -173t49 -84.5t99.5 -24.5q77 0 169 33v195h-164v77q65 10 167 10q44 0 94 -4v-398h-75l-15 51
q-41 -22 -95.5 -39t-111.5 -17q-91 0 -141.5 41zM186 884h270v-60h-270v60z" />
    <glyph glyph-name="uni1E21" unicode="&#x1e21;" horiz-adv-x="578" 
d="M557 479l-109 -11q27 -20 43.5 -47t16.5 -82q0 -71 -45.5 -117t-145.5 -46h-88q-82 0 -82 -50q0 -21 15.5 -31t37.5 -10h169q93 0 139.5 -36.5t46.5 -114.5v-19q0 -77 -50.5 -119t-148.5 -42h-153q-79 0 -127.5 34t-48.5 97v22q0 42 23.5 73t62.5 48q-25 13 -38.5 34.5
t-13.5 47.5q0 39 23.5 64t66.5 34q-50 22 -71.5 63t-21.5 92q0 173 211 173h288v-57zM392 279.5q24 26.5 24 71.5q0 108 -103 108h-56q-53 0 -80.5 -24t-27.5 -78q0 -104 98 -104h59q62 0 86 26.5zM225 8q-44 0 -73.5 -21t-29.5 -62v-19q0 -80 107 -80h117q54 0 84.5 21
t30.5 63v19q0 38 -25 58.5t-82 20.5h-129zM151 724h270v-60h-270v60z" />
    <glyph glyph-name="uni1E24" unicode="&#x1e24;" horiz-adv-x="688" 
d="M73 737h101v-331h341v331h100v-737h-100v316h-341v-316h-101v737zM306.5 -210.5q-4.5 4.5 -4.5 12.5v84q0 18 17 18h47q17 0 17 -18v-84q0 -8 -4.5 -12.5t-12.5 -4.5h-47q-8 0 -12.5 4.5z" />
    <glyph glyph-name="uni1E25" unicode="&#x1e25;" 
d="M70 763h100v-286q38 28 88 47.5t100 19.5q83 0 124 -50.5t41 -132.5v-361h-100v349q0 47 -27.5 75.5t-73.5 28.5q-42 0 -76.5 -12t-75.5 -36v-405h-100v763zM256.5 -210.5q-4.5 4.5 -4.5 12.5v84q0 18 17 18h47q17 0 17 -18v-84q0 -8 -4.5 -12.5t-12.5 -4.5h-47
q-8 0 -12.5 4.5z" />
    <glyph glyph-name="uni1E2A" unicode="&#x1e2a;" horiz-adv-x="688" 
d="M73 737h101v-331h341v331h100v-737h-100v316h-341v-316h-101v737zM245 -188q-36 35 -36 110h47q0 -51 23.5 -74.5t60.5 -23.5q88 0 88 98h49q0 -76 -36.5 -110.5t-98.5 -34.5q-61 0 -97 35z" />
    <glyph glyph-name="uni1E2B" unicode="&#x1e2b;" 
d="M70 763h100v-286q38 28 88 47.5t100 19.5q83 0 124 -50.5t41 -132.5v-361h-100v349q0 47 -27.5 75.5t-73.5 28.5q-42 0 -76.5 -12t-75.5 -36v-405h-100v763zM197 -188q-36 35 -36 110h47q0 -51 23.5 -74.5t60.5 -23.5q88 0 88 98h49q0 -76 -36.5 -110.5t-98.5 -34.5
q-61 0 -97 35z" />
    <glyph glyph-name="uni1E2E" unicode="&#x1e2e;" horiz-adv-x="247" 
d="M73 737h101v-737h-101v737zM-34.5 813q-4.5 5 -4.5 12v84q0 18 17 18h47q17 0 17 -18v-84q0 -8 -4.5 -12.5t-12.5 -4.5h-47q-8 0 -12.5 5zM194 813q-5 5 -5 12v84q0 18 18 18h46q17 0 17 -18v-84q0 -8 -4.5 -12.5t-12.5 -4.5h-46q-8 0 -13 5zM191 1097h84l-122 -138h-59z
" />
    <glyph glyph-name="uni1E2F" unicode="&#x1e2f;" horiz-adv-x="238" 
d="M70 535h100v-535h-100v535zM-16 653q-5 5 -5 12v84q0 18 18 18h46q17 0 17 -18v-84q0 -17 -17 -17h-46q-8 0 -13 5zM179.5 653q-4.5 5 -4.5 12v84q0 18 17 18h47q17 0 17 -18v-84q0 -8 -4.5 -12.5t-12.5 -4.5h-47q-8 0 -12.5 5zM177 942h84l-122 -138h-59z" />
    <glyph glyph-name="uni1E36" unicode="&#x1e36;" horiz-adv-x="533" 
d="M113 36q-40 36 -40 120v581h101v-566q0 -45 21 -62t58 -17h255v-92h-279q-76 0 -116 36zM240.5 -210.5q-4.5 4.5 -4.5 12.5v84q0 18 17 18h47q17 0 17 -18v-84q0 -8 -4.5 -12.5t-12.5 -4.5h-47q-8 0 -12.5 4.5z" />
    <glyph glyph-name="uni1E37" unicode="&#x1e37;" horiz-adv-x="300" 
d="M106.5 39q-36.5 40 -36.5 133v591h100v-578q0 -59 16.5 -81t52.5 -27l50 -6v-72h-70q-76 0 -112.5 40zM132.5 -210.5q-4.5 4.5 -4.5 12.5v84q0 18 17 18h47q17 0 17 -18v-84q0 -8 -4.5 -12.5t-12.5 -4.5h-47q-8 0 -12.5 4.5z" />
    <glyph glyph-name="uni1E3A" unicode="&#x1e3a;" horiz-adv-x="533" 
d="M113 36q-40 36 -40 120v581h101v-566q0 -45 21 -62t58 -17h255v-92h-279q-76 0 -116 36zM141 -136h270v-60h-270v60z" />
    <glyph glyph-name="uni1E3B" unicode="&#x1e3b;" horiz-adv-x="300" 
d="M106.5 39q-36.5 40 -36.5 133v591h100v-578q0 -59 16.5 -81t52.5 -27l50 -6v-72h-70q-76 0 -112.5 40zM35 -136h270v-60h-270v60z" />
    <glyph glyph-name="uni1E40" unicode="&#x1e40;" horiz-adv-x="850" 
d="M700 0l-67 570l-162 -570h-93l-164 567l-64 -567h-97l84 737h100l188 -615l185 615h101l86 -737h-97zM382.5 820q-4.5 5 -4.5 12v84q0 18 17 18h47q17 0 17 -18v-84q0 -8 -4.5 -12.5t-12.5 -4.5h-47q-8 0 -12.5 5z" />
    <glyph glyph-name="uni1E41" unicode="&#x1e41;" horiz-adv-x="943" 
d="M70 535h80l20 -58q45 31 91.5 49t102.5 18q48 0 83 -21t55 -57q40 31 97.5 54.5t108.5 23.5q86 0 127 -50.5t41 -136.5v-357h-100v348q0 48 -27.5 76.5t-74.5 28.5q-38 0 -79.5 -14.5t-79.5 -38.5q8 -27 8 -53v-347h-100v348q0 48 -27 76.5t-74 28.5q-42 0 -76.5 -12
t-75.5 -36v-405h-100v535zM442.5 660q-4.5 5 -4.5 12v84q0 18 17 18h47q17 0 17 -18v-84q0 -8 -4.5 -12.5t-12.5 -4.5h-47q-8 0 -12.5 5z" />
    <glyph glyph-name="uni1E42" unicode="&#x1e42;" horiz-adv-x="850" 
d="M700 0l-67 570l-162 -570h-93l-164 567l-64 -567h-97l84 737h100l188 -615l185 615h101l86 -737h-97zM382.5 -210.5q-4.5 4.5 -4.5 12.5v84q0 18 17 18h47q17 0 17 -18v-84q0 -8 -4.5 -12.5t-12.5 -4.5h-47q-8 0 -12.5 4.5z" />
    <glyph glyph-name="uni1E43" unicode="&#x1e43;" horiz-adv-x="943" 
d="M70 535h80l20 -58q45 31 91.5 49t102.5 18q48 0 83 -21t55 -57q40 31 97.5 54.5t108.5 23.5q86 0 127 -50.5t41 -136.5v-357h-100v348q0 48 -27.5 76.5t-74.5 28.5q-38 0 -79.5 -14.5t-79.5 -38.5q8 -27 8 -53v-347h-100v348q0 48 -27 76.5t-74 28.5q-42 0 -76.5 -12
t-75.5 -36v-405h-100v535zM431.5 -210.5q-4.5 4.5 -4.5 12.5v84q0 18 17 18h47q17 0 17 -18v-84q0 -8 -4.5 -12.5t-12.5 -4.5h-47q-8 0 -12.5 4.5z" />
    <glyph glyph-name="uni1E44" unicode="&#x1e44;" horiz-adv-x="689" 
d="M84 737h82l361 -565v565h100v-737h-81l-361 565v-565h-101v737zM302.5 -210.5q-4.5 4.5 -4.5 12.5v84q0 18 17 18h47q17 0 17 -18v-84q0 -8 -4.5 -12.5t-12.5 -4.5h-47q-8 0 -12.5 4.5z" />
    <glyph glyph-name="uni1E45" unicode="&#x1e45;" 
d="M70 535h80l20 -58q39 29 88.5 48t99.5 19q85 0 125 -51.5t40 -132.5v-360h-100v348q0 48 -27 76.5t-74 28.5q-42 0 -76.5 -12t-75.5 -36v-405h-100v535zM255.5 -210.5q-4.5 4.5 -4.5 12.5v84q0 18 17 18h47q17 0 17 -18v-84q0 -8 -4.5 -12.5t-12.5 -4.5h-47
q-8 0 -12.5 4.5z" />
    <glyph glyph-name="uni1E46" unicode="&#x1e46;" horiz-adv-x="689" 
d="M84 737h82l361 -565v565h100v-737h-81l-361 565v-565h-101v737zM302.5 -210.5q-4.5 4.5 -4.5 12.5v84q0 18 17 18h47q17 0 17 -18v-84q0 -8 -4.5 -12.5t-12.5 -4.5h-47q-8 0 -12.5 4.5z" />
    <glyph glyph-name="uni1E47" unicode="&#x1e47;" 
d="M70 535h80l20 -58q39 29 88.5 48t99.5 19q85 0 125 -51.5t40 -132.5v-360h-100v348q0 48 -27 76.5t-74 28.5q-42 0 -76.5 -12t-75.5 -36v-405h-100v535zM255.5 -210.5q-4.5 4.5 -4.5 12.5v84q0 18 17 18h47q17 0 17 -18v-84q0 -8 -4.5 -12.5t-12.5 -4.5h-47
q-8 0 -12.5 4.5z" />
    <glyph glyph-name="uni1E48" unicode="&#x1e48;" horiz-adv-x="689" 
d="M84 737h82l361 -565v565h100v-737h-81l-361 565v-565h-101v737zM203 -136h270v-60h-270v60z" />
    <glyph glyph-name="uni1E49" unicode="&#x1e49;" 
d="M70 535h80l20 -58q39 29 88.5 48t99.5 19q85 0 125 -51.5t40 -132.5v-360h-100v348q0 48 -27 76.5t-74 28.5q-42 0 -76.5 -12t-75.5 -36v-405h-100v535zM158 -136h270v-60h-270v60z" />
    <glyph glyph-name="uni1E4C" unicode="&#x1e4c;" horiz-adv-x="690" 
d="M179 22q-61 28 -92.5 108t-31.5 236t32 237.5t93 110.5t165 29q106 0 167 -29t92.5 -110.5t31.5 -237.5t-31.5 -236t-92.5 -108t-167 -28q-105 0 -166 28zM459 105q40 21 58 81t18 180q0 125 -18 186t-57.5 81t-114.5 20q-72 0 -111.5 -20.5t-59 -81.5t-19.5 -185
q0 -121 17.5 -180.5t57 -80.5t115.5 -21q74 0 114 21zM199 887.5q28 27.5 68 27.5q23 0 43 -8t45 -23q22 -13 36 -19t29 -6q25 0 39.5 15.5t15.5 44.5h51q-1 -56 -27 -86.5t-72 -30.5q-22 0 -41.5 8t-44.5 23q-21 13 -36.5 19.5t-30.5 6.5q-23 0 -38 -15t-16 -43h-51
q2 59 30 86.5zM404 1088h84l-122 -138h-59z" />
    <glyph glyph-name="uni1E4D" unicode="&#x1e4d;" horiz-adv-x="576" 
d="M152 18q-51 24 -75.5 83.5t-24.5 166.5q0 110 25 169.5t75.5 82t135.5 22.5t135.5 -23t75.5 -82.5t25 -168.5q0 -108 -24.5 -167.5t-75 -83t-136.5 -23.5q-85 0 -136 24zM366.5 89.5q28.5 13.5 43 55t14.5 124.5t-14.5 124.5t-43 54.5t-78.5 13q-51 0 -78.5 -13
t-42 -54.5t-14.5 -124.5q0 -84 14.5 -125.5t42 -54.5t78.5 -13q50 0 78.5 13.5zM149 727.5q28 27.5 68 27.5q23 0 43 -8t45 -23q22 -13 36 -19t29 -6q25 0 39.5 15.5t15.5 44.5h51q-1 -56 -27 -86.5t-72 -30.5q-22 0 -41.5 8t-44.5 23q-21 13 -36.5 19.5t-30.5 6.5
q-23 0 -38 -15t-16 -43h-51q2 59 30 86.5zM344 924h84l-122 -138h-59z" />
    <glyph glyph-name="uni1E4E" unicode="&#x1e4e;" horiz-adv-x="690" 
d="M179 22q-61 28 -92.5 108t-31.5 236t32 237.5t93 110.5t165 29q106 0 167 -29t92.5 -110.5t31.5 -237.5t-31.5 -236t-92.5 -108t-167 -28q-105 0 -166 28zM459 105q40 21 58 81t18 180q0 125 -18 186t-57.5 81t-114.5 20q-72 0 -111.5 -20.5t-59 -81.5t-19.5 -185
q0 -121 17.5 -180.5t57 -80.5t115.5 -21q74 0 114 21zM199 887.5q28 27.5 68 27.5q23 0 43 -8t45 -23q22 -13 36 -19t29 -6q25 0 39.5 15.5t15.5 44.5h51q-1 -56 -27 -86.5t-72 -30.5q-22 0 -41.5 8t-44.5 23q-21 13 -36.5 19.5t-30.5 6.5q-23 0 -38 -15t-16 -43h-51
q2 59 30 86.5zM193.5 972q-4.5 5 -4.5 12v84q0 18 17 18h47q17 0 17 -18v-84q0 -8 -4.5 -12.5t-12.5 -4.5h-47q-8 0 -12.5 5zM422 972q-5 5 -5 12v84q0 18 18 18h46q17 0 17 -18v-84q0 -8 -4.5 -12.5t-12.5 -4.5h-46q-8 0 -13 5z" />
    <glyph glyph-name="uni1E4F" unicode="&#x1e4f;" horiz-adv-x="576" 
d="M152 18q-51 24 -75.5 83.5t-24.5 166.5q0 110 25 169.5t75.5 82t135.5 22.5t135.5 -23t75.5 -82.5t25 -168.5q0 -108 -24.5 -167.5t-75 -83t-136.5 -23.5q-85 0 -136 24zM366.5 89.5q28.5 13.5 43 55t14.5 124.5t-14.5 124.5t-43 54.5t-78.5 13q-51 0 -78.5 -13
t-42 -54.5t-14.5 -124.5q0 -84 14.5 -125.5t42 -54.5t78.5 -13q50 0 78.5 13.5zM149 727.5q28 27.5 68 27.5q23 0 43 -8t45 -23q22 -13 36 -19t29 -6q25 0 39.5 15.5t15.5 44.5h51q-1 -56 -27 -86.5t-72 -30.5q-22 0 -41.5 8t-44.5 23q-21 13 -36.5 19.5t-30.5 6.5
q-23 0 -38 -15t-16 -43h-51q2 59 30 86.5zM162 812q-5 5 -5 12v84q0 18 18 18h46q17 0 17 -18v-84q0 -17 -17 -17h-46q-8 0 -13 5zM357.5 812q-4.5 5 -4.5 12v84q0 18 17 18h47q17 0 17 -18v-84q0 -8 -4.5 -12.5t-12.5 -4.5h-47q-8 0 -12.5 5z" />
    <glyph glyph-name="uni1E50" unicode="&#x1e50;" horiz-adv-x="690" 
d="M179 22q-61 28 -92.5 108t-31.5 236t32 237.5t93 110.5t165 29q106 0 167 -29t92.5 -110.5t31.5 -237.5t-31.5 -236t-92.5 -108t-167 -28q-105 0 -166 28zM459 105q40 21 58 81t18 180q0 125 -18 186t-57.5 81t-114.5 20q-72 0 -111.5 -20.5t-59 -81.5t-19.5 -185
q0 -121 17.5 -180.5t57 -80.5t115.5 -21q74 0 114 21zM204 884h270v-60h-270v60zM190 1067h83l98 -138h-59z" />
    <glyph glyph-name="uni1E51" unicode="&#x1e51;" horiz-adv-x="576" 
d="M152 18q-51 24 -75.5 83.5t-24.5 166.5q0 110 25 169.5t75.5 82t135.5 22.5t135.5 -23t75.5 -82.5t25 -168.5q0 -108 -24.5 -167.5t-75 -83t-136.5 -23.5q-85 0 -136 24zM366.5 89.5q28.5 13.5 43 55t14.5 124.5t-14.5 124.5t-43 54.5t-78.5 13q-51 0 -78.5 -13
t-42 -54.5t-14.5 -124.5q0 -84 14.5 -125.5t42 -54.5t78.5 -13q50 0 78.5 13.5zM150 724h270v-60h-270v60zM148 898h83l98 -138h-59z" />
    <glyph glyph-name="uni1E52" unicode="&#x1e52;" horiz-adv-x="690" 
d="M179 22q-61 28 -92.5 108t-31.5 236t32 237.5t93 110.5t165 29q106 0 167 -29t92.5 -110.5t31.5 -237.5t-31.5 -236t-92.5 -108t-167 -28q-105 0 -166 28zM459 105q40 21 58 81t18 180q0 125 -18 186t-57.5 81t-114.5 20q-72 0 -111.5 -20.5t-59 -81.5t-19.5 -185
q0 -121 17.5 -180.5t57 -80.5t115.5 -21q74 0 114 21zM204 884h270v-60h-270v60zM413 1067h84l-122 -138h-59z" />
    <glyph glyph-name="uni1E53" unicode="&#x1e53;" horiz-adv-x="576" 
d="M152 18q-51 24 -75.5 83.5t-24.5 166.5q0 110 25 169.5t75.5 82t135.5 22.5t135.5 -23t75.5 -82.5t25 -168.5q0 -108 -24.5 -167.5t-75 -83t-136.5 -23.5q-85 0 -136 24zM366.5 89.5q28.5 13.5 43 55t14.5 124.5t-14.5 124.5t-43 54.5t-78.5 13q-51 0 -78.5 -13
t-42 -54.5t-14.5 -124.5q0 -84 14.5 -125.5t42 -54.5t78.5 -13q50 0 78.5 13.5zM150 724h270v-60h-270v60zM344 898h84l-122 -138h-59z" />
    <glyph glyph-name="uni1E56" unicode="&#x1e56;" horiz-adv-x="609" 
d="M73 737h299q85 0 141.5 -50t56.5 -191q0 -142 -58 -194.5t-141 -52.5q-31 0 -93.5 4t-103.5 8v-261h-101v737zM357 339q112 0 112 156q0 152 -106 152h-189v-308h183zM256.5 820q-4.5 5 -4.5 12v84q0 18 17 18h47q17 0 17 -18v-84q0 -8 -4.5 -12.5t-12.5 -4.5h-47
q-8 0 -12.5 5z" />
    <glyph glyph-name="uni1E57" unicode="&#x1e57;" horiz-adv-x="580" 
d="M70 535h82l18 -54q33 24 78 42.5t89 18.5q98 0 144.5 -75t46.5 -199q0 -137 -45.5 -206t-145.5 -69q-41 0 -85.5 12.5t-81.5 33.5v-276h-100v772zM428 268q0 99 -33.5 145.5t-86.5 46.5q-64 0 -138 -40v-305q31 -18 66.5 -28t70.5 -10q121 0 121 191zM240.5 660
q-4.5 5 -4.5 12v84q0 18 17 18h47q17 0 17 -18v-84q0 -8 -4.5 -12.5t-12.5 -4.5h-47q-8 0 -12.5 5z" />
    <glyph glyph-name="uni1E5A" unicode="&#x1e5a;" horiz-adv-x="614" 
d="M73 737h295q90 0 143.5 -47.5t53.5 -175.5q0 -103 -37.5 -147t-95.5 -60l147 -307h-102l-136 293l-137 2q-11 1 -30 1v-296h-101v737zM352 374q54 0 83.5 30t29.5 110q0 77 -30 105t-83 28h-178v-273h178zM260.5 -210.5q-4.5 4.5 -4.5 12.5v84q0 18 17 18h47q17 0 17 -18
v-84q0 -8 -4.5 -12.5t-12.5 -4.5h-47q-8 0 -12.5 4.5z" />
    <glyph glyph-name="uni1E5B" unicode="&#x1e5b;" horiz-adv-x="416" 
d="M70 535h77l23 -90q38 46 80 71.5t94 25.5q27 0 48 -6v-103q-32 5 -60 5q-49 0 -86 -17.5t-76 -55.5v-365h-100v535zM80.5 -210.5q-4.5 4.5 -4.5 12.5v84q0 18 17 18h47q17 0 17 -18v-84q0 -8 -4.5 -12.5t-12.5 -4.5h-47q-8 0 -12.5 4.5z" />
    <glyph glyph-name="uni1E5E" unicode="&#x1e5e;" horiz-adv-x="614" 
d="M73 737h295q90 0 143.5 -47.5t53.5 -175.5q0 -103 -37.5 -147t-95.5 -60l147 -307h-102l-136 293l-137 2q-11 1 -30 1v-296h-101v737zM352 374q54 0 83.5 30t29.5 110q0 77 -30 105t-83 28h-178v-273h178zM161 -136h270v-60h-270v60z" />
    <glyph glyph-name="uni1E5F" unicode="&#x1e5f;" horiz-adv-x="416" 
d="M70 535h77l23 -90q38 46 80 71.5t94 25.5q27 0 48 -6v-103q-32 5 -60 5q-49 0 -86 -17.5t-76 -55.5v-365h-100v535zM-17 -136h270v-60h-270v60z" />
    <glyph glyph-name="uni1E60" unicode="&#x1e60;" horiz-adv-x="582" 
d="M167.5 -0.5q-67.5 5.5 -106.5 14.5v78q83 -8 221 -8q71 0 110 21.5t39 78.5v43q0 93 -99 93h-75q-99 0 -150 43.5t-51 142.5v41q0 102 55.5 149t165.5 47q48 0 110 -7t106 -15v-78l-21 1q-128 9 -184 9q-68 0 -102 -24t-34 -87v-30q0 -52 27.5 -74t82.5 -22h81
q90 0 137 -48.5t47 -128.5v-52q0 -109 -63 -151t-178 -42q-51 0 -118.5 5.5zM247.5 820q-4.5 5 -4.5 12v84q0 18 17 18h47q17 0 17 -18v-84q0 -8 -4.5 -12.5t-12.5 -4.5h-47q-8 0 -12.5 5z" />
    <glyph glyph-name="uni1E61" unicode="&#x1e61;" horiz-adv-x="501" 
d="M142.5 -1.5q-64.5 4.5 -91.5 12.5v60h225q48 0 71 13.5t23 54.5v22q0 64 -86 64h-78q-77 0 -119 31.5t-42 104.5v29q0 77 45.5 113.5t150.5 36.5q44 0 103 -5.5t91 -12.5v-60h-212q-47 0 -69 -16t-22 -56v-20q0 -38 21.5 -50t69.5 -12h80q75 0 114.5 -35t39.5 -100v-41
q0 -77 -50.5 -107.5t-149.5 -30.5q-50 0 -114.5 4.5zM204.5 660q-4.5 5 -4.5 12v84q0 18 17 18h47q17 0 17 -18v-84q0 -8 -4.5 -12.5t-12.5 -4.5h-47q-8 0 -12.5 5z" />
    <glyph glyph-name="uni1E62" unicode="&#x1e62;" horiz-adv-x="582" 
d="M167.5 -0.5q-67.5 5.5 -106.5 14.5v78q83 -8 221 -8q71 0 110 21.5t39 78.5v43q0 93 -99 93h-75q-99 0 -150 43.5t-51 142.5v41q0 102 55.5 149t165.5 47q48 0 110 -7t106 -15v-78l-21 1q-128 9 -184 9q-68 0 -102 -24t-34 -87v-30q0 -52 27.5 -74t82.5 -22h81
q90 0 137 -48.5t47 -128.5v-52q0 -109 -63 -151t-178 -42q-51 0 -118.5 5.5zM247.5 -210.5q-4.5 4.5 -4.5 12.5v84q0 18 17 18h47q17 0 17 -18v-84q0 -8 -4.5 -12.5t-12.5 -4.5h-47q-8 0 -12.5 4.5z" />
    <glyph glyph-name="uni1E63" unicode="&#x1e63;" horiz-adv-x="501" 
d="M142.5 -1.5q-64.5 4.5 -91.5 12.5v60h225q48 0 71 13.5t23 54.5v22q0 64 -86 64h-78q-77 0 -119 31.5t-42 104.5v29q0 77 45.5 113.5t150.5 36.5q44 0 103 -5.5t91 -12.5v-60h-212q-47 0 -69 -16t-22 -56v-20q0 -38 21.5 -50t69.5 -12h80q75 0 114.5 -35t39.5 -100v-41
q0 -77 -50.5 -107.5t-149.5 -30.5q-50 0 -114.5 4.5zM202.5 -210.5q-4.5 4.5 -4.5 12.5v84q0 18 17 18h47q17 0 17 -18v-84q0 -8 -4.5 -12.5t-12.5 -4.5h-47q-8 0 -12.5 4.5z" />
    <glyph glyph-name="uni1E64" unicode="&#x1e64;" horiz-adv-x="582" 
d="M167.5 -0.5q-67.5 5.5 -106.5 14.5v78q83 -8 221 -8q71 0 110 21.5t39 78.5v43q0 93 -99 93h-75q-99 0 -150 43.5t-51 142.5v41q0 102 55.5 149t165.5 47q48 0 110 -7t106 -15v-78l-21 1q-128 9 -184 9q-68 0 -102 -24t-34 -87v-30q0 -52 27.5 -74t82.5 -22h81
q90 0 137 -48.5t47 -128.5v-52q0 -109 -63 -151t-178 -42q-51 0 -118.5 5.5zM326 929h84l-122 -138h-59zM286.5 963q-4.5 5 -4.5 12v84q0 18 17 18h47q17 0 17 -18v-84q0 -8 -4.5 -12.5t-12.5 -4.5h-47q-8 0 -12.5 5z" />
    <glyph glyph-name="uni1E65" unicode="&#x1e65;" horiz-adv-x="501" 
d="M142.5 -1.5q-64.5 4.5 -91.5 12.5v60h225q48 0 71 13.5t23 54.5v22q0 64 -86 64h-78q-77 0 -119 31.5t-42 104.5v29q0 77 45.5 113.5t150.5 36.5q44 0 103 -5.5t91 -12.5v-60h-212q-47 0 -69 -16t-22 -56v-20q0 -38 21.5 -50t69.5 -12h80q75 0 114.5 -35t39.5 -100v-41
q0 -77 -50.5 -107.5t-149.5 -30.5q-50 0 -114.5 4.5zM267 769h84l-122 -138h-59zM223.5 803q-4.5 5 -4.5 12v84q0 18 17 18h47q17 0 17 -18v-84q0 -8 -4.5 -12.5t-12.5 -4.5h-47q-8 0 -12.5 5z" />
    <glyph glyph-name="uni1E66" unicode="&#x1e66;" horiz-adv-x="582" 
d="M167.5 -0.5q-67.5 5.5 -106.5 14.5v78q83 -8 221 -8q71 0 110 21.5t39 78.5v43q0 93 -99 93h-75q-99 0 -150 43.5t-51 142.5v41q0 102 55.5 149t165.5 47q48 0 110 -7t106 -15v-78l-21 1q-128 9 -184 9q-68 0 -102 -24t-34 -87v-30q0 -52 27.5 -74t82.5 -22h81
q90 0 137 -48.5t47 -128.5v-52q0 -109 -63 -151t-178 -42q-51 0 -118.5 5.5zM141 928h60l84 -90l90 90h61l-118 -137h-70zM247.5 967q-4.5 5 -4.5 12v84q0 18 17 18h47q17 0 17 -18v-84q0 -8 -4.5 -12.5t-12.5 -4.5h-47q-8 0 -12.5 5z" />
    <glyph glyph-name="uni1E67" unicode="&#x1e67;" horiz-adv-x="501" 
d="M142.5 -1.5q-64.5 4.5 -91.5 12.5v60h225q48 0 71 13.5t23 54.5v22q0 64 -86 64h-78q-77 0 -119 31.5t-42 104.5v29q0 77 45.5 113.5t150.5 36.5q44 0 103 -5.5t91 -12.5v-60h-212q-47 0 -69 -16t-22 -56v-20q0 -38 21.5 -50t69.5 -12h80q75 0 114.5 -35t39.5 -100v-41
q0 -77 -50.5 -107.5t-149.5 -30.5q-50 0 -114.5 4.5zM98 768h60l84 -90l90 90h61l-118 -137h-70zM204.5 807q-4.5 5 -4.5 12v84q0 18 17 18h47q17 0 17 -18v-84q0 -8 -4.5 -12.5t-12.5 -4.5h-47q-8 0 -12.5 5z" />
    <glyph glyph-name="uni1E68" unicode="&#x1e68;" horiz-adv-x="582" 
d="M167.5 -0.5q-67.5 5.5 -106.5 14.5v78q83 -8 221 -8q71 0 110 21.5t39 78.5v43q0 93 -99 93h-75q-99 0 -150 43.5t-51 142.5v41q0 102 55.5 149t165.5 47q48 0 110 -7t106 -15v-78l-21 1q-128 9 -184 9q-68 0 -102 -24t-34 -87v-30q0 -52 27.5 -74t82.5 -22h81
q90 0 137 -48.5t47 -128.5v-52q0 -109 -63 -151t-178 -42q-51 0 -118.5 5.5zM247.5 -210.5q-4.5 4.5 -4.5 12.5v84q0 18 17 18h47q17 0 17 -18v-84q0 -8 -4.5 -12.5t-12.5 -4.5h-47q-8 0 -12.5 4.5zM247.5 820q-4.5 5 -4.5 12v84q0 18 17 18h47q17 0 17 -18v-84
q0 -8 -4.5 -12.5t-12.5 -4.5h-47q-8 0 -12.5 5z" />
    <glyph glyph-name="uni1E69" unicode="&#x1e69;" horiz-adv-x="501" 
d="M142.5 -1.5q-64.5 4.5 -91.5 12.5v60h225q48 0 71 13.5t23 54.5v22q0 64 -86 64h-78q-77 0 -119 31.5t-42 104.5v29q0 77 45.5 113.5t150.5 36.5q44 0 103 -5.5t91 -12.5v-60h-212q-47 0 -69 -16t-22 -56v-20q0 -38 21.5 -50t69.5 -12h80q75 0 114.5 -35t39.5 -100v-41
q0 -77 -50.5 -107.5t-149.5 -30.5q-50 0 -114.5 4.5zM202.5 -210.5q-4.5 4.5 -4.5 12.5v84q0 18 17 18h47q17 0 17 -18v-84q0 -8 -4.5 -12.5t-12.5 -4.5h-47q-8 0 -12.5 4.5zM204.5 660q-4.5 5 -4.5 12v84q0 18 17 18h47q17 0 17 -18v-84q0 -8 -4.5 -12.5t-12.5 -4.5h-47
q-8 0 -12.5 5z" />
    <glyph glyph-name="uni1E6A" unicode="&#x1e6a;" horiz-adv-x="573" 
d="M236 647h-220v90h541v-90h-220v-647h-101v647zM248.5 820q-4.5 5 -4.5 12v84q0 18 17 18h47q17 0 17 -18v-84q0 -8 -4.5 -12.5t-12.5 -4.5h-47q-8 0 -12.5 5z" />
    <glyph glyph-name="uni1E6B" unicode="&#x1e6b;" horiz-adv-x="374" 
d="M134 41q-38 41 -36 137l4 275h-85v65l87 17l15 150h79v-150h145v-82h-145v-274q0 -54 20.5 -75t51.5 -24l66 -6v-74h-81q-83 0 -121 41zM122.5 749q-4.5 5 -4.5 12v84q0 18 17 18h47q17 0 17 -18v-84q0 -8 -4.5 -12.5t-12.5 -4.5h-47q-8 0 -12.5 5z" />
    <glyph glyph-name="uni1E6C" unicode="&#x1e6c;" horiz-adv-x="573" 
d="M236 647h-220v90h541v-90h-220v-647h-101v647zM248.5 -210.5q-4.5 4.5 -4.5 12.5v84q0 18 17 18h47q17 0 17 -18v-84q0 -8 -4.5 -12.5t-12.5 -4.5h-47q-8 0 -12.5 4.5z" />
    <glyph glyph-name="uni1E6D" unicode="&#x1e6d;" horiz-adv-x="374" 
d="M134 41q-38 41 -36 137l4 275h-85v65l87 17l15 150h79v-150h145v-82h-145v-274q0 -54 20.5 -75t51.5 -24l66 -6v-74h-81q-83 0 -121 41zM158.5 -210.5q-4.5 4.5 -4.5 12.5v84q0 18 17 18h47q17 0 17 -18v-84q0 -8 -4.5 -12.5t-12.5 -4.5h-47q-8 0 -12.5 4.5z" />
    <glyph glyph-name="uni1E6E" unicode="&#x1e6e;" horiz-adv-x="573" 
d="M236 647h-220v90h541v-90h-220v-647h-101v647zM149 -136h270v-60h-270v60z" />
    <glyph glyph-name="uni1E6F" unicode="&#x1e6f;" horiz-adv-x="374" 
d="M134 41q-38 41 -36 137l4 275h-85v65l87 17l15 150h79v-150h145v-82h-145v-274q0 -54 20.5 -75t51.5 -24l66 -6v-74h-81q-83 0 -121 41zM61 -136h270v-60h-270v60z" />
    <glyph glyph-name="uni1E78" unicode="&#x1e78;" horiz-adv-x="679" 
d="M133.5 46.5q-70.5 52.5 -70.5 184.5v506h101v-505q0 -81 44 -114t131 -33q88 0 132 33t44 114v505h101v-506q0 -132 -71 -184.5t-206 -52.5t-205.5 52.5zM188 887.5q28 27.5 68 27.5q23 0 43 -8t45 -23q22 -13 36 -19t29 -6q25 0 39.5 15.5t15.5 44.5h51
q-1 -56 -27 -86.5t-72 -30.5q-22 0 -41.5 8t-44.5 23q-21 13 -36.5 19.5t-30.5 6.5q-23 0 -38 -15t-16 -43h-51q2 59 30 86.5zM406 1079h84l-122 -138h-59z" />
    <glyph glyph-name="uni1E79" unicode="&#x1e79;" 
d="M109.5 35q-40.5 41 -40.5 123v377h100v-350q0 -57 26 -79.5t79 -22.5q74 0 148 47v405h100v-535h-80l-20 58q-100 -64 -195 -64q-77 0 -117.5 41zM149 727.5q28 27.5 68 27.5q23 0 43 -8t45 -23q22 -13 36 -19t29 -6q25 0 39.5 15.5t15.5 44.5h51q-1 -56 -27 -86.5
t-72 -30.5q-22 0 -41.5 8t-44.5 23q-21 13 -36.5 19.5t-30.5 6.5q-23 0 -38 -15t-16 -43h-51q2 59 30 86.5zM345 924h84l-122 -138h-59z" />
    <glyph glyph-name="uni1E7A" unicode="&#x1e7a;" horiz-adv-x="679" 
d="M133.5 46.5q-70.5 52.5 -70.5 184.5v506h101v-505q0 -81 44 -114t131 -33q88 0 132 33t44 114v505h101v-506q0 -132 -71 -184.5t-206 -52.5t-205.5 52.5zM193 884h270v-60h-270v60zM176.5 947q-4.5 5 -4.5 12v84q0 18 17 18h47q17 0 17 -18v-84q0 -8 -4.5 -12.5
t-12.5 -4.5h-47q-8 0 -12.5 5zM405 947q-5 5 -5 12v84q0 18 18 18h46q17 0 17 -18v-84q0 -8 -4.5 -12.5t-12.5 -4.5h-46q-8 0 -13 5z" />
    <glyph glyph-name="uni1E7B" unicode="&#x1e7b;" 
d="M109.5 35q-40.5 41 -40.5 123v377h100v-350q0 -57 26 -79.5t79 -22.5q74 0 148 47v405h100v-535h-80l-20 58q-100 -64 -195 -64q-77 0 -117.5 41zM150 724h270v-60h-270v60zM152 791q-5 5 -5 12v84q0 18 18 18h46q17 0 17 -18v-84q0 -17 -17 -17h-46q-8 0 -13 5z
M347.5 791q-4.5 5 -4.5 12v84q0 18 17 18h47q17 0 17 -18v-84q0 -8 -4.5 -12.5t-12.5 -4.5h-47q-8 0 -12.5 5z" />
    <glyph glyph-name="Wgrave" unicode="&#x1e80;" horiz-adv-x="991" 
d="M29 737h104l146 -594l169 594h97l167 -594l147 594h103l-185 -737h-106l-175 594l-176 -594h-106zM369 929h83l98 -138h-59z" />
    <glyph glyph-name="wgrave" unicode="&#x1e81;" horiz-adv-x="806" 
d="M17 535h103l117 -442l126 442h85l126 -442l112 442h103l-154 -535h-111l-120 397l-122 -397h-109zM277 769h83l98 -138h-59z" />
    <glyph glyph-name="Wacute" unicode="&#x1e82;" horiz-adv-x="991" 
d="M29 737h104l146 -594l169 594h97l167 -594l147 594h103l-185 -737h-106l-175 594l-176 -594h-106zM583 929h84l-122 -138h-59z" />
    <glyph glyph-name="wacute" unicode="&#x1e83;" horiz-adv-x="806" 
d="M17 535h103l117 -442l126 442h85l126 -442l112 442h103l-154 -535h-111l-120 397l-122 -397h-109zM469 769h84l-122 -138h-59z" />
    <glyph glyph-name="Wdieresis" unicode="&#x1e84;" horiz-adv-x="991" 
d="M29 737h104l146 -594l169 594h97l167 -594l147 594h103l-185 -737h-106l-175 594l-176 -594h-106zM353.5 813q-4.5 5 -4.5 12v84q0 18 17 18h47q17 0 17 -18v-84q0 -8 -4.5 -12.5t-12.5 -4.5h-47q-8 0 -12.5 5zM582 813q-5 5 -5 12v84q0 18 18 18h46q17 0 17 -18v-84
q0 -8 -4.5 -12.5t-12.5 -4.5h-46q-8 0 -13 5z" />
    <glyph glyph-name="wdieresis" unicode="&#x1e85;" horiz-adv-x="806" 
d="M17 535h103l117 -442l126 442h85l126 -442l112 442h103l-154 -535h-111l-120 397l-122 -397h-109zM272 653q-5 5 -5 12v84q0 18 18 18h46q17 0 17 -18v-84q0 -17 -17 -17h-46q-8 0 -13 5zM467.5 653q-4.5 5 -4.5 12v84q0 18 17 18h47q17 0 17 -18v-84q0 -8 -4.5 -12.5
t-12.5 -4.5h-47q-8 0 -12.5 5z" />
    <glyph glyph-name="uni1E8E" unicode="&#x1e8e;" horiz-adv-x="621" 
d="M260 238l-230 499h105l177 -397l178 397h101l-230 -499v-238h-101v238zM274.5 -210.5q-4.5 4.5 -4.5 12.5v84q0 18 17 18h47q17 0 17 -18v-84q0 -8 -4.5 -12.5t-12.5 -4.5h-47q-8 0 -12.5 4.5z" />
    <glyph glyph-name="uni1E8F" unicode="&#x1e8f;" horiz-adv-x="550" 
d="M286 0q-52 1 -91 32t-58 99l-120 404h105l108 -383q22 -68 75 -68l125 451h103l-184 -673l-48 -99h-80zM438.5 -210.5q-4.5 4.5 -4.5 12.5v84q0 18 17 18h47q17 0 17 -18v-84q0 -8 -4.5 -12.5t-12.5 -4.5h-47q-8 0 -12.5 4.5z" />
    <glyph glyph-name="uni1E92" unicode="&#x1e92;" horiz-adv-x="564" 
d="M42 81l363 566h-363v90h485v-81l-363 -566h363v-90h-485v81zM242.5 -210.5q-4.5 4.5 -4.5 12.5v84q0 18 17 18h47q17 0 17 -18v-84q0 -8 -4.5 -12.5t-12.5 -4.5h-47q-8 0 -12.5 4.5z" />
    <glyph glyph-name="uni1E93" unicode="&#x1e93;" horiz-adv-x="498" 
d="M49 74l291 379h-299v82h416v-75l-292 -379h292v-81h-408v74zM199.5 -210.5q-4.5 4.5 -4.5 12.5v84q0 18 17 18h47q17 0 17 -18v-84q0 -8 -4.5 -12.5t-12.5 -4.5h-47q-8 0 -12.5 4.5z" />
    <glyph glyph-name="uni1E97" unicode="&#x1e97;" horiz-adv-x="374" 
d="M134 41q-38 41 -36 137l4 275h-85v65l87 17l15 150h79v-150h145v-82h-145v-274q0 -54 20.5 -75t51.5 -24l66 -6v-74h-81q-83 0 -121 41zM36 742q-5 5 -5 12v84q0 18 18 18h46q17 0 17 -18v-84q0 -17 -17 -17h-46q-8 0 -13 5zM231.5 742q-4.5 5 -4.5 12v84q0 18 17 18h47
q17 0 17 -18v-84q0 -8 -4.5 -12.5t-12.5 -4.5h-47q-8 0 -12.5 5z" />
    <glyph glyph-name="uni1E9E" unicode="&#x1e9e;" horiz-adv-x="687" 
d="M584.5 356.5q47.5 -43.5 47.5 -125.5v-52q0 -104 -60 -144.5t-167 -40.5q-33 0 -78.5 4.5t-71.5 11.5v78q51 -3 136 -3q67 0 103.5 21.5t36.5 77.5v41q0 48 -25.5 70.5t-82.5 22.5h-121v82h83l42 181l58 66h-219q-45 0 -68.5 -23.5t-23.5 -68.5v-555h-101v554
q0 95 53.5 139t136.5 44q192 -1 329 -8l-8 -15l8 5l-124 -249l-68 -70h48q89 0 136.5 -43.5z" />
    <glyph glyph-name="uni1EA0" unicode="&#x1ea0;" horiz-adv-x="678" 
d="M275 737h128l246 -737h-105l-65 193h-282l-64 -193h-104zM454 284l-116 366l-117 -366h233zM300.5 -210.5q-4.5 4.5 -4.5 12.5v84q0 18 17 18h47q17 0 17 -18v-84q0 -8 -4.5 -12.5t-12.5 -4.5h-47q-8 0 -12.5 4.5z" />
    <glyph glyph-name="uni1EA1" unicode="&#x1ea1;" horiz-adv-x="546" 
d="M79 30q-38 36 -38 98v42q0 64 43.5 102.5t127.5 38.5h167v56q0 33 -11 53.5t-39.5 31.5t-81.5 11h-164v59q88 20 198 21q102 0 150.5 -39.5t48.5 -129.5v-374h-79l-17 60q-9 -8 -42.5 -24t-78 -29t-86.5 -13q-60 0 -98 36zM283 75.5q34 8.5 63.5 19t32.5 12.5v154
l-140 -6q-97 -6 -97 -86v-24q0 -41 24 -59.5t59 -18.5q24 0 58 8.5zM230.5 -210.5q-4.5 4.5 -4.5 12.5v84q0 18 17 18h47q17 0 17 -18v-84q0 -8 -4.5 -12.5t-12.5 -4.5h-47q-8 0 -12.5 4.5z" />
    <glyph glyph-name="uni1EA2" unicode="&#x1ea2;" horiz-adv-x="678" 
d="M275 737h128l246 -737h-105l-65 193h-282l-64 -193h-104zM454 284l-116 366l-117 -366h233zM314 815q27 8 39 22t12 31q0 19 -10 29t-34 10q-17 0 -34 -6v41q20 7 47 7q42 0 63.5 -20.5t21.5 -57.5q0 -72 -105 -102v46z" />
    <glyph glyph-name="uni1EA3" unicode="&#x1ea3;" horiz-adv-x="546" 
d="M79 30q-38 36 -38 98v42q0 64 43.5 102.5t127.5 38.5h167v56q0 33 -11 53.5t-39.5 31.5t-81.5 11h-164v59q88 20 198 21q102 0 150.5 -39.5t48.5 -129.5v-374h-79l-17 60q-9 -8 -42.5 -24t-78 -29t-86.5 -13q-60 0 -98 36zM283 75.5q34 8.5 63.5 19t32.5 12.5v154
l-140 -6q-97 -6 -97 -86v-24q0 -41 24 -59.5t59 -18.5q24 0 58 8.5zM249 646q27 8 39 22t12 31q0 19 -10 29t-34 10q-18 0 -34 -6v41q20 7 47 7q42 0 63.5 -20.5t21.5 -57.5q0 -72 -105 -102v46z" />
    <glyph glyph-name="uni1EA4" unicode="&#x1ea4;" horiz-adv-x="678" 
d="M275 737h128l246 -737h-105l-65 193h-282l-64 -193h-104zM454 284l-116 366l-117 -366h233zM583 999l-99 -129h-59l74 129h84zM376 893l107 -102h-60l-84 55l-91 -55h-60l118 102h70z" />
    <glyph glyph-name="uni1EA5" unicode="&#x1ea5;" horiz-adv-x="546" 
d="M79 30q-38 36 -38 98v42q0 64 43.5 102.5t127.5 38.5h167v56q0 33 -11 53.5t-39.5 31.5t-81.5 11h-164v59q88 20 198 21q102 0 150.5 -39.5t48.5 -129.5v-374h-79l-17 60q-9 -8 -42.5 -24t-78 -29t-86.5 -13q-60 0 -98 36zM283 75.5q34 8.5 63.5 19t32.5 12.5v154
l-140 -6q-97 -6 -97 -86v-24q0 -41 24 -59.5t59 -18.5q24 0 58 8.5zM515 839l-99 -129h-59l74 129h84zM308 733l107 -102h-60l-84 55l-91 -55h-60l118 102h70z" />
    <glyph glyph-name="uni1EA6" unicode="&#x1ea6;" horiz-adv-x="678" 
d="M275 737h128l246 -737h-105l-65 193h-282l-64 -193h-104zM454 284l-116 366l-117 -366h233zM177 999l75 -129h-59l-100 129h84zM376 893l107 -102h-60l-84 55l-91 -55h-60l118 102h70z" />
    <glyph glyph-name="uni1EA7" unicode="&#x1ea7;" horiz-adv-x="546" 
d="M79 30q-38 36 -38 98v42q0 64 43.5 102.5t127.5 38.5h167v56q0 33 -11 53.5t-39.5 31.5t-81.5 11h-164v59q88 20 198 21q102 0 150.5 -39.5t48.5 -129.5v-374h-79l-17 60q-9 -8 -42.5 -24t-78 -29t-86.5 -13q-60 0 -98 36zM283 75.5q34 8.5 63.5 19t32.5 12.5v154
l-140 -6q-97 -6 -97 -86v-24q0 -41 24 -59.5t59 -18.5q24 0 58 8.5zM109 839l75 -129h-59l-100 129h84zM308 733l107 -102h-60l-84 55l-91 -55h-60l118 102h70z" />
    <glyph glyph-name="uni1EA8" unicode="&#x1ea8;" horiz-adv-x="678" 
d="M275 737h128l246 -737h-105l-65 193h-282l-64 -193h-104zM454 284l-116 366l-117 -366h233zM448 889q44 13 44 45q0 17 -8.5 25t-27.5 8q-11 0 -35 -6v36q24 8 48 8q36 0 54.5 -17.5t18.5 -47.5q0 -70 -94 -96v45zM306 893h70l107 -102h-60l-84 55l-91 -55h-60z" />
    <glyph glyph-name="uni1EA9" unicode="&#x1ea9;" horiz-adv-x="546" 
d="M79 30q-38 36 -38 98v42q0 64 43.5 102.5t127.5 38.5h167v56q0 33 -11 53.5t-39.5 31.5t-81.5 11h-164v59q88 20 198 21q102 0 150.5 -39.5t48.5 -129.5v-374h-79l-17 60q-9 -8 -42.5 -24t-78 -29t-86.5 -13q-60 0 -98 36zM283 75.5q34 8.5 63.5 19t32.5 12.5v154
l-140 -6q-97 -6 -97 -86v-24q0 -41 24 -59.5t59 -18.5q24 0 58 8.5zM380 729q44 13 44 45q0 17 -8.5 25t-27.5 8q-11 0 -35 -6v36q24 8 48 8q36 0 54.5 -17.5t18.5 -47.5q0 -70 -94 -96v45zM238 733h70l107 -102h-60l-84 55l-91 -55h-60z" />
    <glyph glyph-name="uni1EAA" unicode="&#x1eaa;" horiz-adv-x="678" 
d="M275 737h128l246 -737h-105l-65 193h-282l-64 -193h-104zM454 284l-116 366l-117 -366h233zM294.5 1021q16.5 -5 40.5 -16q19 -8 32 -12.5t27 -4.5q22 0 35.5 10.5t13.5 30.5h51q-3 -48 -23.5 -69.5t-60.5 -21.5q-29 0 -77 20q-22 9 -36.5 13.5t-27.5 4.5
q-18 0 -30 -10.5t-13 -28.5h-51q5 89 84 89q19 0 35.5 -5zM483 791h-60l-84 55l-91 -55h-60l118 102h70z" />
    <glyph glyph-name="uni1EAB" unicode="&#x1eab;" horiz-adv-x="546" 
d="M79 30q-38 36 -38 98v42q0 64 43.5 102.5t127.5 38.5h167v56q0 33 -11 53.5t-39.5 31.5t-81.5 11h-164v59q88 20 198 21q102 0 150.5 -39.5t48.5 -129.5v-374h-79l-17 60q-9 -8 -42.5 -24t-78 -29t-86.5 -13q-60 0 -98 36zM283 75.5q34 8.5 63.5 19t32.5 12.5v154
l-140 -6q-97 -6 -97 -86v-24q0 -41 24 -59.5t59 -18.5q24 0 58 8.5zM226.5 861q16.5 -5 40.5 -16q19 -8 32 -12.5t27 -4.5q22 0 35.5 10.5t13.5 30.5h51q-3 -48 -23.5 -69.5t-60.5 -21.5q-29 0 -77 20q-22 9 -36.5 13.5t-27.5 4.5q-18 0 -30 -10.5t-13 -28.5h-51q5 89 84 89
q19 0 35.5 -5zM415 631h-60l-84 55l-91 -55h-60l118 102h70z" />
    <glyph glyph-name="uni1EAC" unicode="&#x1eac;" horiz-adv-x="678" 
d="M275 737h128l246 -737h-105l-65 193h-282l-64 -193h-104zM454 284l-116 366l-117 -366h233zM306 928h70l107 -137h-60l-84 91l-91 -91h-60zM300.5 -210.5q-4.5 4.5 -4.5 12.5v84q0 18 17 18h47q17 0 17 -18v-84q0 -8 -4.5 -12.5t-12.5 -4.5h-47q-8 0 -12.5 4.5z" />
    <glyph glyph-name="uni1EAD" unicode="&#x1ead;" horiz-adv-x="546" 
d="M79 30q-38 36 -38 98v42q0 64 43.5 102.5t127.5 38.5h167v56q0 33 -11 53.5t-39.5 31.5t-81.5 11h-164v59q88 20 198 21q102 0 150.5 -39.5t48.5 -129.5v-374h-79l-17 60q-9 -8 -42.5 -24t-78 -29t-86.5 -13q-60 0 -98 36zM283 75.5q34 8.5 63.5 19t32.5 12.5v154
l-140 -6q-97 -6 -97 -86v-24q0 -41 24 -59.5t59 -18.5q24 0 58 8.5zM238 768h70l107 -137h-60l-84 91l-91 -91h-60zM230.5 -210.5q-4.5 4.5 -4.5 12.5v84q0 18 17 18h47q17 0 17 -18v-84q0 -8 -4.5 -12.5t-12.5 -4.5h-47q-8 0 -12.5 4.5z" />
    <glyph glyph-name="uni1EAE" unicode="&#x1eae;" horiz-adv-x="678" 
d="M275 737h128l246 -737h-105l-65 193h-282l-64 -193h-104zM454 284l-116 366l-117 -366h233zM394 1043h84l-122 -138h-59zM269 838.5q23 -17.5 59 -17.5q42 0 65.5 16.5t23.5 55.5h49q0 -60 -36.5 -87.5t-98.5 -27.5q-61 0 -97 28t-36 87h48q0 -37 23 -54.5z" />
    <glyph glyph-name="uni1EAF" unicode="&#x1eaf;" horiz-adv-x="546" 
d="M79 30q-38 36 -38 98v42q0 64 43.5 102.5t127.5 38.5h167v56q0 33 -11 53.5t-39.5 31.5t-81.5 11h-164v59q88 20 198 21q102 0 150.5 -39.5t48.5 -129.5v-374h-79l-17 60q-9 -8 -42.5 -24t-78 -29t-86.5 -13q-60 0 -98 36zM283 75.5q34 8.5 63.5 19t32.5 12.5v154
l-140 -6q-97 -6 -97 -86v-24q0 -41 24 -59.5t59 -18.5q24 0 58 8.5zM326 883h84l-122 -138h-59zM201 678.5q23 -17.5 59 -17.5q42 0 65.5 16.5t23.5 55.5h49q0 -60 -36.5 -87.5t-98.5 -27.5q-61 0 -97 28t-36 87h48q0 -37 23 -54.5z" />
    <glyph glyph-name="uni1EB0" unicode="&#x1eb0;" horiz-adv-x="678" 
d="M275 737h128l246 -737h-105l-65 193h-282l-64 -193h-104zM454 284l-116 366l-117 -366h233zM193 1043h83l98 -138h-59zM269 838.5q23 -17.5 59 -17.5q42 0 65.5 16.5t23.5 55.5h49q0 -60 -36.5 -87.5t-98.5 -27.5q-61 0 -97 28t-36 87h48q0 -37 23 -54.5z" />
    <glyph glyph-name="uni1EB1" unicode="&#x1eb1;" horiz-adv-x="546" 
d="M79 30q-38 36 -38 98v42q0 64 43.5 102.5t127.5 38.5h167v56q0 33 -11 53.5t-39.5 31.5t-81.5 11h-164v59q88 20 198 21q102 0 150.5 -39.5t48.5 -129.5v-374h-79l-17 60q-9 -8 -42.5 -24t-78 -29t-86.5 -13q-60 0 -98 36zM283 75.5q34 8.5 63.5 19t32.5 12.5v154
l-140 -6q-97 -6 -97 -86v-24q0 -41 24 -59.5t59 -18.5q24 0 58 8.5zM125 883h83l98 -138h-59zM201 678.5q23 -17.5 59 -17.5q42 0 65.5 16.5t23.5 55.5h49q0 -60 -36.5 -87.5t-98.5 -27.5q-61 0 -97 28t-36 87h48q0 -37 23 -54.5z" />
    <glyph glyph-name="uni1EB2" unicode="&#x1eb2;" horiz-adv-x="678" 
d="M275 737h128l246 -737h-105l-65 193h-282l-64 -193h-104zM454 284l-116 366l-117 -366h233zM313 909q27 8 39 22t12 31q0 19 -10 29t-34 10q-18 0 -34 -6v41q20 7 47 7q42 0 63.5 -20.5t21.5 -57.5q0 -72 -105 -102v46zM234 806q-36 28 -36 87h48q0 -37 23 -54.5
t59 -17.5q42 0 65.5 16.5t23.5 55.5h49q0 -60 -36.5 -87.5t-98.5 -27.5q-61 0 -97 28z" />
    <glyph glyph-name="uni1EB3" unicode="&#x1eb3;" horiz-adv-x="546" 
d="M79 30q-38 36 -38 98v42q0 64 43.5 102.5t127.5 38.5h167v56q0 33 -11 53.5t-39.5 31.5t-81.5 11h-164v59q88 20 198 21q102 0 150.5 -39.5t48.5 -129.5v-374h-79l-17 60q-9 -8 -42.5 -24t-78 -29t-86.5 -13q-60 0 -98 36zM283 75.5q34 8.5 63.5 19t32.5 12.5v154
l-140 -6q-97 -6 -97 -86v-24q0 -41 24 -59.5t59 -18.5q24 0 58 8.5zM245 749q27 8 39 22t12 31q0 19 -10 29t-34 10q-18 0 -34 -6v41q20 7 47 7q42 0 63.5 -20.5t21.5 -57.5q0 -72 -105 -102v46zM166 646q-36 28 -36 87h48q0 -37 23 -54.5t59 -17.5q42 0 65.5 16.5
t23.5 55.5h49q0 -60 -36.5 -87.5t-98.5 -27.5q-61 0 -97 28z" />
    <glyph glyph-name="uni1EB4" unicode="&#x1eb4;" horiz-adv-x="678" 
d="M275 737h128l246 -737h-105l-65 193h-282l-64 -193h-104zM454 284l-116 366l-117 -366h233zM294.5 1012q16.5 -5 40.5 -16q19 -8 32 -12.5t27 -4.5q22 0 35.5 10.5t13.5 30.5h51q-3 -48 -23.5 -69.5t-60.5 -21.5q-18 0 -34.5 5t-40.5 15q-22 9 -35 13.5t-26 4.5
q-21 0 -34 -10.5t-14 -28.5h-51q5 89 84 89q19 0 35.5 -5zM269 838.5q23 -17.5 59 -17.5q42 0 65.5 16.5t23.5 55.5h49q0 -60 -36.5 -87.5t-98.5 -27.5q-61 0 -97 28t-36 87h48q0 -37 23 -54.5z" />
    <glyph glyph-name="uni1EB5" unicode="&#x1eb5;" horiz-adv-x="546" 
d="M79 30q-38 36 -38 98v42q0 64 43.5 102.5t127.5 38.5h167v56q0 33 -11 53.5t-39.5 31.5t-81.5 11h-164v59q88 20 198 21q102 0 150.5 -39.5t48.5 -129.5v-374h-79l-17 60q-9 -8 -42.5 -24t-78 -29t-86.5 -13q-60 0 -98 36zM283 75.5q34 8.5 63.5 19t32.5 12.5v154
l-140 -6q-97 -6 -97 -86v-24q0 -41 24 -59.5t59 -18.5q24 0 58 8.5zM226.5 852q16.5 -5 40.5 -16q19 -8 32 -12.5t27 -4.5q22 0 35.5 10.5t13.5 30.5h51q-3 -48 -23.5 -69.5t-60.5 -21.5q-18 0 -34.5 5t-40.5 15q-22 9 -35 13.5t-26 4.5q-21 0 -34 -10.5t-14 -28.5h-51
q5 89 84 89q19 0 35.5 -5zM201 678.5q23 -17.5 59 -17.5q42 0 65.5 16.5t23.5 55.5h49q0 -60 -36.5 -87.5t-98.5 -27.5q-61 0 -97 28t-36 87h48q0 -37 23 -54.5z" />
    <glyph glyph-name="uni1EB6" unicode="&#x1eb6;" horiz-adv-x="678" 
d="M275 737h128l246 -737h-105l-65 193h-282l-64 -193h-104zM454 284l-116 366l-117 -366h233zM234 822q-36 35 -36 110h47q0 -50 23.5 -74t60.5 -24q88 0 88 98h49q0 -76 -36.5 -110.5t-98.5 -34.5q-61 0 -97 35zM300.5 -210.5q-4.5 4.5 -4.5 12.5v84q0 18 17 18h47
q17 0 17 -18v-84q0 -8 -4.5 -12.5t-12.5 -4.5h-47q-8 0 -12.5 4.5z" />
    <glyph glyph-name="uni1EB7" unicode="&#x1eb7;" horiz-adv-x="546" 
d="M79 30q-38 36 -38 98v42q0 64 43.5 102.5t127.5 38.5h167v56q0 33 -11 53.5t-39.5 31.5t-81.5 11h-164v59q88 20 198 21q102 0 150.5 -39.5t48.5 -129.5v-374h-79l-17 60q-9 -8 -42.5 -24t-78 -29t-86.5 -13q-60 0 -98 36zM283 75.5q34 8.5 63.5 19t32.5 12.5v154
l-140 -6q-97 -6 -97 -86v-24q0 -41 24 -59.5t59 -18.5q24 0 58 8.5zM166 662q-36 35 -36 110h47q0 -50 24 -74t60 -24q88 0 88 98h49q0 -76 -36.5 -110.5t-98.5 -34.5q-61 0 -97 35zM230.5 -210.5q-4.5 4.5 -4.5 12.5v84q0 18 17 18h47q17 0 17 -18v-84q0 -8 -4.5 -12.5
t-12.5 -4.5h-47q-8 0 -12.5 4.5z" />
    <glyph glyph-name="uni1EB8" unicode="&#x1eb8;" 
d="M119 26q-46 30 -46 119v438q0 81 44 117.5t106 36.5q119 0 269 -8l45 -2v-83h-284q-79 0 -79 -79v-153l318 -6v-78l-318 -7v-151q0 -47 22 -63.5t59 -16.5h282v-83q-172 -11 -306 -11q-66 0 -112 30zM286.5 -210.5q-4.5 4.5 -4.5 12.5v84q0 18 17 18h47q17 0 17 -18v-84
q0 -8 -4.5 -12.5t-12.5 -4.5h-47q-8 0 -12.5 4.5z" />
    <glyph glyph-name="uni1EB9" unicode="&#x1eb9;" horiz-adv-x="540" 
d="M144.5 19q-49.5 25 -71 84t-21.5 165q0 108 21.5 167t70.5 83t136 24q76 0 121 -16t66 -55t21 -108q0 -71 -41 -102.5t-118 -31.5h-177q1 -61 13.5 -94.5t45.5 -48.5t95 -15h167v-60q-55 -8 -97 -12.5t-95 -4.5q-87 0 -136.5 25zM320 292q41 0 59.5 15.5t18.5 54.5
q0 60 -26.5 83t-91.5 23q-51 0 -78.5 -15t-39 -52.5t-11.5 -108.5h169zM230.5 -210.5q-4.5 4.5 -4.5 12.5v84q0 18 17 18h47q17 0 17 -18v-84q0 -8 -4.5 -12.5t-12.5 -4.5h-47q-8 0 -12.5 4.5z" />
    <glyph glyph-name="uni1EBA" unicode="&#x1eba;" 
d="M119 26q-46 30 -46 119v438q0 81 44 117.5t106 36.5q119 0 269 -8l45 -2v-83h-284q-79 0 -79 -79v-153l318 -6v-78l-318 -7v-151q0 -47 22 -63.5t59 -16.5h282v-83q-172 -11 -306 -11q-66 0 -112 30zM288 815q27 8 39 22t12 31q0 19 -10 29t-34 10q-17 0 -34 -6v41
q20 7 47 7q42 0 63.5 -20.5t21.5 -57.5q0 -72 -105 -102v46z" />
    <glyph glyph-name="uni1EBB" unicode="&#x1ebb;" horiz-adv-x="540" 
d="M144.5 19q-49.5 25 -71 84t-21.5 165q0 108 21.5 167t70.5 83t136 24q76 0 121 -16t66 -55t21 -108q0 -71 -41 -102.5t-118 -31.5h-177q1 -61 13.5 -94.5t45.5 -48.5t95 -15h167v-60q-55 -8 -97 -12.5t-95 -4.5q-87 0 -136.5 25zM320 292q41 0 59.5 15.5t18.5 54.5
q0 60 -26.5 83t-91.5 23q-51 0 -78.5 -15t-39 -52.5t-11.5 -108.5h169zM249 646q27 8 39 22t12 31q0 19 -10 29t-34 10q-18 0 -34 -6v41q20 7 47 7q42 0 63.5 -20.5t21.5 -57.5q0 -72 -105 -102v46z" />
    <glyph glyph-name="uni1EBC" unicode="&#x1ebc;" 
d="M119 26q-46 30 -46 119v438q0 81 44 117.5t106 36.5q119 0 269 -8l45 -2v-83h-284q-79 0 -79 -79v-153l318 -6v-78l-318 -7v-151q0 -47 22 -63.5t59 -16.5h282v-83q-172 -11 -306 -11q-66 0 -112 30zM165 887.5q28 27.5 68 27.5q23 0 43 -8t45 -23q22 -13 36 -19t29 -6
q25 0 39.5 15.5t15.5 44.5h51q-1 -56 -27 -86.5t-72 -30.5q-22 0 -41.5 8t-44.5 23q-21 13 -36.5 19.5t-30.5 6.5q-23 0 -38 -15t-16 -43h-51q2 59 30 86.5z" />
    <glyph glyph-name="uni1EBD" unicode="&#x1ebd;" horiz-adv-x="540" 
d="M144.5 19q-49.5 25 -71 84t-21.5 165q0 108 21.5 167t70.5 83t136 24q76 0 121 -16t66 -55t21 -108q0 -71 -41 -102.5t-118 -31.5h-177q1 -61 13.5 -94.5t45.5 -48.5t95 -15h167v-60q-55 -8 -97 -12.5t-95 -4.5q-87 0 -136.5 25zM320 292q41 0 59.5 15.5t18.5 54.5
q0 60 -26.5 83t-91.5 23q-51 0 -78.5 -15t-39 -52.5t-11.5 -108.5h169zM131 727.5q28 27.5 68 27.5q23 0 43 -8t45 -23q22 -13 36 -19t29 -6q25 0 39.5 15.5t15.5 44.5h51q-1 -56 -27 -86.5t-72 -30.5q-22 0 -41.5 8t-44.5 23q-21 13 -36.5 19.5t-30.5 6.5q-23 0 -38 -15
t-16 -43h-51q2 59 30 86.5z" />
    <glyph glyph-name="uni1EBE" unicode="&#x1ebe;" 
d="M119 26q-46 30 -46 119v438q0 81 44 117.5t106 36.5q119 0 269 -8l45 -2v-83h-284q-79 0 -79 -79v-153l318 -6v-78l-318 -7v-151q0 -47 22 -63.5t59 -16.5h282v-83q-172 -11 -306 -11q-66 0 -112 30zM557 999l-99 -129h-59l74 129h84zM350 893l107 -102h-60l-84 55
l-91 -55h-60l118 102h70z" />
    <glyph glyph-name="uni1EBF" unicode="&#x1ebf;" horiz-adv-x="540" 
d="M144.5 19q-49.5 25 -71 84t-21.5 165q0 108 21.5 167t70.5 83t136 24q76 0 121 -16t66 -55t21 -108q0 -71 -41 -102.5t-118 -31.5h-177q1 -61 13.5 -94.5t45.5 -48.5t95 -15h167v-60q-55 -8 -97 -12.5t-95 -4.5q-87 0 -136.5 25zM320 292q41 0 59.5 15.5t18.5 54.5
q0 60 -26.5 83t-91.5 23q-51 0 -78.5 -15t-39 -52.5t-11.5 -108.5h169zM515 839l-99 -129h-59l74 129h84zM308 733l107 -102h-60l-84 55l-91 -55h-60l118 102h70z" />
    <glyph glyph-name="uni1EC0" unicode="&#x1ec0;" 
d="M119 26q-46 30 -46 119v438q0 81 44 117.5t106 36.5q119 0 269 -8l45 -2v-83h-284q-79 0 -79 -79v-153l318 -6v-78l-318 -7v-151q0 -47 22 -63.5t59 -16.5h282v-83q-172 -11 -306 -11q-66 0 -112 30zM151 999l75 -129h-59l-100 129h84zM350 893l107 -102h-60l-84 55
l-91 -55h-60l118 102h70z" />
    <glyph glyph-name="uni1EC1" unicode="&#x1ec1;" horiz-adv-x="540" 
d="M144.5 19q-49.5 25 -71 84t-21.5 165q0 108 21.5 167t70.5 83t136 24q76 0 121 -16t66 -55t21 -108q0 -71 -41 -102.5t-118 -31.5h-177q1 -61 13.5 -94.5t45.5 -48.5t95 -15h167v-60q-55 -8 -97 -12.5t-95 -4.5q-87 0 -136.5 25zM320 292q41 0 59.5 15.5t18.5 54.5
q0 60 -26.5 83t-91.5 23q-51 0 -78.5 -15t-39 -52.5t-11.5 -108.5h169zM109 839l75 -129h-59l-100 129h84zM308 733l107 -102h-60l-84 55l-91 -55h-60l118 102h70z" />
    <glyph glyph-name="uni1EC2" unicode="&#x1ec2;" 
d="M119 26q-46 30 -46 119v438q0 81 44 117.5t106 36.5q119 0 269 -8l45 -2v-83h-284q-79 0 -79 -79v-153l318 -6v-78l-318 -7v-151q0 -47 22 -63.5t59 -16.5h282v-83q-172 -11 -306 -11q-66 0 -112 30zM422 889q44 13 44 45q0 17 -8.5 25t-27.5 8q-11 0 -35 -6v36
q24 8 48 8q36 0 54.5 -17.5t18.5 -47.5q0 -70 -94 -96v45zM280 893h70l107 -102h-60l-84 55l-91 -55h-60z" />
    <glyph glyph-name="uni1EC3" unicode="&#x1ec3;" horiz-adv-x="540" 
d="M144.5 19q-49.5 25 -71 84t-21.5 165q0 108 21.5 167t70.5 83t136 24q76 0 121 -16t66 -55t21 -108q0 -71 -41 -102.5t-118 -31.5h-177q1 -61 13.5 -94.5t45.5 -48.5t95 -15h167v-60q-55 -8 -97 -12.5t-95 -4.5q-87 0 -136.5 25zM320 292q41 0 59.5 15.5t18.5 54.5
q0 60 -26.5 83t-91.5 23q-51 0 -78.5 -15t-39 -52.5t-11.5 -108.5h169zM380 729q44 13 44 45q0 17 -8.5 25t-27.5 8q-11 0 -35 -6v36q24 8 48 8q36 0 54.5 -17.5t18.5 -47.5q0 -70 -94 -96v45zM238 733h70l107 -102h-60l-84 55l-91 -55h-60z" />
    <glyph glyph-name="uni1EC4" unicode="&#x1ec4;" 
d="M119 26q-46 30 -46 119v438q0 81 44 117.5t106 36.5q119 0 269 -8l45 -2v-83h-284q-79 0 -79 -79v-153l318 -6v-78l-318 -7v-151q0 -47 22 -63.5t59 -16.5h282v-83q-172 -11 -306 -11q-66 0 -112 30zM268.5 1021q16.5 -5 40.5 -16q19 -8 32 -12.5t27 -4.5q22 0 35.5 10.5
t13.5 30.5h51q-3 -48 -23.5 -69.5t-60.5 -21.5q-29 0 -77 20q-22 9 -36.5 13.5t-27.5 4.5q-18 0 -30 -10.5t-13 -28.5h-51q5 89 84 89q19 0 35.5 -5zM457 791h-60l-84 55l-91 -55h-60l118 102h70z" />
    <glyph glyph-name="uni1EC5" unicode="&#x1ec5;" horiz-adv-x="540" 
d="M144.5 19q-49.5 25 -71 84t-21.5 165q0 108 21.5 167t70.5 83t136 24q76 0 121 -16t66 -55t21 -108q0 -71 -41 -102.5t-118 -31.5h-177q1 -61 13.5 -94.5t45.5 -48.5t95 -15h167v-60q-55 -8 -97 -12.5t-95 -4.5q-87 0 -136.5 25zM320 292q41 0 59.5 15.5t18.5 54.5
q0 60 -26.5 83t-91.5 23q-51 0 -78.5 -15t-39 -52.5t-11.5 -108.5h169zM226.5 861q16.5 -5 40.5 -16q19 -8 32 -12.5t27 -4.5q22 0 35.5 10.5t13.5 30.5h51q-3 -48 -23.5 -69.5t-60.5 -21.5q-29 0 -77 20q-22 9 -36.5 13.5t-27.5 4.5q-18 0 -30 -10.5t-13 -28.5h-51
q5 89 84 89q19 0 35.5 -5zM415 631h-60l-84 55l-91 -55h-60l118 102h70z" />
    <glyph glyph-name="uni1EC6" unicode="&#x1ec6;" 
d="M119 26q-46 30 -46 119v438q0 81 44 117.5t106 36.5q119 0 269 -8l45 -2v-83h-284q-79 0 -79 -79v-153l318 -6v-78l-318 -7v-151q0 -47 22 -63.5t59 -16.5h282v-83q-172 -11 -306 -11q-66 0 -112 30zM280 928h70l107 -137h-60l-84 91l-91 -91h-60zM286.5 -210.5
q-4.5 4.5 -4.5 12.5v84q0 18 17 18h47q17 0 17 -18v-84q0 -8 -4.5 -12.5t-12.5 -4.5h-47q-8 0 -12.5 4.5z" />
    <glyph glyph-name="uni1EC7" unicode="&#x1ec7;" horiz-adv-x="540" 
d="M144.5 19q-49.5 25 -71 84t-21.5 165q0 108 21.5 167t70.5 83t136 24q76 0 121 -16t66 -55t21 -108q0 -71 -41 -102.5t-118 -31.5h-177q1 -61 13.5 -94.5t45.5 -48.5t95 -15h167v-60q-55 -8 -97 -12.5t-95 -4.5q-87 0 -136.5 25zM320 292q41 0 59.5 15.5t18.5 54.5
q0 60 -26.5 83t-91.5 23q-51 0 -78.5 -15t-39 -52.5t-11.5 -108.5h169zM238 768h70l107 -137h-60l-84 91l-91 -91h-60zM230.5 -210.5q-4.5 4.5 -4.5 12.5v84q0 18 17 18h47q17 0 17 -18v-84q0 -8 -4.5 -12.5t-12.5 -4.5h-47q-8 0 -12.5 4.5z" />
    <glyph glyph-name="uni1EC8" unicode="&#x1ec8;" horiz-adv-x="247" 
d="M73 737h101v-737h-101v737zM99 815q27 8 39 22t12 31q0 19 -10 29t-34 10q-17 0 -34 -6v41q20 7 47 7q42 0 63.5 -20.5t21.5 -57.5q0 -72 -105 -102v46z" />
    <glyph glyph-name="uni1EC9" unicode="&#x1ec9;" horiz-adv-x="238" 
d="M70 535h100v-535h-100v535zM99 646q27 8 39 22t12 31q0 19 -10 29t-34 10q-18 0 -34 -6v41q20 7 47 7q42 0 63.5 -20.5t21.5 -57.5q0 -72 -105 -102v46z" />
    <glyph glyph-name="uni1ECA" unicode="&#x1eca;" horiz-adv-x="247" 
d="M73 737h101v-737h-101v737zM85.5 -210.5q-4.5 4.5 -4.5 12.5v84q0 18 17 18h47q17 0 17 -18v-84q0 -8 -4.5 -12.5t-12.5 -4.5h-47q-8 0 -12.5 4.5z" />
    <glyph glyph-name="uni1ECB" unicode="&#x1ecb;" horiz-adv-x="240" 
d="M71 629.5q-5 4.5 -5 12.5v84q0 18 18 18h74q8 0 12 -5t4 -13v-84q0 -17 -16 -17h-74q-8 0 -13 4.5zM70 535h100v-535h-100v535zM80.5 -210.5q-4.5 4.5 -4.5 12.5v84q0 18 17 18h47q17 0 17 -18v-84q0 -8 -4.5 -12.5t-12.5 -4.5h-47q-8 0 -12.5 4.5z" />
    <glyph glyph-name="uni1ECC" unicode="&#x1ecc;" horiz-adv-x="690" 
d="M179 22q-61 28 -92.5 108t-31.5 236t32 237.5t93 110.5t165 29q106 0 167 -29t92.5 -110.5t31.5 -237.5t-31.5 -236t-92.5 -108t-167 -28q-105 0 -166 28zM459 105q40 21 58 81t18 180q0 125 -18 186t-57.5 81t-114.5 20q-72 0 -111.5 -20.5t-59 -81.5t-19.5 -185
q0 -121 17.5 -180.5t57 -80.5t115.5 -21q74 0 114 21zM307.5 -210.5q-4.5 4.5 -4.5 12.5v84q0 18 17 18h47q17 0 17 -18v-84q0 -8 -4.5 -12.5t-12.5 -4.5h-47q-8 0 -12.5 4.5z" />
    <glyph glyph-name="uni1ECD" unicode="&#x1ecd;" horiz-adv-x="576" 
d="M152 18q-51 24 -75.5 83.5t-24.5 166.5q0 110 25 169.5t75.5 82t135.5 22.5t135.5 -23t75.5 -82.5t25 -168.5q0 -108 -24.5 -167.5t-75 -83t-136.5 -23.5q-85 0 -136 24zM366.5 89.5q28.5 13.5 43 55t14.5 124.5t-14.5 124.5t-43 54.5t-78.5 13q-51 0 -78.5 -13
t-42 -54.5t-14.5 -124.5q0 -84 14.5 -125.5t42 -54.5t78.5 -13q50 0 78.5 13.5zM248.5 -210.5q-4.5 4.5 -4.5 12.5v84q0 18 17 18h47q17 0 17 -18v-84q0 -8 -4.5 -12.5t-12.5 -4.5h-47q-8 0 -12.5 4.5z" />
    <glyph glyph-name="uni1ECE" unicode="&#x1ece;" horiz-adv-x="690" 
d="M179 22q-61 28 -92.5 108t-31.5 236t32 237.5t93 110.5t165 29q106 0 167 -29t92.5 -110.5t31.5 -237.5t-31.5 -236t-92.5 -108t-167 -28q-105 0 -166 28zM459 105q40 21 58 81t18 180q0 125 -18 186t-57.5 81t-114.5 20q-72 0 -111.5 -20.5t-59 -81.5t-19.5 -185
q0 -121 17.5 -180.5t57 -80.5t115.5 -21q74 0 114 21zM321 815q27 8 39 22t12 31q0 19 -10 29t-34 10q-17 0 -34 -6v41q20 7 47 7q42 0 63.5 -20.5t21.5 -57.5q0 -72 -105 -102v46z" />
    <glyph glyph-name="uni1ECF" unicode="&#x1ecf;" horiz-adv-x="576" 
d="M152 18q-51 24 -75.5 83.5t-24.5 166.5q0 110 25 169.5t75.5 82t135.5 22.5t135.5 -23t75.5 -82.5t25 -168.5q0 -108 -24.5 -167.5t-75 -83t-136.5 -23.5q-85 0 -136 24zM366.5 89.5q28.5 13.5 43 55t14.5 124.5t-14.5 124.5t-43 54.5t-78.5 13q-51 0 -78.5 -13
t-42 -54.5t-14.5 -124.5q0 -84 14.5 -125.5t42 -54.5t78.5 -13q50 0 78.5 13.5zM267 646q27 8 39 22t12 31q0 19 -10 29t-34 10q-18 0 -34 -6v41q20 7 47 7q42 0 63.5 -20.5t21.5 -57.5q0 -72 -105 -102v46z" />
    <glyph glyph-name="uni1ED0" unicode="&#x1ed0;" horiz-adv-x="690" 
d="M179 22q-61 28 -92.5 108t-31.5 236t32 237.5t93 110.5t165 29q106 0 167 -29t92.5 -110.5t31.5 -237.5t-31.5 -236t-92.5 -108t-167 -28q-105 0 -166 28zM459 105q40 21 58 81t18 180q0 125 -18 186t-57.5 81t-114.5 20q-72 0 -111.5 -20.5t-59 -81.5t-19.5 -185
q0 -121 17.5 -180.5t57 -80.5t115.5 -21q74 0 114 21zM590 999l-99 -129h-59l74 129h84zM383 893l107 -102h-60l-84 55l-91 -55h-60l118 102h70z" />
    <glyph glyph-name="uni1ED1" unicode="&#x1ed1;" horiz-adv-x="576" 
d="M152 18q-51 24 -75.5 83.5t-24.5 166.5q0 110 25 169.5t75.5 82t135.5 22.5t135.5 -23t75.5 -82.5t25 -168.5q0 -108 -24.5 -167.5t-75 -83t-136.5 -23.5q-85 0 -136 24zM366.5 89.5q28.5 13.5 43 55t14.5 124.5t-14.5 124.5t-43 54.5t-78.5 13q-51 0 -78.5 -13
t-42 -54.5t-14.5 -124.5q0 -84 14.5 -125.5t42 -54.5t78.5 -13q50 0 78.5 13.5zM533 839l-99 -129h-59l74 129h84zM326 733l107 -102h-60l-84 55l-91 -55h-60l118 102h70z" />
    <glyph glyph-name="uni1ED2" unicode="&#x1ed2;" horiz-adv-x="690" 
d="M179 22q-61 28 -92.5 108t-31.5 236t32 237.5t93 110.5t165 29q106 0 167 -29t92.5 -110.5t31.5 -237.5t-31.5 -236t-92.5 -108t-167 -28q-105 0 -166 28zM459 105q40 21 58 81t18 180q0 125 -18 186t-57.5 81t-114.5 20q-72 0 -111.5 -20.5t-59 -81.5t-19.5 -185
q0 -121 17.5 -180.5t57 -80.5t115.5 -21q74 0 114 21zM184 999l75 -129h-59l-100 129h84zM383 893l107 -102h-60l-84 55l-91 -55h-60l118 102h70z" />
    <glyph glyph-name="uni1ED3" unicode="&#x1ed3;" horiz-adv-x="576" 
d="M152 18q-51 24 -75.5 83.5t-24.5 166.5q0 110 25 169.5t75.5 82t135.5 22.5t135.5 -23t75.5 -82.5t25 -168.5q0 -108 -24.5 -167.5t-75 -83t-136.5 -23.5q-85 0 -136 24zM366.5 89.5q28.5 13.5 43 55t14.5 124.5t-14.5 124.5t-43 54.5t-78.5 13q-51 0 -78.5 -13
t-42 -54.5t-14.5 -124.5q0 -84 14.5 -125.5t42 -54.5t78.5 -13q50 0 78.5 13.5zM127 839l75 -129h-59l-100 129h84zM326 733l107 -102h-60l-84 55l-91 -55h-60l118 102h70z" />
    <glyph glyph-name="uni1ED4" unicode="&#x1ed4;" horiz-adv-x="690" 
d="M179 22q-61 28 -92.5 108t-31.5 236t32 237.5t93 110.5t165 29q106 0 167 -29t92.5 -110.5t31.5 -237.5t-31.5 -236t-92.5 -108t-167 -28q-105 0 -166 28zM459 105q40 21 58 81t18 180q0 125 -18 186t-57.5 81t-114.5 20q-72 0 -111.5 -20.5t-59 -81.5t-19.5 -185
q0 -121 17.5 -180.5t57 -80.5t115.5 -21q74 0 114 21zM455 889q44 13 44 45q0 17 -8.5 25t-27.5 8q-11 0 -35 -6v36q24 8 48 8q36 0 54.5 -17.5t18.5 -47.5q0 -70 -94 -96v45zM313 893h70l107 -102h-60l-84 55l-91 -55h-60z" />
    <glyph glyph-name="uni1ED5" unicode="&#x1ed5;" horiz-adv-x="576" 
d="M152 18q-51 24 -75.5 83.5t-24.5 166.5q0 110 25 169.5t75.5 82t135.5 22.5t135.5 -23t75.5 -82.5t25 -168.5q0 -108 -24.5 -167.5t-75 -83t-136.5 -23.5q-85 0 -136 24zM366.5 89.5q28.5 13.5 43 55t14.5 124.5t-14.5 124.5t-43 54.5t-78.5 13q-51 0 -78.5 -13
t-42 -54.5t-14.5 -124.5q0 -84 14.5 -125.5t42 -54.5t78.5 -13q50 0 78.5 13.5zM398 729q44 13 44 45q0 17 -8.5 25t-27.5 8q-11 0 -35 -6v36q24 8 48 8q36 0 54.5 -17.5t18.5 -47.5q0 -70 -94 -96v45zM256 733h70l107 -102h-60l-84 55l-91 -55h-60z" />
    <glyph glyph-name="uni1ED6" unicode="&#x1ed6;" horiz-adv-x="690" 
d="M179 22q-61 28 -92.5 108t-31.5 236t32 237.5t93 110.5t165 29q106 0 167 -29t92.5 -110.5t31.5 -237.5t-31.5 -236t-92.5 -108t-167 -28q-105 0 -166 28zM459 105q40 21 58 81t18 180q0 125 -18 186t-57.5 81t-114.5 20q-72 0 -111.5 -20.5t-59 -81.5t-19.5 -185
q0 -121 17.5 -180.5t57 -80.5t115.5 -21q74 0 114 21zM301.5 1021q16.5 -5 40.5 -16q19 -8 32 -12.5t27 -4.5q22 0 35.5 10.5t13.5 30.5h51q-3 -48 -23.5 -69.5t-60.5 -21.5q-29 0 -77 20q-22 9 -36.5 13.5t-27.5 4.5q-18 0 -30 -10.5t-13 -28.5h-51q5 89 84 89
q19 0 35.5 -5zM490 791h-60l-84 55l-91 -55h-60l118 102h70z" />
    <glyph glyph-name="uni1ED7" unicode="&#x1ed7;" horiz-adv-x="576" 
d="M152 18q-51 24 -75.5 83.5t-24.5 166.5q0 110 25 169.5t75.5 82t135.5 22.5t135.5 -23t75.5 -82.5t25 -168.5q0 -108 -24.5 -167.5t-75 -83t-136.5 -23.5q-85 0 -136 24zM366.5 89.5q28.5 13.5 43 55t14.5 124.5t-14.5 124.5t-43 54.5t-78.5 13q-51 0 -78.5 -13
t-42 -54.5t-14.5 -124.5q0 -84 14.5 -125.5t42 -54.5t78.5 -13q50 0 78.5 13.5zM244.5 861q16.5 -5 40.5 -16q19 -8 32 -12.5t27 -4.5q22 0 35.5 10.5t13.5 30.5h51q-3 -48 -23.5 -69.5t-60.5 -21.5q-29 0 -77 20q-22 9 -36.5 13.5t-27.5 4.5q-18 0 -30 -10.5t-13 -28.5h-51
q5 89 84 89q19 0 35.5 -5zM433 631h-60l-84 55l-91 -55h-60l118 102h70z" />
    <glyph glyph-name="uni1ED8" unicode="&#x1ed8;" horiz-adv-x="690" 
d="M179 22q-61 28 -92.5 108t-31.5 236t32 237.5t93 110.5t165 29q106 0 167 -29t92.5 -110.5t31.5 -237.5t-31.5 -236t-92.5 -108t-167 -28q-105 0 -166 28zM459 105q40 21 58 81t18 180q0 125 -18 186t-57.5 81t-114.5 20q-72 0 -111.5 -20.5t-59 -81.5t-19.5 -185
q0 -121 17.5 -180.5t57 -80.5t115.5 -21q74 0 114 21zM313 928h70l107 -137h-60l-84 91l-91 -91h-60zM307.5 -210.5q-4.5 4.5 -4.5 12.5v84q0 18 17 18h47q17 0 17 -18v-84q0 -8 -4.5 -12.5t-12.5 -4.5h-47q-8 0 -12.5 4.5z" />
    <glyph glyph-name="uni1ED9" unicode="&#x1ed9;" horiz-adv-x="576" 
d="M152 18q-51 24 -75.5 83.5t-24.5 166.5q0 110 25 169.5t75.5 82t135.5 22.5t135.5 -23t75.5 -82.5t25 -168.5q0 -108 -24.5 -167.5t-75 -83t-136.5 -23.5q-85 0 -136 24zM366.5 89.5q28.5 13.5 43 55t14.5 124.5t-14.5 124.5t-43 54.5t-78.5 13q-51 0 -78.5 -13
t-42 -54.5t-14.5 -124.5q0 -84 14.5 -125.5t42 -54.5t78.5 -13q50 0 78.5 13.5zM256 768h70l107 -137h-60l-84 91l-91 -91h-60zM248.5 -210.5q-4.5 4.5 -4.5 12.5v84q0 18 17 18h47q17 0 17 -18v-84q0 -8 -4.5 -12.5t-12.5 -4.5h-47q-8 0 -12.5 4.5z" />
    <glyph glyph-name="uni1EDA" unicode="&#x1eda;" horiz-adv-x="690" 
d="M616 569.5q20 -76.5 20 -203.5q0 -156 -31.5 -236t-92.5 -108t-167 -28q-105 0 -166 28t-92.5 108t-31.5 236t32 237.5t93 110.5t165 29q51 0 91 -6h66q37 0 57 26t20 86h71q0 -72 -26 -112.5t-71 -51.5q43 -39 63 -115.5zM459 105q40 21 58 81t18 180q0 125 -18 186
t-57.5 81t-114.5 20q-72 0 -111.5 -20.5t-59 -81.5t-19.5 -185q0 -121 17.5 -180.5t57 -80.5t115.5 -21q74 0 114 21zM403 929h84l-122 -138h-59z" />
    <glyph glyph-name="uni1EDB" unicode="&#x1edb;" horiz-adv-x="576" 
d="M532.5 539q-23.5 -40 -63.5 -53q28 -32 41.5 -85t13.5 -133q0 -108 -24.5 -167.5t-75 -83t-136.5 -23.5q-85 0 -136 24t-75.5 83.5t-24.5 166.5q0 110 25 169.5t75.5 82t135.5 22.5q50 0 85 -7h35q37 0 56.5 26t19.5 86h72q0 -68 -23.5 -108zM366.5 89.5q28.5 13.5 43 55
t14.5 124.5t-14.5 124.5t-43 54.5t-78.5 13q-51 0 -78.5 -13t-42 -54.5t-14.5 -124.5q0 -84 14.5 -125.5t42 -54.5t78.5 -13q50 0 78.5 13.5zM350 769h84l-122 -138h-59z" />
    <glyph glyph-name="uni1EDC" unicode="&#x1edc;" horiz-adv-x="690" 
d="M616 569.5q20 -76.5 20 -203.5q0 -156 -31.5 -236t-92.5 -108t-167 -28q-105 0 -166 28t-92.5 108t-31.5 236t32 237.5t93 110.5t165 29q51 0 91 -6h66q37 0 57 26t20 86h71q0 -72 -26 -112.5t-71 -51.5q43 -39 63 -115.5zM459 105q40 21 58 81t18 180q0 125 -18 186
t-57.5 81t-114.5 20q-72 0 -111.5 -20.5t-59 -81.5t-19.5 -185q0 -121 17.5 -180.5t57 -80.5t115.5 -21q74 0 114 21zM185 929h83l98 -138h-59z" />
    <glyph glyph-name="uni1EDD" unicode="&#x1edd;" horiz-adv-x="576" 
d="M532.5 539q-23.5 -40 -63.5 -53q28 -32 41.5 -85t13.5 -133q0 -108 -24.5 -167.5t-75 -83t-136.5 -23.5q-85 0 -136 24t-75.5 83.5t-24.5 166.5q0 110 25 169.5t75.5 82t135.5 22.5q50 0 85 -7h35q37 0 56.5 26t19.5 86h72q0 -68 -23.5 -108zM366.5 89.5q28.5 13.5 43 55
t14.5 124.5t-14.5 124.5t-43 54.5t-78.5 13q-51 0 -78.5 -13t-42 -54.5t-14.5 -124.5q0 -84 14.5 -125.5t42 -54.5t78.5 -13q50 0 78.5 13.5zM147 769h83l98 -138h-59z" />
    <glyph glyph-name="uni1EDE" unicode="&#x1ede;" horiz-adv-x="690" 
d="M616 569.5q20 -76.5 20 -203.5q0 -156 -31.5 -236t-92.5 -108t-167 -28q-105 0 -166 28t-92.5 108t-31.5 236t32 237.5t93 110.5t165 29q51 0 91 -6h66q37 0 57 26t20 86h71q0 -72 -26 -112.5t-71 -51.5q43 -39 63 -115.5zM459 105q40 21 58 81t18 180q0 125 -18 186
t-57.5 81t-114.5 20q-72 0 -111.5 -20.5t-59 -81.5t-19.5 -185q0 -121 17.5 -180.5t57 -80.5t115.5 -21q74 0 114 21zM321 815q27 8 39 22t12 31q0 19 -10 29t-34 10q-17 0 -34 -6v41q20 7 47 7q42 0 63.5 -20.5t21.5 -57.5q0 -72 -105 -102v46z" />
    <glyph glyph-name="uni1EDF" unicode="&#x1edf;" horiz-adv-x="576" 
d="M532.5 539q-23.5 -40 -63.5 -53q28 -32 41.5 -85t13.5 -133q0 -108 -24.5 -167.5t-75 -83t-136.5 -23.5q-85 0 -136 24t-75.5 83.5t-24.5 166.5q0 110 25 169.5t75.5 82t135.5 22.5q50 0 85 -7h35q37 0 56.5 26t19.5 86h72q0 -68 -23.5 -108zM366.5 89.5q28.5 13.5 43 55
t14.5 124.5t-14.5 124.5t-43 54.5t-78.5 13q-51 0 -78.5 -13t-42 -54.5t-14.5 -124.5q0 -84 14.5 -125.5t42 -54.5t78.5 -13q50 0 78.5 13.5zM269 646q27 8 39 22t12 31q0 19 -10 29t-34 10q-18 0 -34 -6v41q20 7 47 7q42 0 63.5 -20.5t21.5 -57.5q0 -72 -105 -102v46z" />
    <glyph glyph-name="uni1EE0" unicode="&#x1ee0;" horiz-adv-x="690" 
d="M616 569.5q20 -76.5 20 -203.5q0 -156 -31.5 -236t-92.5 -108t-167 -28q-105 0 -166 28t-92.5 108t-31.5 236t32 237.5t93 110.5t165 29q51 0 91 -6h66q37 0 57 26t20 86h71q0 -72 -26 -112.5t-71 -51.5q43 -39 63 -115.5zM459 105q40 21 58 81t18 180q0 125 -18 186
t-57.5 81t-114.5 20q-72 0 -111.5 -20.5t-59 -81.5t-19.5 -185q0 -121 17.5 -180.5t57 -80.5t115.5 -21q74 0 114 21zM194 887.5q28 27.5 68 27.5q23 0 43 -8t45 -23q22 -13 36 -19t29 -6q25 0 39.5 15.5t15.5 44.5h51q-1 -56 -27 -86.5t-72 -30.5q-22 0 -41.5 8t-44.5 23
q-21 13 -36.5 19.5t-30.5 6.5q-23 0 -38 -15t-16 -43h-51q2 59 30 86.5z" />
    <glyph glyph-name="uni1EE1" unicode="&#x1ee1;" horiz-adv-x="576" 
d="M532.5 539q-23.5 -40 -63.5 -53q28 -32 41.5 -85t13.5 -133q0 -108 -24.5 -167.5t-75 -83t-136.5 -23.5q-85 0 -136 24t-75.5 83.5t-24.5 166.5q0 110 25 169.5t75.5 82t135.5 22.5q50 0 85 -7h35q37 0 56.5 26t19.5 86h72q0 -68 -23.5 -108zM366.5 89.5q28.5 13.5 43 55
t14.5 124.5t-14.5 124.5t-43 54.5t-78.5 13q-51 0 -78.5 -13t-42 -54.5t-14.5 -124.5q0 -84 14.5 -125.5t42 -54.5t78.5 -13q50 0 78.5 13.5zM130 727.5q28 27.5 68 27.5q23 0 43 -8t45 -23q22 -13 36 -19t29 -6q25 0 39.5 15.5t15.5 44.5h51q-1 -56 -27 -86.5t-72 -30.5
q-22 0 -41.5 8t-44.5 23q-21 13 -36.5 19.5t-30.5 6.5q-23 0 -38 -15t-16 -43h-51q2 59 30 86.5z" />
    <glyph glyph-name="uni1EE2" unicode="&#x1ee2;" horiz-adv-x="690" 
d="M616 569.5q20 -76.5 20 -203.5q0 -156 -31.5 -236t-92.5 -108t-167 -28q-105 0 -166 28t-92.5 108t-31.5 236t32 237.5t93 110.5t165 29q51 0 91 -6h66q37 0 57 26t20 86h71q0 -72 -26 -112.5t-71 -51.5q43 -39 63 -115.5zM459 105q40 21 58 81t18 180q0 125 -18 186
t-57.5 81t-114.5 20q-72 0 -111.5 -20.5t-59 -81.5t-19.5 -185q0 -121 17.5 -180.5t57 -80.5t115.5 -21q74 0 114 21zM309.5 -210.5q-4.5 4.5 -4.5 12.5v84q0 18 17 18h47q17 0 17 -18v-84q0 -8 -4.5 -12.5t-12.5 -4.5h-47q-8 0 -12.5 4.5z" />
    <glyph glyph-name="uni1EE3" unicode="&#x1ee3;" horiz-adv-x="576" 
d="M532.5 539q-23.5 -40 -63.5 -53q28 -32 41.5 -85t13.5 -133q0 -108 -24.5 -167.5t-75 -83t-136.5 -23.5q-85 0 -136 24t-75.5 83.5t-24.5 166.5q0 110 25 169.5t75.5 82t135.5 22.5q50 0 85 -7h35q37 0 56.5 26t19.5 86h72q0 -68 -23.5 -108zM366.5 89.5q28.5 13.5 43 55
t14.5 124.5t-14.5 124.5t-43 54.5t-78.5 13q-51 0 -78.5 -13t-42 -54.5t-14.5 -124.5q0 -84 14.5 -125.5t42 -54.5t78.5 -13q50 0 78.5 13.5zM257.5 -210.5q-4.5 4.5 -4.5 12.5v84q0 18 17 18h47q17 0 17 -18v-84q0 -8 -4.5 -12.5t-12.5 -4.5h-47q-8 0 -12.5 4.5z" />
    <glyph glyph-name="uni1EE4" unicode="&#x1ee4;" horiz-adv-x="679" 
d="M133.5 46.5q-70.5 52.5 -70.5 184.5v506h101v-505q0 -81 44 -114t131 -33q88 0 132 33t44 114v505h101v-506q0 -132 -71 -184.5t-206 -52.5t-205.5 52.5zM296.5 -210.5q-4.5 4.5 -4.5 12.5v84q0 18 17 18h47q17 0 17 -18v-84q0 -8 -4.5 -12.5t-12.5 -4.5h-47
q-8 0 -12.5 4.5z" />
    <glyph glyph-name="uni1EE5" unicode="&#x1ee5;" 
d="M109.5 35q-40.5 41 -40.5 123v377h100v-350q0 -57 26 -79.5t79 -22.5q74 0 148 47v405h100v-535h-80l-20 58q-100 -64 -195 -64q-77 0 -117.5 41zM248.5 -210.5q-4.5 4.5 -4.5 12.5v84q0 18 17 18h47q17 0 17 -18v-84q0 -8 -4.5 -12.5t-12.5 -4.5h-47q-8 0 -12.5 4.5z
" />
    <glyph glyph-name="uni1EE6" unicode="&#x1ee6;" horiz-adv-x="679" 
d="M133.5 46.5q-70.5 52.5 -70.5 184.5v506h101v-505q0 -81 44 -114t131 -33q88 0 132 33t44 114v505h101v-506q0 -132 -71 -184.5t-206 -52.5t-205.5 52.5zM310 815q27 8 39 22t12 31q0 19 -10 29t-34 10q-17 0 -34 -6v41q20 7 47 7q42 0 63.5 -20.5t21.5 -57.5
q0 -72 -105 -102v46z" />
    <glyph glyph-name="uni1EE7" unicode="&#x1ee7;" 
d="M109.5 35q-40.5 41 -40.5 123v377h100v-350q0 -57 26 -79.5t79 -22.5q74 0 148 47v405h100v-535h-80l-20 58q-100 -64 -195 -64q-77 0 -117.5 41zM267 646q27 8 39 22t12 31q0 19 -10 29t-34 10q-18 0 -34 -6v41q20 7 47 7q42 0 63.5 -20.5t21.5 -57.5q0 -72 -105 -102
v46z" />
    <glyph glyph-name="uni1EE8" unicode="&#x1ee8;" horiz-adv-x="679" 
d="M684.5 737.5q-25.5 -40.5 -68.5 -51.5v-455q0 -132 -71 -184.5t-206 -52.5t-205.5 52.5t-70.5 184.5v506h101v-505q0 -81 44 -114t131 -33q88 0 132 33t44 114v505h47q37 0 57 26t20 86h71q0 -71 -25.5 -111.5zM398 929h84l-122 -138h-59z" />
    <glyph glyph-name="uni1EE9" unicode="&#x1ee9;" 
d="M590 536.5q-25 -40.5 -68 -52.5v-484h-80l-20 58q-100 -64 -195 -64q-77 0 -117.5 41t-40.5 123v377h100v-350q0 -57 26 -79.5t79 -22.5q74 0 148 47v405h45q37 0 57 26t20 86h71q0 -70 -25 -110.5zM353 769h84l-122 -138h-59z" />
    <glyph glyph-name="uni1EEA" unicode="&#x1eea;" horiz-adv-x="679" 
d="M684.5 737.5q-25.5 -40.5 -68.5 -51.5v-455q0 -132 -71 -184.5t-206 -52.5t-205.5 52.5t-70.5 184.5v506h101v-505q0 -81 44 -114t131 -33q88 0 132 33t44 114v505h47q37 0 57 26t20 86h71q0 -71 -25.5 -111.5zM195 929h83l98 -138h-59z" />
    <glyph glyph-name="uni1EEB" unicode="&#x1eeb;" 
d="M590 536.5q-25 -40.5 -68 -52.5v-484h-80l-20 58q-100 -64 -195 -64q-77 0 -117.5 41t-40.5 123v377h100v-350q0 -57 26 -79.5t79 -22.5q74 0 148 47v405h45q37 0 57 26t20 86h71q0 -70 -25 -110.5zM157 769h83l98 -138h-59z" />
    <glyph glyph-name="uni1EEC" unicode="&#x1eec;" horiz-adv-x="679" 
d="M684.5 737.5q-25.5 -40.5 -68.5 -51.5v-455q0 -132 -71 -184.5t-206 -52.5t-205.5 52.5t-70.5 184.5v506h101v-505q0 -81 44 -114t131 -33q88 0 132 33t44 114v505h47q37 0 57 26t20 86h71q0 -71 -25.5 -111.5zM317 815q27 8 39 22t12 31q0 19 -10 29t-34 10
q-17 0 -34 -6v41q20 7 47 7q42 0 63.5 -20.5t21.5 -57.5q0 -72 -105 -102v46z" />
    <glyph glyph-name="uni1EED" unicode="&#x1eed;" 
d="M590 536.5q-25 -40.5 -68 -52.5v-484h-80l-20 58q-100 -64 -195 -64q-77 0 -117.5 41t-40.5 123v377h100v-350q0 -57 26 -79.5t79 -22.5q74 0 148 47v405h45q37 0 57 26t20 86h71q0 -70 -25 -110.5zM273 646q27 8 39 22t12 31q0 19 -10 29t-34 10q-18 0 -34 -6v41
q20 7 47 7q42 0 63.5 -20.5t21.5 -57.5q0 -72 -105 -102v46z" />
    <glyph glyph-name="uni1EEE" unicode="&#x1eee;" horiz-adv-x="679" 
d="M684.5 737.5q-25.5 -40.5 -68.5 -51.5v-455q0 -132 -71 -184.5t-206 -52.5t-205.5 52.5t-70.5 184.5v506h101v-505q0 -81 44 -114t131 -33q88 0 132 33t44 114v505h47q37 0 57 26t20 86h71q0 -71 -25.5 -111.5zM198 887.5q28 27.5 68 27.5q23 0 43 -8t45 -23
q22 -13 36 -19t29 -6q25 0 39.5 15.5t15.5 44.5h51q-1 -56 -27 -86.5t-72 -30.5q-22 0 -41.5 8t-44.5 23q-21 13 -36.5 19.5t-30.5 6.5q-23 0 -38 -15t-16 -43h-51q2 59 30 86.5z" />
    <glyph glyph-name="uni1EEF" unicode="&#x1eef;" 
d="M590 536.5q-25 -40.5 -68 -52.5v-484h-80l-20 58q-100 -64 -195 -64q-77 0 -117.5 41t-40.5 123v377h100v-350q0 -57 26 -79.5t79 -22.5q74 0 148 47v405h45q37 0 57 26t20 86h71q0 -70 -25 -110.5zM148 727.5q28 27.5 68 27.5q23 0 43 -8t45 -23q22 -13 36 -19t29 -6
q25 0 39.5 15.5t15.5 44.5h51q-1 -56 -27 -86.5t-72 -30.5q-22 0 -41.5 8t-44.5 23q-21 13 -36.5 19.5t-30.5 6.5q-23 0 -38 -15t-16 -43h-51q2 59 30 86.5z" />
    <glyph glyph-name="uni1EF0" unicode="&#x1ef0;" horiz-adv-x="679" 
d="M684.5 737.5q-25.5 -40.5 -68.5 -51.5v-455q0 -132 -71 -184.5t-206 -52.5t-205.5 52.5t-70.5 184.5v506h101v-505q0 -81 44 -114t131 -33q88 0 132 33t44 114v505h47q37 0 57 26t20 86h71q0 -71 -25.5 -111.5zM290.5 -210.5q-4.5 4.5 -4.5 12.5v84q0 18 17 18h47
q17 0 17 -18v-84q0 -8 -4.5 -12.5t-12.5 -4.5h-47q-8 0 -12.5 4.5z" />
    <glyph glyph-name="uni1EF1" unicode="&#x1ef1;" 
d="M590 536.5q-25 -40.5 -68 -52.5v-484h-80l-20 58q-100 -64 -195 -64q-77 0 -117.5 41t-40.5 123v377h100v-350q0 -57 26 -79.5t79 -22.5q74 0 148 47v405h45q37 0 57 26t20 86h71q0 -70 -25 -110.5zM238.5 -210.5q-4.5 4.5 -4.5 12.5v84q0 18 17 18h47q17 0 17 -18v-84
q0 -8 -4.5 -12.5t-12.5 -4.5h-47q-8 0 -12.5 4.5z" />
    <glyph glyph-name="Ygrave" unicode="&#x1ef2;" horiz-adv-x="621" 
d="M260 238l-230 499h105l177 -397l178 397h101l-230 -499v-238h-101v238zM170 929h83l98 -138h-59z" />
    <glyph glyph-name="ygrave" unicode="&#x1ef3;" horiz-adv-x="550" 
d="M286 0q-52 1 -91 32t-58 99l-120 404h105l108 -383q22 -68 75 -68l125 451h103l-184 -673l-48 -99h-80zM138 769h83l98 -138h-59z" />
    <glyph glyph-name="uni1EF4" unicode="&#x1ef4;" horiz-adv-x="621" 
d="M260 238l-230 499h105l177 -397l178 397h101l-230 -499v-238h-101v238zM274.5 -210.5q-4.5 4.5 -4.5 12.5v84q0 18 17 18h47q17 0 17 -18v-84q0 -8 -4.5 -12.5t-12.5 -4.5h-47q-8 0 -12.5 4.5z" />
    <glyph glyph-name="uni1EF5" unicode="&#x1ef5;" horiz-adv-x="550" 
d="M286 0q-52 1 -91 32t-58 99l-120 404h105l108 -383q22 -68 75 -68l125 451h103l-184 -673l-48 -99h-80zM438.5 -210.5q-4.5 4.5 -4.5 12.5v84q0 18 17 18h47q17 0 17 -18v-84q0 -8 -4.5 -12.5t-12.5 -4.5h-47q-8 0 -12.5 4.5z" />
    <glyph glyph-name="uni1EF6" unicode="&#x1ef6;" horiz-adv-x="621" 
d="M260 238l-230 499h105l177 -397l178 397h101l-230 -499v-238h-101v238zM288 815q27 8 39 22t12 31q0 19 -10 29t-34 10q-17 0 -34 -6v41q20 7 47 7q42 0 63.5 -20.5t21.5 -57.5q0 -72 -105 -102v46z" />
    <glyph glyph-name="uni1EF7" unicode="&#x1ef7;" horiz-adv-x="550" 
d="M286 0q-52 1 -91 32t-58 99l-120 404h105l108 -383q22 -68 75 -68l125 451h103l-184 -673l-48 -99h-80zM248 646q27 8 39 22t12 31q0 19 -10 29t-34 10q-18 0 -34 -6v41q20 7 47 7q42 0 63.5 -20.5t21.5 -57.5q0 -72 -105 -102v46z" />
    <glyph glyph-name="uni1EF8" unicode="&#x1ef8;" horiz-adv-x="621" 
d="M260 238l-230 499h105l177 -397l178 397h101l-230 -499v-238h-101v238zM166 887.5q28 27.5 68 27.5q23 0 43 -8t45 -23q22 -13 36 -19t29 -6q25 0 39.5 15.5t15.5 44.5h51q-1 -56 -27 -86.5t-72 -30.5q-22 0 -41.5 8t-44.5 23q-21 13 -36.5 19.5t-30.5 6.5q-23 0 -38 -15
t-16 -43h-51q2 59 30 86.5z" />
    <glyph glyph-name="uni1EF9" unicode="&#x1ef9;" horiz-adv-x="550" 
d="M286 0q-52 1 -91 32t-58 99l-120 404h105l108 -383q22 -68 75 -68l125 451h103l-184 -673l-48 -99h-80zM130 727.5q28 27.5 68 27.5q23 0 43 -8t45 -23q22 -13 36 -19t29 -6q25 0 39.5 15.5t15.5 44.5h51q-1 -56 -27 -86.5t-72 -30.5q-22 0 -41.5 8t-44.5 23
q-21 13 -36.5 19.5t-30.5 6.5q-23 0 -38 -15t-16 -43h-51q2 59 30 86.5z" />
    <glyph glyph-name="uni2007" unicode="&#x2007;" horiz-adv-x="609" 
 />
    <glyph glyph-name="uni2008" unicode="&#x2008;" horiz-adv-x="210" 
 />
    <glyph glyph-name="uni2009" unicode="&#x2009;" horiz-adv-x="133" 
 />
    <glyph glyph-name="uni200A" unicode="&#x200a;" horiz-adv-x="80" 
 />
    <glyph glyph-name="uni200B" unicode="&#x200b;" horiz-adv-x="0" 
 />
    <glyph glyph-name="uni2010" unicode="&#x2010;" horiz-adv-x="345" 
d="M24 331h297v-82h-297v82z" />
    <glyph glyph-name="figuredash" unicode="&#x2012;" horiz-adv-x="609" 
d="M68 331h473v-83h-473v83z" />
    <glyph glyph-name="endash" unicode="&#x2013;" horiz-adv-x="521" 
d="M24 331h473v-83h-473v83z" />
    <glyph glyph-name="emdash" unicode="&#x2014;" horiz-adv-x="744" 
d="M24 331h696v-83h-696v83z" />
    <glyph glyph-name="uni2015" unicode="&#x2015;" horiz-adv-x="744" 
d="M24 331h696v-83h-696v83z" />
    <glyph glyph-name="quoteleft" unicode="&#x2018;" horiz-adv-x="198" 
d="M53 540v146q0 38 20.5 52.5t48.5 14.5q15 0 24 -3v-36q-25 0 -25 -24v-44h9q9 0 14 -5t5 -15v-86q0 -21 -19 -21h-61q-16 0 -16 21z" />
    <glyph glyph-name="quoteright" unicode="&#x2019;" horiz-adv-x="198" 
d="M52 518v36q25 0 25 24v44h-9q-8 0 -13.5 5.5t-5.5 14.5v86q0 21 19 21h61q16 0 16 -21v-146q0 -38 -21 -52.5t-48 -14.5q-13 0 -24 3z" />
    <glyph glyph-name="quotesinglbase" unicode="&#x201a;" horiz-adv-x="198" 
d="M52 -110v36q25 0 25 24v44h-9q-8 0 -13.5 5.5t-5.5 14.5v86q0 21 19 21h61q16 0 16 -21v-146q0 -38 -21 -52.5t-48 -14.5q-18 0 -24 3z" />
    <glyph glyph-name="quotedblleft" unicode="&#x201c;" horiz-adv-x="332" 
d="M53 540v146q0 38 20.5 52.5t48.5 14.5q15 0 24 -3v-36q-25 0 -25 -24v-44h9q9 0 14 -5t5 -15v-86q0 -21 -19 -21h-61q-16 0 -16 21zM187 540v146q0 38 20.5 52.5t48.5 14.5q15 0 24 -3v-36q-25 0 -25 -24v-44h9q9 0 14 -5t5 -15v-86q0 -21 -19 -21h-61q-16 0 -16 21z" />
    <glyph glyph-name="quotedblright" unicode="&#x201d;" horiz-adv-x="332" 
d="M52 518v36q25 0 25 24v44h-9q-8 0 -13.5 5.5t-5.5 14.5v86q0 21 19 21h61q16 0 16 -21v-146q0 -38 -21 -52.5t-48 -14.5q-13 0 -24 3zM186 518v36q25 0 25 24v44h-9q-8 0 -13.5 5.5t-5.5 14.5v86q0 21 19 21h61q16 0 16 -21v-146q0 -38 -21 -52.5t-48 -14.5q-13 0 -24 3z
" />
    <glyph glyph-name="quotedblbase" unicode="&#x201e;" horiz-adv-x="332" 
d="M52 -110v36q25 0 25 24v44h-9q-8 0 -13.5 5.5t-5.5 14.5v86q0 21 19 21h61q16 0 16 -21v-146q0 -38 -21 -52.5t-48 -14.5q-18 0 -24 3zM186 -110v36q25 0 25 24v44h-9q-8 0 -13.5 5.5t-5.5 14.5v86q0 21 19 21h61q16 0 16 -21v-146q0 -38 -21 -52.5t-48 -14.5
q-18 0 -24 3z" />
    <glyph glyph-name="dagger" unicode="&#x2020;" horiz-adv-x="438" 
d="M168 463l-148 9v75l148 9l8 214h86l8 -214l148 -9v-75l-148 -9l-9 -535h-86z" />
    <glyph glyph-name="daggerdbl" unicode="&#x2021;" horiz-adv-x="457" 
d="M167 151l-147 12v74l148 11v215l-148 9v75l148 9l8 214h86l8 -214l148 -9v-75l-148 -9v-215l148 -11v-74l-148 -11l-9 -224h-86z" />
    <glyph glyph-name="bullet" unicode="&#x2022;" horiz-adv-x="315" 
d="M94 315.5q-9 8.5 -9 23.5v84q0 16 8.5 25.5t24.5 9.5h78q35 0 35 -35v-84q0 -32 -35 -32h-78q-15 0 -24 8.5z" />
    <glyph glyph-name="ellipsis" unicode="&#x2026;" horiz-adv-x="816" 
d="M95 4.5q-5 4.5 -5 12.5v87q0 18 18 18h56q18 0 18 -18v-87q0 -17 -18 -17h-56q-8 0 -13 4.5zM367 4.5q-5 4.5 -5 12.5v87q0 18 18 18h56q18 0 18 -18v-87q0 -17 -18 -17h-56q-8 0 -13 4.5zM639 4.5q-5 4.5 -5 12.5v87q0 18 18 18h56q18 0 18 -18v-87q0 -17 -18 -17h-56
q-8 0 -13 4.5z" />
    <glyph glyph-name="perthousand" unicode="&#x2030;" horiz-adv-x="1379" 
d="M72.5 381q-30.5 32 -30.5 98v124q0 66 30.5 97.5t103.5 31.5h101q71 0 101 -31.5t30 -97.5v-124q0 -67 -30 -98.5t-103 -31.5h-101q-71 0 -101.5 32zM665 732h67l-442 -732h-70zM263 414q44 0 62 17t18 61v97q0 44 -17 61t-61 17h-78q-42 0 -61 -16t-19 -62v-97
q0 -43 17.5 -60.5t60.5 -17.5h78zM583 35q-30 32 -30 98v124q0 66 30 97.5t103 31.5h102q71 0 101 -31.5t30 -97.5v-124q0 -67 -30 -98.5t-103 -31.5h-102q-71 0 -101 32zM1001.5 35q-30.5 32 -30.5 98v124q0 66 30.5 97.5t103.5 31.5h101q71 0 101 -31.5t30 -97.5v-124
q0 -67 -30 -98.5t-103 -31.5h-101q-71 0 -101.5 32zM774 68q44 0 62 17t18 61v97q0 44 -17 61t-61 17h-78q-42 0 -61 -16t-19 -62v-97q0 -43 17.5 -60.5t60.5 -17.5h78zM1193 68q43 0 61 17t18 61v97q0 44 -17 61t-60 17h-79q-42 0 -61 -16t-19 -62v-97q0 -43 17.5 -60.5
t60.5 -17.5h79z" />
    <glyph glyph-name="minute" unicode="&#x2032;" horiz-adv-x="167" 
d="M136 763l-33 -306h-70l11 306h92z" />
    <glyph glyph-name="second" unicode="&#x2033;" horiz-adv-x="310" 
d="M136 763l-33 -306h-70l11 306h92zM279 763l-33 -306h-70l11 306h92z" />
    <glyph glyph-name="guilsinglleft" unicode="&#x2039;" horiz-adv-x="364" 
d="M50 281l215 212l52 -52l-163 -160l167 -164l-52 -53z" />
    <glyph glyph-name="guilsinglright" unicode="&#x203a;" horiz-adv-x="364" 
d="M48 117l163 161l-166 163l54 52l217 -215l-218 -214z" />
    <glyph glyph-name="fraction" unicode="&#x2044;" horiz-adv-x="266" 
d="M284 770h72l-374 -770h-72z" />
    </font>
</defs>
</svg>
